<?xml version="1.0" encoding="UTF-8" standalone="no"?>
<!-- Generator: Adobe Illustrator 18.0.0, SVG Export Plug-In . SVG Version: 6.00 Build 0)  -->

<svg
   xmlns:dc="http://purl.org/dc/elements/1.1/"
   xmlns:cc="http://creativecommons.org/ns#"
   xmlns:rdf="http://www.w3.org/1999/02/22-rdf-syntax-ns#"
   xmlns:svg="http://www.w3.org/2000/svg"
   xmlns="http://www.w3.org/2000/svg"
   xmlns:xlink="http://www.w3.org/1999/xlink"
   xmlns:sodipodi="http://sodipodi.sourceforge.net/DTD/sodipodi-0.dtd"
   xmlns:inkscape="http://www.inkscape.org/namespaces/inkscape"
   version="1.1"
   x="0px"
   y="0px"
   viewBox="0 0 64 64"
   enable-background="new 0 0 64 64"
   xml:space="preserve"
   id="svg5520"
   inkscape:version="0.48.2 r9819"
   width="100%"
   height="100%"
   sodipodi:docname="OSE freecad 3d printer extruder v1-5a-11.svg"><metadata
   id="metadata5680"><rdf:RDF><cc:Work
       rdf:about=""><dc:format>image/svg+xml</dc:format><dc:type
         rdf:resource="http://purl.org/dc/dcmitype/StillImage" /></cc:Work></rdf:RDF></metadata><defs
   id="defs5678"><linearGradient
     id="SVGID_1_"
     gradientUnits="userSpaceOnUse"
     x1="23.360001"
     y1="9.3077002"
     x2="40.639999"
     y2="9.3077002"><stop
       offset="0"
       style="stop-color:#58595B"
       id="stop5537" /><stop
       offset="1"
       style="stop-color:#A6A8AB"
       id="stop5539" /></linearGradient><linearGradient
     id="SVGID_2_"
     gradientUnits="userSpaceOnUse"
     x1="25.76"
     y1="15.3667"
     x2="38.240002"
     y2="15.3667"><stop
       offset="0"
       style="stop-color:#58595B"
       id="stop5544" /><stop
       offset="1"
       style="stop-color:#A6A8AB"
       id="stop5546" /></linearGradient><linearGradient
     id="SVGID_3_"
     gradientUnits="userSpaceOnUse"
     x1="17"
     y1="20.552601"
     x2="47"
     y2="20.552601"><stop
       offset="0"
       style="stop-color:#58595B"
       id="stop5565" /><stop
       offset="1"
       style="stop-color:#A6A8AB"
       id="stop5567" /></linearGradient><linearGradient
     id="SVGID_4_"
     gradientUnits="userSpaceOnUse"
     x1="17"
     y1="26.2673"
     x2="47"
     y2="26.2673"><stop
       offset="0"
       style="stop-color:#58595B"
       id="stop5572" /><stop
       offset="1"
       style="stop-color:#A6A8AB"
       id="stop5574" /></linearGradient><linearGradient
     id="SVGID_5_"
     gradientUnits="userSpaceOnUse"
     x1="17"
     y1="32.254002"
     x2="47"
     y2="32.254002"><stop
       offset="0"
       style="stop-color:#58595B"
       id="stop5579" /><stop
       offset="1"
       style="stop-color:#A6A8AB"
       id="stop5581" /></linearGradient><linearGradient
     id="SVGID_6_"
     gradientUnits="userSpaceOnUse"
     x1="23.855101"
     y1="54.819698"
     x2="34.4151"
     y2="54.819698"><stop
       offset="0"
       style="stop-color:#C79E42"
       id="stop5594" /><stop
       offset="1"
       style="stop-color:#F2D556"
       id="stop5596" /></linearGradient><linearGradient
     inkscape:collect="always"
     xlink:href="#SVGID_1_"
     id="linearGradient6053"
     gradientUnits="userSpaceOnUse"
     x1="23.360001"
     y1="9.3077002"
     x2="40.639999"
     y2="9.3077002" /><linearGradient
     inkscape:collect="always"
     xlink:href="#SVGID_2_"
     id="linearGradient6055"
     gradientUnits="userSpaceOnUse"
     x1="25.76"
     y1="15.3667"
     x2="38.240002"
     y2="15.3667" /><linearGradient
     inkscape:collect="always"
     xlink:href="#SVGID_3_"
     id="linearGradient6057"
     gradientUnits="userSpaceOnUse"
     x1="17"
     y1="20.552601"
     x2="47"
     y2="20.552601" /><linearGradient
     inkscape:collect="always"
     xlink:href="#SVGID_4_"
     id="linearGradient6059"
     gradientUnits="userSpaceOnUse"
     x1="17"
     y1="26.2673"
     x2="47"
     y2="26.2673" /><linearGradient
     inkscape:collect="always"
     xlink:href="#SVGID_5_"
     id="linearGradient6061"
     gradientUnits="userSpaceOnUse"
     x1="17"
     y1="32.254002"
     x2="47"
     y2="32.254002" /><linearGradient
     inkscape:collect="always"
     xlink:href="#SVGID_6_"
     id="linearGradient6063"
     gradientUnits="userSpaceOnUse"
     x1="23.855101"
     y1="54.819698"
     x2="34.4151"
     y2="54.819698" /></defs><sodipodi:namedview
   pagecolor="#ffffff"
   bordercolor="#666666"
   borderopacity="1"
   objecttolerance="10"
   gridtolerance="10"
   guidetolerance="10"
   inkscape:pageopacity="0"
   inkscape:pageshadow="2"
   inkscape:window-width="1536"
   inkscape:window-height="801"
   id="namedview5676"
   showgrid="false"
   inkscape:zoom="3.6875"
   inkscape:cx="0.81355932"
   inkscape:cy="32"
   inkscape:window-x="-8"
   inkscape:window-y="-8"
   inkscape:window-maximized="1"
   inkscape:current-layer="layer3" />


<g
   inkscape:groupmode="layer"
   id="layer3"
   inkscape:label="solids"><g
     id="solids"><g
       id="frame_1_" /><g
       id="axis_1_" /><g
       id="controller_1_" /><g
       id="power_supply_1_" /><g
       id="wiring_1_" /><g
       id="spool_holder_1_" /><g
       id="extruder_1_"><g
         id="g5530"><ellipse
           d="m 47,38.5 c 0,4.915334 -6.715729,8.9 -15,8.9 -8.284271,0 -15,-3.984666 -15,-8.9 0,-4.915334 6.715729,-8.9 15,-8.9 8.284271,0 15,3.984666 15,8.9 z"
           style="fill:#333334"
           sodipodi:ry="8.8999996"
           sodipodi:rx="15"
           sodipodi:cy="38.5"
           sodipodi:cx="32"
           cx="32"
           cy="38.5"
           rx="15"
           ry="8.8999996"
           id="ellipse5532" /><ellipse
           d="m 40.6,13.8 c 0,2.816652 -3.850351,5.1 -8.6,5.1 -4.749649,0 -8.6,-2.283348 -8.6,-5.1 0,-2.816652 3.850351,-5.0999997 8.6,-5.0999997 4.749649,0 8.6,2.2833477 8.6,5.0999997 z"
           style="fill:#333334"
           sodipodi:ry="5.0999999"
           sodipodi:rx="8.6000004"
           sodipodi:cy="13.8"
           sodipodi:cx="32"
           cx="32"
           cy="13.8"
           rx="8.6000004"
           ry="5.0999999"
           id="ellipse5534" /><linearGradient
           id="linearGradient5864"
           gradientUnits="userSpaceOnUse"
           x1="23.360001"
           y1="9.3077002"
           x2="40.639999"
           y2="9.3077002"><stop
             offset="0"
             style="stop-color:#58595B"
             id="stop5866" /><stop
             offset="1"
             style="stop-color:#A6A8AB"
             id="stop5868" /></linearGradient><path
           style="fill:url(#linearGradient6053)"
           inkscape:connector-curvature="0"
           d="m 32,4.8 c -4.8,0 -8.6,2.3 -8.6,5.1 v 3.9 c 0,-2.8 3.9,-5.1 8.6,-5.1 4.7,0 8.6,2.3 8.6,5.1 V 9.9 C 40.6,7.1 36.8,4.8 32,4.8 z"
           id="path5541" /><linearGradient
           id="linearGradient5871"
           gradientUnits="userSpaceOnUse"
           x1="25.76"
           y1="15.3667"
           x2="38.240002"
           y2="15.3667"><stop
             offset="0"
             style="stop-color:#58595B"
             id="stop5873" /><stop
             offset="1"
             style="stop-color:#A6A8AB"
             id="stop5875" /></linearGradient><path
           style="fill:url(#linearGradient6055)"
           inkscape:connector-curvature="0"
           d="m 32,10.7 c -3.4,0 -6.2,1.7 -6.2,3.7 v 5.7 H 38.3 V 14.4 C 38.2,12.3 35.4,10.7 32,10.7 z"
           id="path5548" /><polygon
           style="fill:#58595b"
           points="30.4,32.8 30.4,43.7 18.4,51.5 18.4,40.5 "
           id="polygon5550" /><polygon
           style="fill:#929497"
           points="30.4,32.8 30.4,43.7 43.9,52.6 43.9,41.6 "
           id="polygon5552" /><polygon
           style="fill:#bbbdbf"
           points="18.4,51.5 30.4,43.7 43.9,52.6 32.9,60.3 "
           id="polygon5554" /><polygon
           style="fill:#ffea73"
           points="31.8,51.7 34.4,54.4 34.4,51.4 31.8,48.7 "
           id="polygon5556" /><rect
           style="fill:#f2d556"
           x="26.5"
           y="48.700001"
           width="5.3000002"
           height="3"
           id="rect5558" /><polygon
           style="fill:#c79e42"
           points="26.5,48.7 26.5,51.7 23.9,54.4 23.9,51.4 "
           id="polygon5560" /><ellipse
           d="m 31,56.799999 c 0,0.607513 -0.850659,1.1 -1.9,1.1 -1.049341,0 -1.9,-0.492487 -1.9,-1.1 0,-0.607513 0.850659,-1.1 1.9,-1.1 1.049341,0 1.9,0.492487 1.9,1.1 z"
           style="fill:#bbbdbf"
           sodipodi:ry="1.1"
           sodipodi:rx="1.9"
           sodipodi:cy="56.799999"
           sodipodi:cx="29.1"
           cx="29.1"
           cy="56.799999"
           rx="1.9"
           ry="1.1"
           id="ellipse5562" /><linearGradient
           id="linearGradient5885"
           gradientUnits="userSpaceOnUse"
           x1="17"
           y1="20.552601"
           x2="47"
           y2="20.552601"><stop
             offset="0"
             style="stop-color:#58595B"
             id="stop5887" /><stop
             offset="1"
             style="stop-color:#A6A8AB"
             id="stop5889" /></linearGradient><path
           style="fill:url(#linearGradient6057)"
           inkscape:connector-curvature="0"
           d="m 32,14.3 c -8.3,0 -15,4 -15,8.9 v 3.5 c 0,-4.9 6.7,-8.9 15,-8.9 8.3,0 15,4 15,8.9 v -3.5 c 0,-4.9 -6.7,-8.9 -15,-8.9 z"
           id="path5569" /><linearGradient
           id="linearGradient5892"
           gradientUnits="userSpaceOnUse"
           x1="17"
           y1="26.2673"
           x2="47"
           y2="26.2673"><stop
             offset="0"
             style="stop-color:#58595B"
             id="stop5894" /><stop
             offset="1"
             style="stop-color:#A6A8AB"
             id="stop5896" /></linearGradient><path
           style="fill:url(#linearGradient6059)"
           inkscape:connector-curvature="0"
           d="m 32,20.1 c -8.3,0 -15,4 -15,8.9 v 3.5 c 0,-4.9 6.7,-8.9 15,-8.9 8.3,0 15,4 15,8.9 V 29 c 0,-5 -6.7,-8.9 -15,-8.9 z"
           id="path5576" /><linearGradient
           id="linearGradient5899"
           gradientUnits="userSpaceOnUse"
           x1="17"
           y1="32.254002"
           x2="47"
           y2="32.254002"><stop
             offset="0"
             style="stop-color:#58595B"
             id="stop5901" /><stop
             offset="1"
             style="stop-color:#A6A8AB"
             id="stop5903" /></linearGradient><path
           style="fill:url(#linearGradient6061)"
           inkscape:connector-curvature="0"
           d="m 32,26 c -8.3,0 -15,4 -15,8.9 v 3.5 c 0,-4.9 6.7,-8.9 15,-8.9 8.3,0 15,4 15,8.9 V 34.9 C 47,30 40.3,26 32,26 z"
           id="path5583" /><g
           id="g5585"><path
             style="fill:#333334"
             inkscape:connector-curvature="0"
             d="m 32,20.1 c 7.7,0 14,3.4 14.9,7.8 0.1,-0.4 0.1,-0.7 0.1,-1.1 0,-4.9 -6.7,-8.9 -15,-8.9 -8.3,0 -15,4 -15,8.9 0,0.4 0.1,0.7 0.1,1.1 0.9,-4.4 7.2,-7.8 14.9,-7.8 z"
             id="path5587" /></g><g
           id="g5589"><path
             style="fill:#333334"
             inkscape:connector-curvature="0"
             d="m 32,25.8 c 7.7,0 14,3.4 14.9,7.8 0.1,-0.4 0.1,-0.7 0.1,-1.1 0,-4.9 -6.7,-8.9 -15,-8.9 -8.3,0 -15,4 -15,8.9 0,0.4 0.1,0.7 0.1,1.1 0.9,-4.4 7.2,-7.8 14.9,-7.8 z"
             id="path5591" /></g><linearGradient
           id="linearGradient5910"
           gradientUnits="userSpaceOnUse"
           x1="23.855101"
           y1="54.819698"
           x2="34.4151"
           y2="54.819698"><stop
             offset="0"
             style="stop-color:#C79E42"
             id="stop5912" /><stop
             offset="1"
             style="stop-color:#F2D556"
             id="stop5914" /></linearGradient><path
           style="fill:url(#linearGradient6063)"
           inkscape:connector-curvature="0"
           d="m 23.9,54.4 2.6,-2.7 h 5.3 l 2.6,2.7 -3.7,3.1 c 0,0 -0.4,0.5 -1.6,0.5 -1.1,0 -1.6,-0.5 -1.6,-0.5 l -3.6,-3.1 z"
           id="path5598" /></g></g><g
       id="heat_bed_1_" /></g></g><g
   inkscape:groupmode="layer"
   id="layer4"
   inkscape:label="outlines"
   style="display:inline"><g
     id="outlines"><g
       id="frame" /><g
       id="heat_bed" /><g
       id="axis" /><g
       id="controller" /><g
       id="spool_holder" /><g
       id="wiring" /><g
       id="power_supply" /><g
       id="extruder"><g
         id="g5610"><path
           style="fill:none;stroke:#231f20;stroke-width:1.39999998;stroke-linecap:round;stroke-linejoin:round;stroke-miterlimit:10"
           inkscape:connector-curvature="0"
           stroke-miterlimit="10"
           d="m 32,14.3 c -8.3,0 -15,4 -15,8.9 v 3.5 c 0,-4.9 6.7,-8.9 15,-8.9 8.3,0 15,4 15,8.9 v -3.5 c 0,-4.9 -6.7,-8.9 -15,-8.9 z"
           id="path5612" /><path
           style="fill:none;stroke:#231f20;stroke-width:1.39999998;stroke-linecap:round;stroke-linejoin:round;stroke-miterlimit:10"
           inkscape:connector-curvature="0"
           stroke-miterlimit="10"
           d="m 32,4.8 c -4.8,0 -8.6,2.3 -8.6,5.1 v 3.9 c 0,-2.8 3.9,-5.1 8.6,-5.1 4.7,0 8.6,2.3 8.6,5.1 V 9.9 C 40.6,7.1 36.8,4.8 32,4.8 z"
           id="path5614" /><path
           style="fill:none;stroke:#231f20;stroke-width:1.39999998;stroke-linecap:round;stroke-linejoin:round;stroke-miterlimit:10"
           inkscape:connector-curvature="0"
           stroke-miterlimit="10"
           d="m 32,20.1 c -8.3,0 -15,4 -15,8.9 v 3.5 c 0,-4.9 6.7,-8.9 15,-8.9 8.3,0 15,4 15,8.9 V 29 c 0,-5 -6.7,-8.9 -15,-8.9 z"
           id="path5616" /><path
           style="fill:none;stroke:#231f20;stroke-width:1.39999998;stroke-linecap:round;stroke-linejoin:round;stroke-miterlimit:10"
           inkscape:connector-curvature="0"
           stroke-miterlimit="10"
           d="m 32,26 c -8.3,0 -15,4 -15,8.9 v 3.5 c 0,-4.9 6.7,-8.9 15,-8.9 8.3,0 15,4 15,8.9 V 34.9 C 47,30 40.3,26 32,26 z"
           id="path5618" /><g
           id="g5620"><ellipse
             d="m 31,56.799999 c 0,0.607513 -0.850659,1.1 -1.9,1.1 -1.049341,0 -1.9,-0.492487 -1.9,-1.1 0,-0.607513 0.850659,-1.1 1.9,-1.1 1.049341,0 1.9,0.492487 1.9,1.1 z"
             style="fill:none;stroke:#231f20;stroke-width:1.39999998;stroke-linecap:round;stroke-linejoin:round;stroke-miterlimit:10"
             sodipodi:ry="1.1"
             sodipodi:rx="1.9"
             sodipodi:cy="56.799999"
             sodipodi:cx="29.1"
             stroke-miterlimit="10"
             cx="29.1"
             cy="56.799999"
             rx="1.9"
             ry="1.1"
             id="ellipse5622" /><ellipse
             d="m 29.6,56.900002 c 0,0.165685 -0.223857,0.3 -0.5,0.3 -0.276142,0 -0.5,-0.134315 -0.5,-0.3 0,-0.165686 0.223858,-0.3 0.5,-0.3 0.276143,0 0.5,0.134314 0.5,0.3 z"
             style="fill:#231f20"
             sodipodi:ry="0.30000001"
             sodipodi:rx="0.5"
             sodipodi:cy="56.900002"
             sodipodi:cx="29.1"
             cx="29.1"
             cy="56.900002"
             rx="0.5"
             ry="0.30000001"
             id="ellipse5624" /><g
             id="g5626"><polyline
               style="fill:none;stroke:#231f20;stroke-width:1.39999998;stroke-linecap:round;stroke-linejoin:round;stroke-miterlimit:10"
               stroke-miterlimit="10"
               points="       18.4,40.5 30.4,32.8 43.9,41.6      "
               id="polyline5628" /><line
               style="fill:none;stroke:#231f20;stroke-width:1.39999998;stroke-linecap:round;stroke-linejoin:round;stroke-miterlimit:10"
               stroke-miterlimit="10"
               x1="18.4"
               y1="40.5"
               x2="18.4"
               y2="51.5"
               id="line5630" /><line
               style="fill:none;stroke:#231f20;stroke-width:1.39999998;stroke-linecap:round;stroke-linejoin:round;stroke-miterlimit:10"
               stroke-miterlimit="10"
               x1="30.4"
               y1="43.700001"
               x2="30.4"
               y2="32.799999"
               id="line5632" /><line
               style="fill:none;stroke:#231f20;stroke-width:1.39999998;stroke-linecap:round;stroke-linejoin:round;stroke-miterlimit:10"
               stroke-miterlimit="10"
               x1="43.900002"
               y1="41.599998"
               x2="43.900002"
               y2="52.599998"
               id="line5634" /><polyline
               style="fill:none;stroke:#231f20;stroke-width:1.39999998;stroke-linecap:round;stroke-linejoin:round;stroke-miterlimit:10"
               stroke-miterlimit="10"
               points="       28.9,57.9 32.9,60.3 43.9,52.6 30.4,43.7 18.4,51.5 26,56.1      "
               id="polyline5636" /></g><polyline
             style="fill:none;stroke:#231f20;stroke-width:1.39999998;stroke-linecap:round;stroke-linejoin:round;stroke-miterlimit:10"
             stroke-miterlimit="10"
             points="      23.9,51.4 26.5,48.7 31.8,48.7 34.4,51.4     "
             id="polyline5638" /><polyline
             style="fill:none;stroke:#231f20;stroke-width:1.39999998;stroke-linecap:round;stroke-linejoin:round;stroke-miterlimit:10"
             stroke-miterlimit="10"
             points="      27.6,57.5 23.9,54.4 26.5,51.7 31.8,51.7 34.4,54.4 30.7,57.5     "
             id="polyline5640" /><line
             style="fill:none;stroke:#231f20;stroke-width:1.39999998;stroke-linecap:round;stroke-linejoin:round;stroke-miterlimit:10"
             stroke-miterlimit="10"
             x1="26.5"
             y1="51.700001"
             x2="26.5"
             y2="48.700001"
             id="line5642" /><line
             style="fill:none;stroke:#231f20;stroke-width:1.39999998;stroke-linecap:round;stroke-linejoin:round;stroke-miterlimit:10"
             stroke-miterlimit="10"
             x1="31.799999"
             y1="51.700001"
             x2="31.799999"
             y2="48.700001"
             id="line5644" /><line
             style="fill:none;stroke:#231f20;stroke-width:1.39999998;stroke-linecap:round;stroke-linejoin:round;stroke-miterlimit:10"
             stroke-miterlimit="10"
             x1="34.400002"
             y1="54.400002"
             x2="34.400002"
             y2="51.400002"
             id="line5646" /><line
             style="fill:none;stroke:#231f20;stroke-width:1.39999998;stroke-linecap:round;stroke-linejoin:round;stroke-miterlimit:10"
             stroke-miterlimit="10"
             x1="23.9"
             y1="54.400002"
             x2="23.9"
             y2="51.400002"
             id="line5648" /></g><g
           id="g5650"><path
             style="fill:none;stroke:#231f20;stroke-width:1.39999998;stroke-linecap:round;stroke-linejoin:round;stroke-miterlimit:10"
             inkscape:connector-curvature="0"
             stroke-miterlimit="10"
             d="m 38.2,15.2 v -0.8 c 0,-2 -2.8,-3.7 -6.2,-3.7 -3.4,0 -6.2,1.7 -6.2,3.7 v 0.8"
             id="path5652" /></g><g
           id="g5654"><path
             style="fill:none;stroke:#231f20;stroke-width:1.39999998;stroke-linecap:round;stroke-linejoin:round;stroke-miterlimit:10"
             inkscape:connector-curvature="0"
             stroke-miterlimit="10"
             d="m 23.4,13.8 c 0,0.7 0.2,1.3 0.6,1.9"
             id="path5656" /><path
             style="fill:none;stroke:#231f20;stroke-width:1.39999998;stroke-linecap:round;stroke-linejoin:round;stroke-miterlimit:10"
             inkscape:connector-curvature="0"
             stroke-miterlimit="10"
             d="m 40,15.7 c 0.4,-0.6 0.6,-1.2 0.6,-1.9"
             id="path5658" /></g><path
           style="fill:none;stroke:#231f20;stroke-width:1.39999998;stroke-linecap:round;stroke-linejoin:round;stroke-miterlimit:10"
           inkscape:connector-curvature="0"
           stroke-miterlimit="10"
           d="m 43.9,43.8 c 1.9,-1.5 3.1,-3.3 3.1,-5.3 0,-4.9 -6.7,-8.9 -15,-8.9 -8.3,0 -15,4 -15,8.9 0,1.3 0.5,2.5 1.4,3.7"
           id="path5660" /><g
           id="g5662"><path
             style="fill:none;stroke:#231f20;stroke-width:1.39999998;stroke-linecap:round;stroke-linejoin:round;stroke-miterlimit:10"
             inkscape:connector-curvature="0"
             stroke-miterlimit="10"
             d="m 46.8,33.7 c 0.1,-0.4 0.2,-0.8 0.2,-1.2 0,-4.9 -6.7,-8.9 -15,-8.9 -8.3,0 -15,4 -15,8.9 0,0.4 0.1,0.8 0.2,1.2"
             id="path5664" /></g><g
           id="g5666"><path
             style="fill:none;stroke:#231f20;stroke-width:1.39999998;stroke-linecap:round;stroke-linejoin:round;stroke-miterlimit:10"
             inkscape:connector-curvature="0"
             stroke-miterlimit="10"
             d="M 46.9,27.8 C 47,27.4 47,27.1 47,26.7 c 0,-4.9 -6.7,-8.9 -15,-8.9 -8.3,0 -15,4 -15,8.9 0,0.4 0.1,0.7 0.1,1.1"
             id="path5668" /></g><g
           id="g5670"><path
             style="fill:none;stroke:#231f20;stroke-width:1.39999998;stroke-linecap:round;stroke-linejoin:round;stroke-miterlimit:10"
             inkscape:connector-curvature="0"
             stroke-miterlimit="10"
             d="m 41.8,43.8 c 0.6,0.4 1.4,0.3 1.5,-0.6 0.1,-0.9 -0.4,-1.9 -1.4,-2.5 -0.6,-0.4 -1.4,-0.3 -1.5,0.6 0,0.8 0.5,1.9 1.4,2.5 z"
             id="path5672" /><path
             style="fill:none;stroke:#231f20;stroke-width:1.39999998;stroke-linecap:round;stroke-linejoin:round;stroke-miterlimit:10"
             inkscape:connector-curvature="0"
             stroke-miterlimit="10"
             d="m 40.8,40.6 -1.4,0.9 c -0.2,0.1 -0.4,0.3 -0.4,0.7 0,0.9 0.4,1.9 1.4,2.5 0.3,0.2 0.7,0.3 1,0.2 l 1.5,-1"
             id="path5674" /></g></g></g></g></g></svg>