<?xml version="1.0" encoding="UTF-8" standalone="no"?>
<!-- Generator: Adobe Illustrator 18.0.0, SVG Export Plug-In . SVG Version: 6.00 Build 0)  -->

<svg
   xmlns:dc="http://purl.org/dc/elements/1.1/"
   xmlns:cc="http://creativecommons.org/ns#"
   xmlns:rdf="http://www.w3.org/1999/02/22-rdf-syntax-ns#"
   xmlns:svg="http://www.w3.org/2000/svg"
   xmlns="http://www.w3.org/2000/svg"
   xmlns:xlink="http://www.w3.org/1999/xlink"
   xmlns:sodipodi="http://sodipodi.sourceforge.net/DTD/sodipodi-0.dtd"
   xmlns:inkscape="http://www.inkscape.org/namespaces/inkscape"
   version="1.1"
   x="0px"
   y="0px"
   viewBox="0 0 64 64"
   enable-background="new 0 0 64 64"
   xml:space="preserve"
   id="svg9448"
   inkscape:version="0.48.2 r9819"
   width="100%"
   height="100%"
   sodipodi:docname="OSE freecad 3d printer y-axis v1-5a-04.svg"><metadata
   id="metadata9636"><rdf:RDF><cc:Work
       rdf:about=""><dc:format>image/svg+xml</dc:format><dc:type
         rdf:resource="http://purl.org/dc/dcmitype/StillImage" /></cc:Work></rdf:RDF></metadata><defs
   id="defs9634"><linearGradient
     id="SVGID_1_"
     gradientUnits="userSpaceOnUse"
     x1="225.58971"
     y1="29.013599"
     x2="223.1308"
     y2="24.754601"
     gradientTransform="matrix(-1,0,0,1,238,0)"><stop
       offset="0"
       style="stop-color:#58595B"
       id="stop9464" /><stop
       offset="1"
       style="stop-color:#A6A8AB"
       id="stop9466" /></linearGradient><linearGradient
     id="SVGID_2_"
     gradientUnits="userSpaceOnUse"
     x1="220.69051"
     y1="31.8472"
     x2="218.323"
     y2="27.7467"
     gradientTransform="matrix(-1,0,0,1,238,0)"><stop
       offset="0"
       style="stop-color:#C79E42"
       id="stop9471" /><stop
       offset="1"
       style="stop-color:#FFEA73"
       id="stop9473" /></linearGradient><linearGradient
     id="SVGID_3_"
     gradientUnits="userSpaceOnUse"
     x1="215.8817"
     y1="22.913401"
     x2="213.42281"
     y2="18.6544"
     gradientTransform="matrix(-1,0,0,1,238,0)"><stop
       offset="0"
       style="stop-color:#C79E42"
       id="stop9482" /><stop
       offset="1"
       style="stop-color:#FFEA73"
       id="stop9484" /></linearGradient><linearGradient
     id="SVGID_4_"
     gradientUnits="userSpaceOnUse"
     x1="225.59"
     y1="17.089199"
     x2="223.131"
     y2="12.8302"
     gradientTransform="matrix(-1,0,0,1,238,0)"><stop
       offset="0"
       style="stop-color:#58595B"
       id="stop9489" /><stop
       offset="1"
       style="stop-color:#A6A8AB"
       id="stop9491" /></linearGradient><linearGradient
     id="SVGID_5_"
     gradientUnits="userSpaceOnUse"
     x1="215.8817"
     y1="34.835201"
     x2="213.42281"
     y2="30.5762"
     gradientTransform="matrix(-1,0,0,1,238,0)"><stop
       offset="0"
       style="stop-color:#C79E42"
       id="stop9502" /><stop
       offset="1"
       style="stop-color:#FFEA73"
       id="stop9504" /></linearGradient><linearGradient
     id="SVGID_6_"
     gradientUnits="userSpaceOnUse"
     x1="212.00999"
     y1="48.020199"
     x2="218.0486"
     y2="13.774"
     gradientTransform="matrix(-1,0,0,1,238,0)"><stop
       offset="0"
       style="stop-color:#C79E42"
       id="stop9519" /><stop
       offset="1"
       style="stop-color:#F2D556"
       id="stop9521" /></linearGradient><linearGradient
     id="SVGID_7_"
     gradientUnits="userSpaceOnUse"
     x1="199.4606"
     y1="33.378899"
     x2="197.00169"
     y2="29.1199"
     gradientTransform="matrix(-1,0,0,1,238,0)"><stop
       offset="0"
       style="stop-color:#58595B"
       id="stop9538" /><stop
       offset="1"
       style="stop-color:#A6A8AB"
       id="stop9540" /></linearGradient><linearGradient
     id="SVGID_8_"
     gradientUnits="userSpaceOnUse"
     x1="189.74471"
     y1="39.1898"
     x2="187.28571"
     y2="34.930801"
     gradientTransform="matrix(-1,0,0,1,238,0)"><stop
       offset="0"
       style="stop-color:#58595B"
       id="stop9547" /><stop
       offset="1"
       style="stop-color:#A6A8AB"
       id="stop9549" /></linearGradient><linearGradient
     id="SVGID_9_"
     gradientUnits="userSpaceOnUse"
     x1="199.4527"
     y1="45.290001"
     x2="196.9937"
     y2="41.030998"
     gradientTransform="matrix(-1,0,0,1,238,0)"><stop
       offset="0"
       style="stop-color:#58595B"
       id="stop9562" /><stop
       offset="1"
       style="stop-color:#A6A8AB"
       id="stop9564" /></linearGradient><linearGradient
     id="SVGID_10_"
     gradientUnits="userSpaceOnUse"
     x1="189.74471"
     y1="51.111599"
     x2="187.28571"
     y2="46.8526"
     gradientTransform="matrix(-1,0,0,1,238,0)"><stop
       offset="0"
       style="stop-color:#58595B"
       id="stop9573" /><stop
       offset="1"
       style="stop-color:#A6A8AB"
       id="stop9575" /></linearGradient><linearGradient
     inkscape:collect="always"
     xlink:href="#SVGID_1_"
     id="linearGradient10009"
     gradientUnits="userSpaceOnUse"
     gradientTransform="matrix(-1,0,0,1,238,0)"
     x1="225.58971"
     y1="29.013599"
     x2="223.1308"
     y2="24.754601" /><linearGradient
     inkscape:collect="always"
     xlink:href="#SVGID_2_"
     id="linearGradient10011"
     gradientUnits="userSpaceOnUse"
     gradientTransform="matrix(-1,0,0,1,238,0)"
     x1="220.69051"
     y1="31.8472"
     x2="218.323"
     y2="27.7467" /><linearGradient
     inkscape:collect="always"
     xlink:href="#SVGID_3_"
     id="linearGradient10013"
     gradientUnits="userSpaceOnUse"
     gradientTransform="matrix(-1,0,0,1,238,0)"
     x1="215.8817"
     y1="22.913401"
     x2="213.42281"
     y2="18.6544" /><linearGradient
     inkscape:collect="always"
     xlink:href="#SVGID_4_"
     id="linearGradient10015"
     gradientUnits="userSpaceOnUse"
     gradientTransform="matrix(-1,0,0,1,238,0)"
     x1="225.59"
     y1="17.089199"
     x2="223.131"
     y2="12.8302" /><linearGradient
     inkscape:collect="always"
     xlink:href="#SVGID_5_"
     id="linearGradient10017"
     gradientUnits="userSpaceOnUse"
     gradientTransform="matrix(-1,0,0,1,238,0)"
     x1="215.8817"
     y1="34.835201"
     x2="213.42281"
     y2="30.5762" /><linearGradient
     inkscape:collect="always"
     xlink:href="#SVGID_6_"
     id="linearGradient10019"
     gradientUnits="userSpaceOnUse"
     gradientTransform="matrix(-1,0,0,1,238,0)"
     x1="212.00999"
     y1="48.020199"
     x2="218.0486"
     y2="13.774" /><linearGradient
     inkscape:collect="always"
     xlink:href="#SVGID_7_"
     id="linearGradient10021"
     gradientUnits="userSpaceOnUse"
     gradientTransform="matrix(-1,0,0,1,238,0)"
     x1="199.4606"
     y1="33.378899"
     x2="197.00169"
     y2="29.1199" /><linearGradient
     inkscape:collect="always"
     xlink:href="#SVGID_8_"
     id="linearGradient10023"
     gradientUnits="userSpaceOnUse"
     gradientTransform="matrix(-1,0,0,1,238,0)"
     x1="189.74471"
     y1="39.1898"
     x2="187.28571"
     y2="34.930801" /><linearGradient
     inkscape:collect="always"
     xlink:href="#SVGID_9_"
     id="linearGradient10025"
     gradientUnits="userSpaceOnUse"
     gradientTransform="matrix(-1,0,0,1,238,0)"
     x1="199.4527"
     y1="45.290001"
     x2="196.9937"
     y2="41.030998" /><linearGradient
     inkscape:collect="always"
     xlink:href="#SVGID_10_"
     id="linearGradient10027"
     gradientUnits="userSpaceOnUse"
     gradientTransform="matrix(-1,0,0,1,238,0)"
     x1="189.74471"
     y1="51.111599"
     x2="187.28571"
     y2="46.8526" /></defs><sodipodi:namedview
   pagecolor="#ffffff"
   bordercolor="#666666"
   borderopacity="1"
   objecttolerance="10"
   gridtolerance="10"
   guidetolerance="10"
   inkscape:pageopacity="0"
   inkscape:pageshadow="2"
   inkscape:window-width="1536"
   inkscape:window-height="801"
   id="namedview9632"
   showgrid="false"
   inkscape:zoom="3.6875"
   inkscape:cx="0.81355932"
   inkscape:cy="32"
   inkscape:window-x="-8"
   inkscape:window-y="-8"
   inkscape:window-maximized="1"
   inkscape:current-layer="layer18" />


<g
   inkscape:groupmode="layer"
   id="layer17"
   inkscape:label="solids"
   style="display:inline"><g
     id="solids"><g
       id="frame_1_" /><g
       id="axis_1_"><line
         style="fill:none;stroke:#231f20;stroke-width:1.39999998;stroke-linecap:round;stroke-linejoin:round;stroke-miterlimit:10"
         stroke-miterlimit="10"
         x1="61.799999"
         y1="56"
         x2="32"
         y2="38.299999"
         id="line9453" /><polyline
         style="fill:none;stroke:#231f20;stroke-width:1.39999998;stroke-linecap:round;stroke-linejoin:round;stroke-miterlimit:10"
         stroke-miterlimit="10"
         points="    61.8,56 32,38.3 2.2,56   "
         id="polyline9455" /><line
         style="fill:none;stroke:#231f20;stroke-width:1.39999998;stroke-linecap:round;stroke-linejoin:round;stroke-miterlimit:10"
         stroke-miterlimit="10"
         x1="32"
         y1="38.299999"
         x2="32"
         y2="3.8"
         id="line9457" /><g
         id="g9459"><path
           style="fill:#231f20"
           inkscape:connector-curvature="0"
           d="m 7.1,25 c 0,0.9 0.7,1.6 1.7,1 1,-0.6 1.7,-1.7 1.7,-3 0,-0.9 -0.7,-1.6 -1.7,-1 -1,0.6 -1.7,1.6 -1.7,3 z"
           id="path9461" /><linearGradient
           id="linearGradient9688"
           gradientUnits="userSpaceOnUse"
           x1="225.58971"
           y1="29.013599"
           x2="223.1308"
           y2="24.754601"
           gradientTransform="matrix(-1,0,0,1,238,0)"><stop
             offset="0"
             style="stop-color:#58595B"
             id="stop9690" /><stop
             offset="1"
             style="stop-color:#A6A8AB"
             id="stop9692" /></linearGradient><path
           style="fill:url(#linearGradient10009)"
           inkscape:connector-curvature="0"
           d="m 8.8,21.9 c 0.5,-0.3 0.9,-0.2 1.2,0 l 0,0 9.7,5.8 0,0 c 0.3,0.2 0.4,0.6 0.4,1 0,1.3 -0.7,2.5 -1.7,3 -0.5,0.3 -0.9,0.2 -1.2,0 L 7.6,26 c 0,0 -0.1,0 -0.1,-0.1 l 0,0 0,0 c -0.3,-0.2 -0.4,-0.6 -0.4,-1 0,-1.3 0.8,-2.4 1.7,-3 z"
           id="path9468" /><linearGradient
           id="linearGradient9695"
           gradientUnits="userSpaceOnUse"
           x1="220.69051"
           y1="31.8472"
           x2="218.323"
           y2="27.7467"
           gradientTransform="matrix(-1,0,0,1,238,0)"><stop
             offset="0"
             style="stop-color:#C79E42"
             id="stop9697" /><stop
             offset="1"
             style="stop-color:#FFEA73"
             id="stop9699" /></linearGradient><path
           style="fill:url(#linearGradient10011)"
           inkscape:connector-curvature="0"
           d="m 16.8,30.8 c 0,0.9 0.7,1.6 1.7,1 0.9,-0.5 1.7,-1.7 1.7,-3 0,-0.9 -0.7,-1.6 -1.7,-1 -0.9,0.5 -1.7,1.7 -1.7,3 z"
           id="path9475" /></g><g
         id="g9477"><path
           style="fill:#231f20"
           inkscape:connector-curvature="0"
           d="m 16.8,18.9 c 0,0.9 0.7,1.6 1.7,1 0.9,-0.5 1.7,-1.7 1.7,-3 0,-0.9 -0.7,-1.6 -1.7,-1 -0.9,0.5 -1.7,1.6 -1.7,3 z"
           id="path9479" /><linearGradient
           id="linearGradient9704"
           gradientUnits="userSpaceOnUse"
           x1="215.8817"
           y1="22.913401"
           x2="213.42281"
           y2="18.6544"
           gradientTransform="matrix(-1,0,0,1,238,0)"><stop
             offset="0"
             style="stop-color:#C79E42"
             id="stop9706" /><stop
             offset="1"
             style="stop-color:#FFEA73"
             id="stop9708" /></linearGradient><path
           style="fill:url(#linearGradient10013)"
           inkscape:connector-curvature="0"
           d="m 18.5,15.8 c 0.5,-0.3 0.9,-0.2 1.2,0 l 0,0 9.7,5.8 0,0 c 0.3,0.2 0.4,0.6 0.4,1 0,1.3 -0.7,2.5 -1.7,3 -0.5,0.3 -0.9,0.2 -1.2,0 L 17.4,20 c 0,0 -0.1,0 -0.1,-0.1 l 0,0 0,0 c -0.3,-0.2 -0.4,-0.6 -0.4,-1 -0.1,-1.4 0.7,-2.5 1.6,-3.1 z"
           id="path9486" /><linearGradient
           id="linearGradient9711"
           gradientUnits="userSpaceOnUse"
           x1="225.59"
           y1="17.089199"
           x2="223.131"
           y2="12.8302"
           gradientTransform="matrix(-1,0,0,1,238,0)"><stop
             offset="0"
             style="stop-color:#58595B"
             id="stop9713" /><stop
             offset="1"
             style="stop-color:#A6A8AB"
             id="stop9715" /></linearGradient><path
           style="fill:url(#linearGradient10015)"
           inkscape:connector-curvature="0"
           d="M 8.8,10 C 9.3,9.7 9.7,9.8 10,10 l 0,0 9.7,5.8 0,0 c 0.3,0.2 0.4,0.6 0.4,1 0,1.3 -0.7,2.5 -1.7,3 -0.5,0.3 -0.9,0.2 -1.2,0 L 7.6,14.1 c 0,0 -0.1,0 -0.1,-0.1 l 0,0 0,0 C 7.2,13.8 7.1,13.4 7.1,13 c 0,-1.3 0.8,-2.4 1.7,-3 z"
           id="path9493" /><path
           style="fill:#bbbdbf"
           inkscape:connector-curvature="0"
           d="m 26.6,24.7 c 0,0.9 0.7,1.6 1.7,1 0.9,-0.5 1.7,-1.7 1.7,-3 0,-0.9 -0.7,-1.6 -1.7,-1 -1,0.6 -1.7,1.7 -1.7,3 z"
           id="path9495" /></g><g
         id="g9497"><path
           style="fill:#a6a8ab"
           inkscape:connector-curvature="0"
           d="m 16.8,30.8 c 0,0.9 0.7,1.6 1.7,1 0.9,-0.5 1.7,-1.7 1.7,-3 0,-0.9 -0.7,-1.6 -1.7,-1 -0.9,0.5 -1.7,1.7 -1.7,3 z"
           id="path9499" /><linearGradient
           id="linearGradient9721"
           gradientUnits="userSpaceOnUse"
           x1="215.8817"
           y1="34.835201"
           x2="213.42281"
           y2="30.5762"
           gradientTransform="matrix(-1,0,0,1,238,0)"><stop
             offset="0"
             style="stop-color:#C79E42"
             id="stop9723" /><stop
             offset="1"
             style="stop-color:#FFEA73"
             id="stop9725" /></linearGradient><path
           style="fill:url(#linearGradient10017)"
           inkscape:connector-curvature="0"
           d="m 18.5,27.8 c 0.5,-0.3 0.9,-0.2 1.2,0 l 0,0 9.7,5.8 0,0 c 0.3,0.2 0.4,0.6 0.4,1 0,1.3 -0.7,2.5 -1.7,3 -0.5,0.3 -0.9,0.2 -1.2,0 l -9.6,-5.7 c 0,0 -0.1,0 -0.1,-0.1 l 0,0 0,0 c -0.3,-0.2 -0.4,-0.6 -0.4,-1 0,-1.3 0.8,-2.5 1.7,-3 z"
           id="path9506" /><path
           style="fill:#bbbdbf"
           inkscape:connector-curvature="0"
           d="m 26.6,36.6 c 0,0.9 0.7,1.6 1.7,1 0.9,-0.5 1.7,-1.7 1.7,-3 0,-0.9 -0.7,-1.6 -1.7,-1 -1,0.5 -1.7,1.7 -1.7,3 z"
           id="path9508" /></g><path
         style="fill:#231f20"
         inkscape:connector-curvature="0"
         d="m 16.3,19.2 c 0,1.2 1,2.1 2.2,1.4 1.2,-0.7 2.2,-2.3 2.2,-4.1 0,-1.2 -1,-2.1 -2.2,-1.4 -1.2,0.7 -2.2,2.3 -2.2,4.1 z"
         id="path9510" /><path
         style="fill:#231f20"
         inkscape:connector-curvature="0"
         d="m 16.3,31.1 c 0,1.2 1,2.1 2.2,1.4 1.2,-0.7 2.2,-2.3 2.2,-4.1 0,-1.2 -1,-2.1 -2.2,-1.4 -1.2,0.8 -2.2,2.4 -2.2,4.1 z"
         id="path9512" /><polygon
         style="fill:#f2d556"
         points="38.7,20.7 38.7,43.1 31.2,47.1 31.2,25.2 "
         id="polygon9514" /><polygon
         style="fill:none;stroke:#ffea73;stroke-miterlimit:10"
         stroke-miterlimit="10"
         points="38.2,22.9 32.6,26.3 32.6,45.6 38.2,42.6 "
         id="polygon9516" /><linearGradient
         id="linearGradient9733"
         gradientUnits="userSpaceOnUse"
         x1="212.00999"
         y1="48.020199"
         x2="218.0486"
         y2="13.774"
         gradientTransform="matrix(-1,0,0,1,238,0)"><stop
           offset="0"
           style="stop-color:#C79E42"
           id="stop9735" /><stop
           offset="1"
           style="stop-color:#F2D556"
           id="stop9737" /></linearGradient><polygon
         style="fill:url(#linearGradient10019)"
         points="14.5,14.7 31.2,25.2 31.2,47.1 14.8,36.6 "
         id="polygon9523" /><polygon
         style="fill:none;stroke:#ffea73;stroke-width:1.39999998;stroke-miterlimit:10"
         stroke-miterlimit="10"
         points="15.6,17.2 15.6,36.3 29.7,45.3 29.7,26.2 "
         id="polygon9525" /><polygon
         style="fill:#ffea73"
         points="22.2,10.3 38.7,20.7 31.2,25.2 14.8,14.7 "
         id="polygon9527" /><path
         style="fill:#231f20"
         inkscape:connector-curvature="0"
         d="m 32.7,29.7 c 0,1.2 1,2.1 2.2,1.4 1.2,-0.7 2.2,-2.3 2.2,-4.1 0,-1.2 -1,-2.1 -2.2,-1.4 -1.2,0.7 -2.2,2.3 -2.2,4.1 z"
         id="path9529" /><path
         style="fill:#231f20"
         inkscape:connector-curvature="0"
         d="m 32.7,41.6 c 0,1.2 1,2.1 2.2,1.4 1.2,-0.7 2.2,-2.3 2.2,-4.1 0,-1.2 -1,-2.1 -2.2,-1.4 -1.2,0.7 -2.2,2.3 -2.2,4.1 z"
         id="path9531" /><g
         id="g9533"><path
           style="fill:#231f20"
           inkscape:connector-curvature="0"
           d="m 43,35.1 c 0,0.9 0.7,1.6 1.7,1 0.9,-0.5 1.7,-1.7 1.7,-3 0,-0.9 -0.7,-1.6 -1.7,-1 -1,0.6 -1.7,1.7 -1.7,3 z"
           id="path9535" /><linearGradient
           id="linearGradient9746"
           gradientUnits="userSpaceOnUse"
           x1="199.4606"
           y1="33.378899"
           x2="197.00169"
           y2="29.1199"
           gradientTransform="matrix(-1,0,0,1,238,0)"><stop
             offset="0"
             style="stop-color:#58595B"
             id="stop9748" /><stop
             offset="1"
             style="stop-color:#A6A8AB"
             id="stop9750" /></linearGradient><path
           style="fill:url(#linearGradient10021)"
           inkscape:connector-curvature="0"
           d="m 34.9,26.3 c 0.5,-0.3 0.9,-0.2 1.2,0 l 0,0 9.7,5.8 0,0 c 0.3,0.2 0.4,0.6 0.4,1 0,1.3 -0.7,2.5 -1.7,3 -0.5,0.3 -0.9,0.2 -1.2,0 l -9.6,-5.7 c 0,0 -0.1,0 -0.1,-0.1 l 0,0 0,0 c -0.3,-0.2 -0.4,-0.6 -0.4,-1 0.1,-1.3 0.8,-2.4 1.7,-3 z"
           id="path9542" /><path
           style="fill:#bbbdbf"
           inkscape:connector-curvature="0"
           d="m 43,35.2 c 0,0.9 0.7,1.6 1.7,1 0.9,-0.5 1.7,-1.7 1.7,-3 0,-0.9 -0.7,-1.6 -1.7,-1 -1,0.5 -1.7,1.6 -1.7,3 z"
           id="path9544" /><linearGradient
           id="linearGradient9754"
           gradientUnits="userSpaceOnUse"
           x1="189.74471"
           y1="39.1898"
           x2="187.28571"
           y2="34.930801"
           gradientTransform="matrix(-1,0,0,1,238,0)"><stop
             offset="0"
             style="stop-color:#58595B"
             id="stop9756" /><stop
             offset="1"
             style="stop-color:#A6A8AB"
             id="stop9758" /></linearGradient><path
           style="fill:url(#linearGradient10023)"
           inkscape:connector-curvature="0"
           d="m 44.6,32.1 c 0.5,-0.3 0.9,-0.2 1.2,0 l 0,0 9.7,5.8 0,0 c 0.3,0.2 0.4,0.6 0.4,1 0,1.3 -0.7,2.5 -1.7,3 -0.5,0.3 -0.9,0.2 -1.2,0 l -9.6,-5.7 c 0,0 -0.1,0 -0.1,-0.1 l 0,0 0,0 c -0.3,-0.2 -0.4,-0.6 -0.4,-1 0.1,-1.3 0.8,-2.4 1.7,-3 z"
           id="path9551" /><path
           style="fill:#a6a8ab"
           inkscape:connector-curvature="0"
           d="m 52.7,41 c 0,0.9 0.7,1.6 1.7,1 0.9,-0.5 1.7,-1.7 1.7,-3 0,-0.9 -0.7,-1.6 -1.7,-1 -1,0.5 -1.7,1.6 -1.7,3 z"
           id="path9553" /></g><g
         id="g9555"><g
           id="g9557"><path
             style="fill:#a6a8ab"
             inkscape:connector-curvature="0"
             d="m 33.3,41.2 c 0,0.9 0.7,1.6 1.7,1 0.9,-0.5 1.7,-1.7 1.7,-3 0,-0.9 -0.7,-1.6 -1.7,-1 -1,0.6 -1.7,1.7 -1.7,3 z"
             id="path9559" /><linearGradient
             id="linearGradient9765"
             gradientUnits="userSpaceOnUse"
             x1="199.4527"
             y1="45.290001"
             x2="196.9937"
             y2="41.030998"
             gradientTransform="matrix(-1,0,0,1,238,0)"><stop
               offset="0"
               style="stop-color:#58595B"
               id="stop9767" /><stop
               offset="1"
               style="stop-color:#A6A8AB"
               id="stop9769" /></linearGradient><path
             style="fill:url(#linearGradient10025)"
             inkscape:connector-curvature="0"
             d="m 34.9,38.2 c 0.5,-0.3 0.9,-0.2 1.2,0 l 0,0 9.7,5.8 0,0 c 0.3,0.2 0.4,0.6 0.4,1 0,1.3 -0.7,2.5 -1.7,3 -0.5,0.3 -0.9,0.2 -1.2,0 l -9.6,-5.7 c 0,0 -0.1,0 -0.1,-0.1 l 0,0 0,0 c -0.3,-0.2 -0.4,-0.6 -0.4,-1 0.1,-1.3 0.8,-2.4 1.7,-3 z"
             id="path9566" /><path
             style="fill:#bbbdbf"
             inkscape:connector-curvature="0"
             d="m 43,47.1 c 0,0.9 0.7,1.6 1.7,1 0.9,-0.5 1.7,-1.7 1.7,-3 0,-0.9 -0.7,-1.6 -1.7,-1 -1,0.5 -1.7,1.6 -1.7,3 z"
             id="path9568" /></g><path
           style="fill:#231f20"
           inkscape:connector-curvature="0"
           d="m 43,47.1 c 0,0.9 0.7,1.6 1.7,1 0.9,-0.5 1.7,-1.7 1.7,-3 0,-0.9 -0.7,-1.6 -1.7,-1 -1,0.5 -1.7,1.6 -1.7,3 z"
           id="path9570" /><linearGradient
           id="linearGradient9774"
           gradientUnits="userSpaceOnUse"
           x1="189.74471"
           y1="51.111599"
           x2="187.28571"
           y2="46.8526"
           gradientTransform="matrix(-1,0,0,1,238,0)"><stop
             offset="0"
             style="stop-color:#58595B"
             id="stop9776" /><stop
             offset="1"
             style="stop-color:#A6A8AB"
             id="stop9778" /></linearGradient><path
           style="fill:url(#linearGradient10027)"
           inkscape:connector-curvature="0"
           d="m 44.6,44 c 0.5,-0.3 0.9,-0.2 1.2,0 l 0,0 9.7,5.8 0,0 c 0.3,0.2 0.4,0.6 0.4,1 0,1.3 -0.7,2.5 -1.7,3 -0.5,0.3 -0.9,0.2 -1.2,0 l -9.6,-5.7 c 0,0 -0.1,0 -0.1,-0.1 l 0,0 0,0 C 43,47.8 42.9,47.4 42.9,47 43,45.7 43.7,44.6 44.6,44 z"
           id="path9577" /><path
           style="fill:#a6a8ab"
           inkscape:connector-curvature="0"
           d="m 52.7,52.9 c 0,0.9 0.7,1.6 1.7,1 0.9,-0.5 1.7,-1.7 1.7,-3 0,-0.9 -0.7,-1.6 -1.7,-1 -1,0.6 -1.7,1.7 -1.7,3 z"
           id="path9579" /></g></g><g
       id="controller_1_" /><g
       id="power_supply_1_" /><g
       id="wiring_1_" /><g
       id="spool_holder_1_" /><g
       id="extruder_1_" /><g
       id="heat_bed_1_" /></g></g><g
   inkscape:groupmode="layer"
   id="layer18"
   inkscape:label="outlines"><g
     id="outlines"><g
       id="frame" /><g
       id="heat_bed" /><g
       id="axis"><g
         id="g9591"><path
           style="fill:#231f20"
           inkscape:connector-curvature="0"
           d="m 9.4,9.8 c 0.2,0 0.4,0.1 0.6,0.2 l 0,0 6.3,3.8 5.9,-3.6 16.4,10.5 v 7.1 l 16.9,10.1 0,0 0,0 c 0.1,0.1 0.2,0.3 0.3,0.4 0,0 0,0 0,0 0.1,0.2 0.1,0.4 0.1,0.6 l 0,0 c 0,0.7 -0.2,1.4 -0.6,2 -0.3,0.4 -0.6,0.8 -1,1 -0.1,0.1 -0.2,0.1 -0.3,0.2 0,0 0,0 -0.1,0 -0.1,0 -0.2,0 -0.3,0 0,0 0,0 0,0 0,0 0,0 0,0 -0.2,0 -0.4,-0.1 -0.5,-0.2 L 38.6,33.2 v 6.4 l 16.9,10.1 0,0 0,0 c 0.1,0.1 0.2,0.3 0.3,0.4 0,0 0,0 0,0 0.1,0.2 0.1,0.4 0.1,0.6 v 0 0 c 0,0.9 -0.4,1.7 -0.9,2.3 0,0.1 -0.1,0.1 -0.1,0.2 -0.2,0.2 -0.4,0.4 -0.6,0.5 -0.1,0.3 -0.2,0.3 -0.3,0.4 0,0 0,0 -0.1,0 -0.1,0 -0.2,0 -0.3,0 0,0 0,0 0,0 0,0 0,0 0,0 -0.2,0 -0.4,-0.1 -0.5,-0.2 l -16.4,-9.8 -5.6,3 -16.3,-10.4 v -6.3 l -7,-4.2 c -0.1,0 -0.1,-0.1 -0.2,-0.1 l 0,0 0,0 C 7.3,25.9 7.2,25.5 7.2,25.1 l 0,0 0,0 c 0,-1.3 0.7,-2.5 1.7,-3 0,-0.2 0.1,-0.2 0.1,-0.3 0,0 0,0 0.1,0 0.1,0 0.1,0 0.2,0 0.1,0 0.1,0 0.2,0 0,0 0,0 0,0 0,0 0.1,0 0.1,0 0.1,0 0.1,0 0.2,0 0,0 0,0 0,0 0.1,0 0.1,0.1 0.2,0.1 0,0 0,0 0,0 l 0,0 4.6,2.8 0,-6.4 -6.9,-4.1 c 0,0 -0.1,0 -0.1,-0.1 l 0,0 0,0 c -0.3,-0.2 -0.4,-0.6 -0.4,-1 0,-1.3 0.7,-2.5 1.7,-3 C 9,9.9 9.2,9.8 9.4,9.8 m 0,-1.4 C 9,8.4 8.5,8.6 8.1,8.8 6.7,9.7 5.7,11.3 5.7,13 c 0,0.8 0.3,1.5 0.8,2 0.1,0.1 0.2,0.1 0.3,0.2 0.1,0 0.1,0.1 0.2,0.1 l 6.2,3.7 0,3.2 -2.5,-1.5 c 0,0 -0.1,-0.1 -0.1,-0.1 -0.1,0 -0.1,-0.1 -0.2,-0.1 -0.1,0 -0.1,-0.1 -0.2,-0.1 -0.2,-0.1 -0.3,-0.1 -0.5,-0.1 -0.1,0 -0.2,0 -0.3,0 0,0 0,0 0,0 -0.2,0 -0.3,0 -0.4,0 -0.1,0 -0.2,0 -0.4,0.1 -0.1,0 -0.1,0 -0.2,0.1 -0.1,0 -0.3,0.1 -0.5,0.2 -1.4,0.8 -2.3,2.5 -2.3,4.2 0,0.8 0.3,1.5 0.9,2 0.1,0.1 0.1,0.1 0.2,0.2 0.1,0.1 0.2,0.1 0.3,0.2 l 6.3,3.8 v 5.6 c 0,0.5 0.2,0.9 0.6,1.2 l 16.4,10.5 c 0.2,0.1 0.5,0.2 0.8,0.2 0.2,0 0.5,-0.1 0.7,-0.2 l 4.9,-2.6 15.6,9.4 c 0.3,0.2 0.7,0.4 1.1,0.4 0,0 0.1,0 0.1,0 0,0 0,0 0.1,0 0.2,0 0.3,0 0.5,-0.1 0.1,0 0.1,0 0.2,0 0.2,-0.1 0.5,-0.2 0.7,-0.3 0.3,-0.2 0.6,-0.5 0.9,-0.8 0.1,-0.1 0.2,-0.2 0.2,-0.3 0.8,-0.9 1.2,-2 1.2,-3.2 0,-0.4 -0.1,-0.7 -0.2,-1.1 0,0 0,0 0,0 C 57,49.5 56.8,49.2 56.6,49 56.5,48.9 56.4,48.8 56.2,48.7 L 40,39 v -3.2 l 12.3,7.4 c 0.3,0.2 0.7,0.4 1.1,0.4 0,0 0.1,0 0.1,0 0,0 0,0 0,0 0.2,0 0.4,0 0.5,-0.1 0.1,0 0.1,0 0.2,0 0.2,-0.1 0.5,-0.2 0.7,-0.3 0.6,-0.3 1.1,-0.8 1.5,-1.5 0.6,-0.8 0.8,-1.8 0.8,-2.7 0,0 0,0 0,0 0,-0.4 -0.1,-0.7 -0.2,-1.1 0,0 0,0 0,-0.1 l 0,0 C 56.9,37.5 56.7,37.3 56.5,37 56.4,36.9 56.3,36.8 56.1,36.7 L 40,27 v -6.3 c 0,-0.5 -0.2,-0.9 -0.6,-1.2 L 23,9.1 C 22.8,9 22.5,8.9 22.2,8.9 22,8.9 21.7,9 21.5,9.1 l -5.2,3.1 -5.6,-3.4 c 0,0 -0.1,0 -0.1,-0.1 C 10.3,8.5 9.8,8.4 9.4,8.4 l 0,0 z"
           id="path9593" /></g><g
         id="g9595"><line
           style="fill:none;stroke:#231f20;stroke-width:1.39999998;stroke-linecap:round;stroke-linejoin:round;stroke-miterlimit:10"
           stroke-miterlimit="10"
           x1="31.200001"
           y1="25.4"
           x2="31.200001"
           y2="47.299999"
           id="line9597" /><polyline
           style="fill:none;stroke:#231f20;stroke-width:1.39999998;stroke-linecap:round;stroke-linejoin:round;stroke-miterlimit:10"
           stroke-miterlimit="10"
           points="     38.7,20.9 31.2,25.4 14.8,15    "
           id="polyline9599" /></g><polyline
         style="fill:none;stroke:#231f20;stroke-width:1.39999998;stroke-linecap:round;stroke-linejoin:round;stroke-miterlimit:10"
         stroke-miterlimit="10"
         points="    14.1,36.7 13.9,14.4 21.4,10   "
         id="polyline9601" /><g
         id="g9603"><g
           id="g9605"><path
             style="fill:#231f20"
             inkscape:connector-curvature="0"
             d="m 35.6,26.1 c 0,0 0,0 0,0 0,0 0,0 0,0 0.2,0 0.2,0 0.3,0.1 0,0 0,0 0,0 0.1,0 0.1,0.1 0.2,0.1 0,0 0,0 0,0 l 0,0 19.4,11.6 0,0 0,0 c 0.1,0.1 0.2,0.3 0.3,0.4 0,0 0,0 0,0 0.1,0.2 0.1,0.4 0.1,0.6 v 0 0 0 c 0,0.7 -0.2,1.3 -0.5,1.8 -0.1,0.1 -0.2,0.3 -0.2,0.4 -0.1,0.1 -0.2,0.2 -0.3,0.3 -0.2,0.2 -0.4,0.4 -0.6,0.5 -0.1,0.1 -0.2,0.1 -0.3,0.2 0,0 0,0 -0.1,0 -0.1,0 -0.2,0 -0.3,0 0,0 0,0 0,0 0,0 0,0 0,0 -0.2,0 -0.4,-0.1 -0.5,-0.2 L 33.9,30.5 c -0.1,0 -0.1,-0.1 -0.2,-0.1 l 0,0 0,0 c -0.3,-0.2 -0.4,-0.6 -0.4,-1 l 0,0 0,0 c 0,-1.3 0.7,-2.5 1.7,-3 0.1,-0.1 0.2,-0.1 0.3,-0.1 0,0 0.1,0 0.1,0 0.1,0 0.1,0 0.2,0 -0.1,-0.2 -0.1,-0.2 0,-0.2 m 0,-1.4 c -0.1,0 -0.2,0 -0.4,0 -0.1,0 -0.2,0 -0.4,0.1 -0.1,0 -0.1,0 -0.2,0.1 -0.1,0 -0.3,0.1 -0.5,0.2 -1.4,0.8 -2.3,2.5 -2.3,4.2 0,0.8 0.3,1.5 0.9,2 0.1,0.1 0.1,0.1 0.2,0.2 0.1,0.1 0.2,0.1 0.3,0.2 l 19.2,11.5 c 0.3,0.2 0.7,0.4 1.1,0.4 0,0 0.1,0 0.1,0 0,0 0,0 0,0 0.2,0 0.4,0 0.5,-0.1 0.1,0 0.1,0 0.2,0 0.2,-0.1 0.5,-0.2 0.7,-0.3 0.3,-0.2 0.6,-0.5 0.9,-0.8 0.1,-0.1 0.3,-0.3 0.4,-0.5 0.1,-0.2 0.2,-0.3 0.3,-0.5 0.4,-0.8 0.7,-1.6 0.7,-2.5 0,-0.4 -0.1,-0.7 -0.2,-1.1 0,0 0,0 0,-0.1 C 57,37.4 56.8,37.2 56.6,36.9 56.5,36.8 56.4,36.7 56.2,36.6 L 36.9,25.1 c 0,0 -0.1,-0.1 -0.1,-0.1 -0.1,0 -0.1,-0.1 -0.2,-0.1 -0.1,0 -0.1,-0.1 -0.2,-0.1 -0.2,-0.1 -0.4,-0.1 -0.5,-0.1 -0.1,0 -0.2,0 -0.3,0 0,0 0,0 0,0 l 0,0 z"
             id="path9607" /></g><g
           id="g9609"><path
             style="fill:#231f20"
             inkscape:connector-curvature="0"
             d="m 35.6,38 c 0,0 0,0 0,0 0,0 0,0 0,0 0.2,0 0.2,0 0.3,0.1 0,0 0,0 0,0 0.1,0 0.1,0.1 0.2,0.1 0,0 0,0 0,0 l 0,0 19.4,11.6 0,0 0,0 c 0.1,0.1 0.2,0.3 0.3,0.4 0,0 0,0 0,0 0.1,0.2 0.1,0.4 0.1,0.6 v 0 0 c 0,1 -0.4,1.8 -1,2.4 0,0 0,0 0,0.1 -0.2,0.2 -0.4,0.4 -0.6,0.5 -0.1,0.2 -0.2,0.2 -0.3,0.3 0,0 0,0 -0.1,0 -0.1,0 -0.2,0 -0.3,0 0,0 0,0 0,0 0,0 0,0 0,0 -0.2,0 -0.4,-0.1 -0.5,-0.2 L 33.9,42.4 c -0.1,0 -0.1,-0.1 -0.2,-0.1 l 0,0 0,0 c -0.3,-0.2 -0.4,-0.6 -0.4,-1 l 0,0 0,0 c 0,-1.3 0.7,-2.5 1.7,-3 0.1,-0.1 0.2,-0.1 0.3,-0.1 0,0 0,0 0.1,0 0.1,0 0.1,0 0.2,0 C 35.5,38 35.5,38 35.6,38 m 0,-1.4 c -0.1,0 -0.2,0 -0.4,0 -0.1,0 -0.2,0 -0.4,0.1 -0.1,0 -0.1,0 -0.2,0.1 -0.1,0 -0.3,0.1 -0.5,0.2 -1.4,0.8 -2.3,2.5 -2.3,4.2 0,0.8 0.3,1.5 0.9,2 0.1,0.1 0.1,0.1 0.2,0.2 0.1,0.1 0.2,0.1 0.3,0.2 l 19.2,11.5 c 0.3,0.2 0.7,0.4 1.1,0.4 0,0 0.1,0 0.1,0 0,0 0,0 0,0 0.2,0 0.4,0 0.5,-0.1 0.1,0 0.1,0 0.2,0 0.2,-0.1 0.5,-0.2 0.7,-0.3 0.3,-0.2 0.6,-0.5 0.9,-0.8 0,0 0.1,-0.1 0.1,-0.1 0.8,-0.9 1.3,-2.1 1.3,-3.4 0,-0.4 -0.1,-0.8 -0.2,-1.1 0,0 0,0 0,0 v 0 C 57,49.4 56.8,49.2 56.6,48.9 56.5,48.8 56.4,48.7 56.2,48.6 L 36.9,37 c 0,0 -0.1,-0.1 -0.1,-0.1 -0.1,0 -0.1,-0.1 -0.2,-0.1 -0.1,0 -0.1,-0.1 -0.2,-0.1 -0.2,-0.1 -0.3,-0.1 -0.5,-0.1 -0.1,0 -0.2,0 -0.3,0 0,0 0,0 0,0 l 0,0 z"
             id="path9611" /></g></g><g
         id="g9613"><path
           style="fill:#231f20"
           inkscape:connector-curvature="0"
           d="m 55,37.8 c 0.6,0 1,0.5 1,1.2 0,1.3 -0.7,2.5 -1.7,3 -0.2,0.1 -0.4,0.2 -0.6,0.2 -0.6,0 -1,-0.5 -1,-1.2 0,-1.3 0.7,-2.5 1.7,-3 0.2,-0.2 0.4,-0.2 0.6,-0.2 m 0,-1.4 c -0.5,0 -0.9,0.1 -1.4,0.4 -1.4,0.8 -2.3,2.5 -2.3,4.2 0,1.5 1.1,2.6 2.4,2.6 0.5,0 0.9,-0.1 1.4,-0.4 1.4,-0.8 2.3,-2.5 2.3,-4.2 0,-1.5 -1.1,-2.6 -2.4,-2.6 l 0,0 z"
           id="path9615" /></g><g
         id="g9617"><path
           style="fill:#231f20"
           inkscape:connector-curvature="0"
           d="m 55,49.7 c 0.6,0 1,0.5 1,1.2 0,1.3 -0.7,2.5 -1.7,3 -0.2,0.1 -0.4,0.2 -0.6,0.2 -0.6,0 -1,-0.5 -1,-1.2 0,-1.3 0.7,-2.5 1.7,-3 0.2,-0.2 0.4,-0.2 0.6,-0.2 m 0,-1.4 c -0.5,0 -0.9,0.1 -1.4,0.4 -1.4,0.8 -2.3,2.5 -2.3,4.2 0,1.5 1.1,2.6 2.4,2.6 0.5,0 0.9,-0.1 1.4,-0.4 1.4,-0.8 2.3,-2.5 2.3,-4.2 0,-1.5 -1.1,-2.6 -2.4,-2.6 l 0,0 z"
           id="path9619" /></g><g
         id="g9621"><g
           id="g9623"><path
             style="fill:#231f20"
             inkscape:connector-curvature="0"
             d="m 21.5,28 c 0.2,0 0.5,0.1 0.7,0.2 1.1,0.6 1.9,2 1.9,3.5 0,0.8 -0.5,1.4 -1.2,1.4 -0.2,0 -0.5,-0.1 -0.7,-0.2 -1.1,-0.6 -1.9,-2 -1.9,-3.5 0.1,-0.7 0.5,-1.4 1.2,-1.4 m 0,-1.4 c 0,0 0,0 0,0 -1.4,0 -2.6,1.2 -2.6,2.8 0,1.9 1,3.8 2.6,4.7 0.5,0.3 1,0.4 1.5,0.4 1.4,0 2.6,-1.2 2.6,-2.8 0,-1.9 -1,-3.8 -2.6,-4.7 -0.5,-0.2 -1,-0.4 -1.5,-0.4 l 0,0 z"
             id="path9625" /></g></g></g><g
       id="controller" /><g
       id="spool_holder" /><g
       id="wiring" /><g
       id="power_supply" /><g
       id="extruder" /></g></g></svg>