<?xml version="1.0" encoding="UTF-8" standalone="no"?>
<!-- Generator: Adobe Illustrator 18.0.0, SVG Export Plug-In . SVG Version: 6.00 Build 0)  -->

<svg
   xmlns:dc="http://purl.org/dc/elements/1.1/"
   xmlns:cc="http://creativecommons.org/ns#"
   xmlns:rdf="http://www.w3.org/1999/02/22-rdf-syntax-ns#"
   xmlns:svg="http://www.w3.org/2000/svg"
   xmlns="http://www.w3.org/2000/svg"
   xmlns:xlink="http://www.w3.org/1999/xlink"
   xmlns:sodipodi="http://sodipodi.sourceforge.net/DTD/sodipodi-0.dtd"
   xmlns:inkscape="http://www.inkscape.org/namespaces/inkscape"
   version="1.1"
   x="0px"
   y="0px"
   viewBox="0 0 64 64"
   enable-background="new 0 0 64 64"
   xml:space="preserve"
   id="svg10315"
   inkscape:version="0.48.2 r9819"
   width="100%"
   height="100%"
   sodipodi:docname="OSE freecad 3d printer z-axis v1-5a-08.svg"><metadata
   id="metadata10503"><rdf:RDF><cc:Work
       rdf:about=""><dc:format>image/svg+xml</dc:format><dc:type
         rdf:resource="http://purl.org/dc/dcmitype/StillImage" /></cc:Work></rdf:RDF></metadata><defs
   id="defs10501"><linearGradient
     id="SVGID_1_"
     gradientUnits="userSpaceOnUse"
     x1="-107.437"
     y1="30.515699"
     x2="-109.8959"
     y2="26.256701"
     gradientTransform="matrix(0.515,0.8572,0.8572,-0.515,68.5385,154.8825)"><stop
       offset="0"
       style="stop-color:#58595B"
       id="stop10331" /><stop
       offset="1"
       style="stop-color:#A6A8AB"
       id="stop10333" /></linearGradient><linearGradient
     id="SVGID_2_"
     gradientUnits="userSpaceOnUse"
     x1="-112.3362"
     y1="33.3493"
     x2="-114.7036"
     y2="29.248899"
     gradientTransform="matrix(0.515,0.8572,0.8572,-0.515,68.5385,154.8825)"><stop
       offset="0"
       style="stop-color:#C79E42"
       id="stop10338" /><stop
       offset="1"
       style="stop-color:#FFEA73"
       id="stop10340" /></linearGradient><linearGradient
     id="SVGID_3_"
     gradientUnits="userSpaceOnUse"
     x1="-117.145"
     y1="24.415501"
     x2="-119.6039"
     y2="20.1565"
     gradientTransform="matrix(0.515,0.8572,0.8572,-0.515,68.5385,154.8825)"><stop
       offset="0"
       style="stop-color:#C79E42"
       id="stop10349" /><stop
       offset="1"
       style="stop-color:#FFEA73"
       id="stop10351" /></linearGradient><linearGradient
     id="SVGID_4_"
     gradientUnits="userSpaceOnUse"
     x1="-107.4367"
     y1="18.5914"
     x2="-109.8956"
     y2="14.3324"
     gradientTransform="matrix(0.515,0.8572,0.8572,-0.515,68.5385,154.8825)"><stop
       offset="0"
       style="stop-color:#58595B"
       id="stop10356" /><stop
       offset="1"
       style="stop-color:#A6A8AB"
       id="stop10358" /></linearGradient><linearGradient
     id="SVGID_5_"
     gradientUnits="userSpaceOnUse"
     x1="-117.145"
     y1="36.337299"
     x2="-119.6039"
     y2="32.0783"
     gradientTransform="matrix(0.515,0.8572,0.8572,-0.515,68.5385,154.8825)"><stop
       offset="0"
       style="stop-color:#C79E42"
       id="stop10369" /><stop
       offset="1"
       style="stop-color:#FFEA73"
       id="stop10371" /></linearGradient><linearGradient
     id="SVGID_6_"
     gradientUnits="userSpaceOnUse"
     x1="-109.3608"
     y1="37.4123"
     x2="-126.6425"
     y2="27.4347"
     gradientTransform="matrix(0.515,0.8572,0.8572,-0.515,68.5385,154.8825)"><stop
       offset="0"
       style="stop-color:#C79E42"
       id="stop10386" /><stop
       offset="1"
       style="stop-color:#F2D556"
       id="stop10388" /></linearGradient><linearGradient
     id="SVGID_7_"
     gradientUnits="userSpaceOnUse"
     x1="-131.8826"
     y1="33.829102"
     x2="-134.3069"
     y2="29.6301"
     gradientTransform="matrix(0.515,0.8572,0.8572,-0.515,68.5385,154.8825)"><stop
       offset="0"
       style="stop-color:#58595B"
       id="stop10405" /><stop
       offset="1"
       style="stop-color:#A6A8AB"
       id="stop10407" /></linearGradient><linearGradient
     id="SVGID_8_"
     gradientUnits="userSpaceOnUse"
     x1="-139.2791"
     y1="38.272301"
     x2="-141.7256"
     y2="34.034698"
     gradientTransform="matrix(0.515,0.8572,0.8572,-0.515,68.5385,154.8825)"><stop
       offset="0"
       style="stop-color:#58595B"
       id="stop10414" /><stop
       offset="1"
       style="stop-color:#A6A8AB"
       id="stop10416" /></linearGradient><linearGradient
     id="SVGID_9_"
     gradientUnits="userSpaceOnUse"
     x1="-131.8905"
     y1="45.7402"
     x2="-134.3148"
     y2="41.541199"
     gradientTransform="matrix(0.515,0.8572,0.8572,-0.515,68.5385,154.8825)"><stop
       offset="0"
       style="stop-color:#58595B"
       id="stop10429" /><stop
       offset="1"
       style="stop-color:#A6A8AB"
       id="stop10431" /></linearGradient><linearGradient
     id="SVGID_10_"
     gradientUnits="userSpaceOnUse"
     x1="-139.2791"
     y1="50.194099"
     x2="-141.7256"
     y2="45.9566"
     gradientTransform="matrix(0.515,0.8572,0.8572,-0.515,68.5385,154.8825)"><stop
       offset="0"
       style="stop-color:#58595B"
       id="stop10440" /><stop
       offset="1"
       style="stop-color:#A6A8AB"
       id="stop10442" /></linearGradient><linearGradient
     inkscape:collect="always"
     xlink:href="#SVGID_1_"
     id="linearGradient10972"
     gradientUnits="userSpaceOnUse"
     gradientTransform="matrix(0.515,0.8572,0.8572,-0.515,68.5385,154.8825)"
     x1="-107.437"
     y1="30.515699"
     x2="-109.8959"
     y2="26.256701" /><linearGradient
     inkscape:collect="always"
     xlink:href="#SVGID_2_"
     id="linearGradient10974"
     gradientUnits="userSpaceOnUse"
     gradientTransform="matrix(0.515,0.8572,0.8572,-0.515,68.5385,154.8825)"
     x1="-112.3362"
     y1="33.3493"
     x2="-114.7036"
     y2="29.248899" /><linearGradient
     inkscape:collect="always"
     xlink:href="#SVGID_3_"
     id="linearGradient10976"
     gradientUnits="userSpaceOnUse"
     gradientTransform="matrix(0.515,0.8572,0.8572,-0.515,68.5385,154.8825)"
     x1="-117.145"
     y1="24.415501"
     x2="-119.6039"
     y2="20.1565" /><linearGradient
     inkscape:collect="always"
     xlink:href="#SVGID_4_"
     id="linearGradient10978"
     gradientUnits="userSpaceOnUse"
     gradientTransform="matrix(0.515,0.8572,0.8572,-0.515,68.5385,154.8825)"
     x1="-107.4367"
     y1="18.5914"
     x2="-109.8956"
     y2="14.3324" /><linearGradient
     inkscape:collect="always"
     xlink:href="#SVGID_5_"
     id="linearGradient10980"
     gradientUnits="userSpaceOnUse"
     gradientTransform="matrix(0.515,0.8572,0.8572,-0.515,68.5385,154.8825)"
     x1="-117.145"
     y1="36.337299"
     x2="-119.6039"
     y2="32.0783" /><linearGradient
     inkscape:collect="always"
     xlink:href="#SVGID_6_"
     id="linearGradient10982"
     gradientUnits="userSpaceOnUse"
     gradientTransform="matrix(0.515,0.8572,0.8572,-0.515,68.5385,154.8825)"
     x1="-109.3608"
     y1="37.4123"
     x2="-126.6425"
     y2="27.4347" /><linearGradient
     inkscape:collect="always"
     xlink:href="#SVGID_7_"
     id="linearGradient10984"
     gradientUnits="userSpaceOnUse"
     gradientTransform="matrix(0.515,0.8572,0.8572,-0.515,68.5385,154.8825)"
     x1="-131.8826"
     y1="33.829102"
     x2="-134.3069"
     y2="29.6301" /><linearGradient
     inkscape:collect="always"
     xlink:href="#SVGID_8_"
     id="linearGradient10986"
     gradientUnits="userSpaceOnUse"
     gradientTransform="matrix(0.515,0.8572,0.8572,-0.515,68.5385,154.8825)"
     x1="-139.2791"
     y1="38.272301"
     x2="-141.7256"
     y2="34.034698" /><linearGradient
     inkscape:collect="always"
     xlink:href="#SVGID_9_"
     id="linearGradient10988"
     gradientUnits="userSpaceOnUse"
     gradientTransform="matrix(0.515,0.8572,0.8572,-0.515,68.5385,154.8825)"
     x1="-131.8905"
     y1="45.7402"
     x2="-134.3148"
     y2="41.541199" /><linearGradient
     inkscape:collect="always"
     xlink:href="#SVGID_10_"
     id="linearGradient10990"
     gradientUnits="userSpaceOnUse"
     gradientTransform="matrix(0.515,0.8572,0.8572,-0.515,68.5385,154.8825)"
     x1="-139.2791"
     y1="50.194099"
     x2="-141.7256"
     y2="45.9566" /></defs><sodipodi:namedview
   pagecolor="#ffffff"
   bordercolor="#666666"
   borderopacity="1"
   objecttolerance="10"
   gridtolerance="10"
   guidetolerance="10"
   inkscape:pageopacity="0"
   inkscape:pageshadow="2"
   inkscape:window-width="1536"
   inkscape:window-height="801"
   id="namedview10499"
   showgrid="false"
   inkscape:zoom="3.6875"
   inkscape:cx="0.81355932"
   inkscape:cy="32"
   inkscape:window-x="-8"
   inkscape:window-y="-8"
   inkscape:window-maximized="1"
   inkscape:current-layer="layer19" />


<g
   inkscape:groupmode="layer"
   id="layer19"
   inkscape:label="solids"><g
     id="solids"><g
       id="frame_1_" /><g
       id="axis_1_"><line
         style="fill:none;stroke:#231f20;stroke-width:1.39999998;stroke-linecap:round;stroke-linejoin:round;stroke-miterlimit:10"
         stroke-miterlimit="10"
         x1="61.799999"
         y1="56"
         x2="32"
         y2="38.299999"
         id="line10320" /><polyline
         style="fill:none;stroke:#231f20;stroke-width:1.39999998;stroke-linecap:round;stroke-linejoin:round;stroke-miterlimit:10"
         stroke-miterlimit="10"
         points="    61.8,56 32,38.3 2.2,56   "
         id="polyline10322" /><line
         style="fill:none;stroke:#231f20;stroke-width:1.39999998;stroke-linecap:round;stroke-linejoin:round;stroke-miterlimit:10"
         stroke-miterlimit="10"
         x1="32"
         y1="38.299999"
         x2="32"
         y2="3.8"
         id="line10324" /><g
         id="g10326"><path
           style="fill:#231f20"
           inkscape:connector-curvature="0"
           d="m 38.6,53.7 c 0.8,-0.5 1,-1.4 0,-1.9 -0.9,-0.5 -2.3,-0.5 -3.4,0.1 -0.8,0.5 -1,1.4 0,1.9 1,0.5 2.3,0.6 3.4,-0.1 z"
           id="path10328" /><linearGradient
           id="linearGradient10651"
           gradientUnits="userSpaceOnUse"
           x1="-107.437"
           y1="30.515699"
           x2="-109.8959"
           y2="26.256701"
           gradientTransform="matrix(0.515,0.8572,0.8572,-0.515,68.5385,154.8825)"><stop
             offset="0"
             style="stop-color:#58595B"
             id="stop10653" /><stop
             offset="1"
             style="stop-color:#A6A8AB"
             id="stop10655" /></linearGradient><path
           style="fill:url(#linearGradient10972)"
           inkscape:connector-curvature="0"
           d="m 35.2,53.8 c -0.5,-0.3 -0.7,-0.7 -0.6,-1 l 0,0 0,-11.3 0,0 c 0,-0.3 0.3,-0.7 0.7,-0.9 1.1,-0.7 2.5,-0.6 3.4,-0.1 0.5,0.3 0.7,0.6 0.6,1 l 0,11.2 c 0,0 0,0.1 0,0.1 l 0,0 0,0 c 0,0.3 -0.3,0.7 -0.7,0.9 -1.1,0.7 -2.5,0.6 -3.4,0.1 z"
           id="path10335" /><linearGradient
           id="linearGradient10658"
           gradientUnits="userSpaceOnUse"
           x1="-112.3362"
           y1="33.3493"
           x2="-114.7036"
           y2="29.248899"
           gradientTransform="matrix(0.515,0.8572,0.8572,-0.515,68.5385,154.8825)"><stop
             offset="0"
             style="stop-color:#C79E42"
             id="stop10660" /><stop
             offset="1"
             style="stop-color:#FFEA73"
             id="stop10662" /></linearGradient><path
           style="fill:url(#linearGradient10974)"
           inkscape:connector-curvature="0"
           d="m 38.6,42.4 c 0.8,-0.5 1,-1.4 0,-1.9 -0.9,-0.5 -2.3,-0.5 -3.4,0.1 -0.8,0.5 -1,1.4 0,1.9 0.9,0.5 2.3,0.5 3.4,-0.1 z"
           id="path10342" /></g><g
         id="g10344"><path
           style="fill:#231f20"
           inkscape:connector-curvature="0"
           d="m 28.4,48.5 c 0.8,-0.5 1,-1.4 0,-1.9 -1,-0.5 -2.3,-0.6 -3.4,0.1 -0.8,0.5 -1,1.4 0,1.9 1,0.5 2.2,0.6 3.4,-0.1 z"
           id="path10346" /><linearGradient
           id="linearGradient10667"
           gradientUnits="userSpaceOnUse"
           x1="-117.145"
           y1="24.415501"
           x2="-119.6039"
           y2="20.1565"
           gradientTransform="matrix(0.515,0.8572,0.8572,-0.515,68.5385,154.8825)"><stop
             offset="0"
             style="stop-color:#C79E42"
             id="stop10669" /><stop
             offset="1"
             style="stop-color:#FFEA73"
             id="stop10671" /></linearGradient><path
           style="fill:url(#linearGradient10976)"
           inkscape:connector-curvature="0"
           d="m 24.9,48.6 c -0.5,-0.3 -0.7,-0.7 -0.6,-1 l 0,0 0,-11.3 0,0 c 0,-0.3 0.3,-0.7 0.7,-0.9 1.1,-0.7 2.5,-0.6 3.4,-0.1 0.5,0.3 0.7,0.6 0.6,1 l 0,11.2 c 0,0 0,0.1 0,0.1 l 0,0 0,0 c 0,0.3 -0.3,0.7 -0.7,0.9 -1.1,0.7 -2.4,0.6 -3.4,0.1 z"
           id="path10353" /><linearGradient
           id="linearGradient10674"
           gradientUnits="userSpaceOnUse"
           x1="-107.4367"
           y1="18.5914"
           x2="-109.8956"
           y2="14.3324"
           gradientTransform="matrix(0.515,0.8572,0.8572,-0.515,68.5385,154.8825)"><stop
             offset="0"
             style="stop-color:#58595B"
             id="stop10676" /><stop
             offset="1"
             style="stop-color:#A6A8AB"
             id="stop10678" /></linearGradient><path
           style="fill:url(#linearGradient10978)"
           inkscape:connector-curvature="0"
           d="m 25,60 c -0.5,-0.3 -0.7,-0.7 -0.6,-1 l 0,0 0,-11.3 0,0 c 0,-0.3 0.3,-0.7 0.7,-0.9 1.1,-0.7 2.5,-0.6 3.4,-0.1 0.5,0.3 0.7,0.6 0.6,1 l 0,11.2 c 0,0 0,0.1 0,0.1 l 0,0 0,0 c 0,0.3 -0.3,0.7 -0.7,0.9 -1.1,0.6 -2.5,0.6 -3.4,0.1 z"
           id="path10360" /><path
           style="fill:#bbbdbf"
           inkscape:connector-curvature="0"
           d="m 28.4,37.2 c 0.8,-0.5 1,-1.4 0,-1.9 -0.9,-0.5 -2.3,-0.5 -3.4,0.1 -0.8,0.5 -1,1.4 0,1.9 0.9,0.5 2.2,0.6 3.4,-0.1 z"
           id="path10362" /></g><g
         id="g10364"><path
           style="fill:#a6a8ab"
           inkscape:connector-curvature="0"
           d="m 38.6,42.4 c 0.8,-0.5 1,-1.4 0,-1.9 -0.9,-0.5 -2.3,-0.5 -3.4,0.1 -0.8,0.5 -1,1.4 0,1.9 0.9,0.5 2.3,0.5 3.4,-0.1 z"
           id="path10366" /><linearGradient
           id="linearGradient10684"
           gradientUnits="userSpaceOnUse"
           x1="-117.145"
           y1="36.337299"
           x2="-119.6039"
           y2="32.0783"
           gradientTransform="matrix(0.515,0.8572,0.8572,-0.515,68.5385,154.8825)"><stop
             offset="0"
             style="stop-color:#C79E42"
             id="stop10686" /><stop
             offset="1"
             style="stop-color:#FFEA73"
             id="stop10688" /></linearGradient><path
           style="fill:url(#linearGradient10980)"
           inkscape:connector-curvature="0"
           d="m 35.2,42.5 c -0.5,-0.3 -0.7,-0.7 -0.6,-1 l 0,0 0,-11.3 0,0 c 0,-0.3 0.3,-0.7 0.7,-0.9 1.1,-0.7 2.5,-0.6 3.4,-0.1 0.5,0.3 0.7,0.6 0.6,1 l 0,11.2 c 0,0 0,0.1 0,0.1 l 0,0 0,0 c 0,0.3 -0.3,0.7 -0.7,0.9 -1.1,0.6 -2.5,0.6 -3.4,0.1 z"
           id="path10373" /><path
           style="fill:#bbbdbf"
           inkscape:connector-curvature="0"
           d="m 38.6,31 c 0.8,-0.5 1,-1.4 0,-1.9 -1,-0.5 -2.3,-0.5 -3.4,0.1 -0.8,0.5 -1,1.4 0,1.9 0.9,0.6 2.3,0.6 3.4,-0.1 z"
           id="path10375" /></g><path
         style="fill:#231f20"
         inkscape:connector-curvature="0"
         d="m 29,48.8 c 1.1,-0.6 1.3,-2 0,-2.6 -1.3,-0.7 -3.1,-0.7 -4.7,0.2 -1.1,0.6 -1.3,2 0,2.6 1.3,0.7 3.2,0.7 4.7,-0.2 z"
         id="path10377" /><path
         style="fill:#231f20"
         inkscape:connector-curvature="0"
         d="m 39.2,42.7 c 1.1,-0.6 1.3,-2 0,-2.6 -1.3,-0.6 -3.1,-0.7 -4.7,0.2 -1.1,0.6 -1.3,2 0,2.6 1.3,0.6 3.2,0.7 4.7,-0.2 z"
         id="path10379" /><polygon
         style="fill:#f2d556"
         points="18.7,28.9 37.9,17.3 45.2,21.7 26.4,32.9 "
         id="polygon10381" /><polygon
         style="fill:none;stroke:#ffea73;stroke-miterlimit:10"
         stroke-miterlimit="10"
         points="20.9,28.1 26.6,31.2 43.2,21.2 37.8,18 "
         id="polygon10383" /><linearGradient
         id="linearGradient10696"
         gradientUnits="userSpaceOnUse"
         x1="-109.3608"
         y1="37.4123"
         x2="-126.6425"
         y2="27.4347"
         gradientTransform="matrix(0.515,0.8572,0.8572,-0.515,68.5385,154.8825)"><stop
           offset="0"
           style="stop-color:#C79E42"
           id="stop10698" /><stop
           offset="1"
           style="stop-color:#F2D556"
           id="stop10700" /></linearGradient><polygon
         style="fill:url(#linearGradient10982)"
         points="25.9,52.4 26.4,32.9 45.2,21.7 44.7,41.1 "
         id="polygon10390" /><polygon
         style="fill:none;stroke:#ffea73;stroke-width:1.39999998;stroke-miterlimit:10"
         stroke-miterlimit="10"
         points="27.6,50.4 44,40.6 44.4,23.9 28.1,33.7 "
         id="polygon10392" /><polygon
         style="fill:#ffea73"
         points="18.2,48.3 18.7,28.9 26.4,32.9 25.9,52.4 "
         id="polygon10394" /><path
         style="fill:#231f20"
         inkscape:connector-curvature="0"
         d="m 29.5,29.4 c 1.1,-0.6 1.3,-2 0,-2.6 -1.3,-0.7 -3.1,-0.7 -4.7,0.2 -1.1,0.6 -1.3,2 0,2.6 1.3,0.6 3.2,0.7 4.7,-0.2 z"
         id="path10396" /><path
         style="fill:#231f20"
         inkscape:connector-curvature="0"
         d="m 39.7,23.2 c 1.1,-0.6 1.3,-2 0,-2.6 -1.3,-0.7 -3.1,-0.7 -4.7,0.2 -1.1,0.6 -1.3,2 0,2.6 1.3,0.7 3.2,0.7 4.7,-0.2 z"
         id="path10398" /><g
         id="g10400"><path
           style="fill:#231f20"
           inkscape:connector-curvature="0"
           d="m 28.9,21.7 c 0.8,-0.5 1,-1.4 0,-1.9 -0.9,-0.5 -2.3,-0.5 -3.4,0.1 -0.8,0.5 -1,1.4 0,1.9 0.9,0.5 2.2,0.6 3.4,-0.1 z"
           id="path10402" /><linearGradient
           id="linearGradient10709"
           gradientUnits="userSpaceOnUse"
           x1="-131.8826"
           y1="33.829102"
           x2="-134.3069"
           y2="29.6301"
           gradientTransform="matrix(0.515,0.8572,0.8572,-0.515,68.5385,154.8825)"><stop
             offset="0"
             style="stop-color:#58595B"
             id="stop10711" /><stop
             offset="1"
             style="stop-color:#A6A8AB"
             id="stop10713" /></linearGradient><path
           style="fill:url(#linearGradient10984)"
           inkscape:connector-curvature="0"
           d="m 25.5,29.2 c -0.5,-0.3 -0.7,-0.7 -0.6,-1 l 0,0 0,-7.4 0,0 c 0,-0.3 0.3,-0.7 0.7,-0.9 1.1,-0.7 2.5,-0.6 3.4,-0.1 0.5,0.3 0.7,0.6 0.6,1 l 0,7.2 c 0,0 0,0.1 0,0.1 l 0,0 0,0 c 0,0.3 -0.3,0.7 -0.7,0.9 -1.1,0.7 -2.5,0.7 -3.4,0.2 z"
           id="path10409" /><path
           style="fill:#bbbdbf"
           inkscape:connector-curvature="0"
           d="m 28.9,21.7 c 0.8,-0.5 1,-1.4 0,-1.9 -0.9,-0.5 -2.3,-0.5 -3.4,0.1 -0.8,0.5 -1,1.4 0,1.9 0.9,0.5 2.3,0.6 3.4,-0.1 z"
           id="path10411" /><linearGradient
           id="linearGradient10717"
           gradientUnits="userSpaceOnUse"
           x1="-139.2791"
           y1="38.272301"
           x2="-141.7256"
           y2="34.034698"
           gradientTransform="matrix(0.515,0.8572,0.8572,-0.515,68.5385,154.8825)"><stop
             offset="0"
             style="stop-color:#58595B"
             id="stop10719" /><stop
             offset="1"
             style="stop-color:#A6A8AB"
             id="stop10721" /></linearGradient><path
           style="fill:url(#linearGradient10986)"
           inkscape:connector-curvature="0"
           d="m 25.4,21.8 c -0.5,-0.3 -0.7,-0.7 -0.6,-1 l 0,0 0,-9.9 0,0 c 0,-0.3 0.3,-0.7 0.7,-0.9 1.1,-0.7 2.5,-0.6 3.4,-0.1 0.5,0.3 0.7,0.6 0.6,1 l 0,9.8 c 0,0 0,0.1 0,0.1 l 0,0 0,0 c 0,0.3 -0.3,0.7 -0.7,0.9 -1.1,0.7 -2.4,0.6 -3.4,0.1 z"
           id="path10418" /><path
           style="fill:#a6a8ab"
           inkscape:connector-curvature="0"
           d="m 28.9,11.8 c 0.8,-0.5 1,-1.4 0,-1.9 C 28,9.3 26.6,9.3 25.5,10 c -0.8,0.5 -1,1.4 0,1.9 1,0.5 2.2,0.6 3.4,-0.1 z"
           id="path10420" /></g><g
         id="g10422"><g
           id="g10424"><path
             style="fill:#a6a8ab"
             inkscape:connector-curvature="0"
             d="m 39.1,22.9 c 0.8,-0.5 1,-1.4 0,-1.9 -0.9,-0.5 -2.3,-0.5 -3.4,0.1 -0.8,0.5 -1,1.4 0,1.9 0.9,0.5 2.3,0.6 3.4,-0.1 z"
             id="path10426" /><linearGradient
             id="linearGradient10728"
             gradientUnits="userSpaceOnUse"
             x1="-131.8905"
             y1="45.7402"
             x2="-134.3148"
             y2="41.541199"
             gradientTransform="matrix(0.515,0.8572,0.8572,-0.515,68.5385,154.8825)"><stop
               offset="0"
               style="stop-color:#58595B"
               id="stop10730" /><stop
               offset="1"
               style="stop-color:#A6A8AB"
               id="stop10732" /></linearGradient><path
             style="fill:url(#linearGradient10988)"
             inkscape:connector-curvature="0"
             d="M 35.7,23 C 35.2,22.7 35,22.3 35.1,22 l 0,0 0,-7.4 0,0 c 0,-0.3 0.3,-0.7 0.7,-0.9 1.1,-0.7 2.5,-0.6 3.4,-0.1 0.5,0.3 0.7,0.6 0.6,1 l 0,7.2 c 0,0 0,0.1 0,0.1 l 0,0 0,0 c 0,0.3 -0.3,0.7 -0.7,0.9 -1.1,0.8 -2.5,0.7 -3.4,0.2 z"
             id="path10433" /><path
             style="fill:#bbbdbf"
             inkscape:connector-curvature="0"
             d="m 39.1,15.5 c 0.8,-0.5 1,-1.4 0,-1.9 -0.9,-0.5 -2.3,-0.5 -3.4,0.1 -0.8,0.5 -1,1.4 0,1.9 0.9,0.6 2.3,0.6 3.4,-0.1 z"
             id="path10435" /></g><path
           style="fill:#231f20"
           inkscape:connector-curvature="0"
           d="m 39.1,15.5 c 0.8,-0.5 1,-1.4 0,-1.9 -0.9,-0.5 -2.3,-0.5 -3.4,0.1 -0.8,0.5 -1,1.4 0,1.9 0.9,0.6 2.3,0.6 3.4,-0.1 z"
           id="path10437" /><linearGradient
           id="linearGradient10737"
           gradientUnits="userSpaceOnUse"
           x1="-139.2791"
           y1="50.194099"
           x2="-141.7256"
           y2="45.9566"
           gradientTransform="matrix(0.515,0.8572,0.8572,-0.515,68.5385,154.8825)"><stop
             offset="0"
             style="stop-color:#58595B"
             id="stop10739" /><stop
             offset="1"
             style="stop-color:#A6A8AB"
             id="stop10741" /></linearGradient><path
           style="fill:url(#linearGradient10990)"
           inkscape:connector-curvature="0"
           d="M 35.7,15.7 C 35.2,15.4 35,15 35.1,14.7 l 0,0 0,-9.9 0,0 c 0,-0.3 0.3,-0.7 0.7,-0.9 1.1,-0.7 2.5,-0.6 3.4,-0.1 0.5,0.3 0.7,0.6 0.6,1 l 0,9.8 c 0,0 0,0.1 0,0.1 l 0,0 0,0 c 0,0.3 -0.3,0.7 -0.7,0.9 -1.1,0.6 -2.5,0.6 -3.4,0.1 z"
           id="path10444" /><path
           style="fill:#a6a8ab"
           inkscape:connector-curvature="0"
           d="m 39.1,5.6 c 0.8,-0.5 1,-1.4 0,-1.9 -1,-0.5 -2.3,-0.5 -3.4,0.1 -0.8,0.5 -1,1.4 0,1.9 0.9,0.6 2.2,0.6 3.4,-0.1 z"
           id="path10446" /></g></g><g
       id="controller_1_" /><g
       id="power_supply_1_" /><g
       id="wiring_1_" /><g
       id="spool_holder_1_" /><g
       id="extruder_1_" /><g
       id="heat_bed_1_" /></g></g><g
   inkscape:groupmode="layer"
   id="layer20"
   inkscape:label="outlines"><g
     id="outlines"><g
       id="frame" /><g
       id="heat_bed" /><g
       id="axis"><g
         id="g10458"><g
           id="g10460"><path
             style="fill:#231f20"
             inkscape:connector-curvature="0"
             d="m 37.1,34.4 c 0.7,0 1.2,0.6 1.2,1.4 0,1.5 -0.9,2.9 -1.9,3.5 -0.3,0.2 -0.5,0.2 -0.7,0.2 -0.7,0 -1.2,-0.6 -1.2,-1.4 0,-1.5 0.9,-2.9 1.9,-3.5 0.2,-0.1 0.4,-0.2 0.7,-0.2 m 0,-1.4 c -0.5,0 -1,0.1 -1.5,0.4 -1.6,1 -2.6,2.8 -2.6,4.7 0,1.6 1.1,2.8 2.6,2.8 0.5,0 1,-0.1 1.5,-0.4 1.6,-1 2.6,-2.8 2.6,-4.7 0,-1.5 -1.2,-2.8 -2.6,-2.8 l 0,0 z"
             id="path10462" /></g></g><g
         id="g10464"><path
           style="fill:#231f20"
           inkscape:connector-curvature="0"
           d="m 37.5,3.3 c 0.2,0 0.4,0 0.6,0 0.1,0 0.2,0 0.2,0 0.3,0.1 0.5,0.2 0.8,0.3 0.1,0.1 0.2,0.1 0.3,0.2 0,0 0,0 0,0 0.1,0.1 0.1,0.1 0.2,0.2 0,0 0,0 0,0 0.1,0.2 0.1,0.4 0.1,0.5 l 0,13.7 5.4,3.3 -0.5,19.5 -5.4,3.3 0,8.2 c 0,0.1 0,0.1 0,0.2 v 0 l 0,0 c 0,0.3 -0.3,0.7 -0.7,0.9 0,0 0,0 0,0 l 0,0 c -0.6,0.4 -1.2,0.5 -1.9,0.5 -0.6,0 -1.1,-0.1 -1.6,-0.4 -0.1,0 -0.2,-0.1 -0.2,-0.2 0,0 0,0 -0.1,0 0,0 -0.1,-0.1 -0.1,-0.1 0,0 -0.1,-0.1 -0.1,-0.1 0,0 0,-0.1 0,-0.1 0,-0.1 -0.1,-0.1 -0.1,-0.2 0,0 0,0 0,0 0,-0.1 0,-0.2 0,-0.2 0,0 0,0 0,0 l 0,0 0,-5.5 -5.5,3.3 0,8.2 c 0,0 0,0.1 0,0.1 l 0,0 0,0 c 0,0.3 -0.3,0.7 -0.7,0.9 -0.6,0.4 -1.2,0.5 -1.9,0.5 -0.6,0 -1.1,-0.1 -1.6,-0.4 -0.5,-0.3 -0.7,-0.7 -0.6,-1 l 0,0 0,-7.4 -6.1,-3.2 0.5,-19.5 6.1,-3.7 0,-14.3 0,0 0,0 c 0,-0.2 0.1,-0.3 0.2,-0.5 0,0 0,0 0,0 0.1,-0.2 0.3,-0.3 0.4,-0.4 l 0,0 c 0.6,-0.3 1.2,-0.5 1.8,-0.5 0.1,0 0.1,0 0.2,0 0.5,0 1,0.1 1.4,0.3 0.4,0.2 0.5,0.3 0.6,0.3 0,0 0,0 0,0 0.1,0.1 0.1,0.1 0.2,0.2 0,0 0,0 0,0 0.1,0.2 0.1,0.4 0.1,0.5 l 0,11.5 5.5,-3.3 0,-14.3 0,0 0,0 c 0,-0.2 0.1,-0.3 0.2,-0.5 0,0 0,0 0,0 0.1,-0.2 0.3,-0.3 0.4,-0.4 l 0,0 0,0 c 0.6,-0.2 1.3,-0.4 1.9,-0.4 m 0,-1.4 c 0,0 0,0 0,0 -0.9,0 -1.8,0.2 -2.5,0.7 -0.3,0.2 -0.6,0.4 -0.8,0.7 0,0 0,0 0,0 -0.2,0.3 -0.3,0.5 -0.4,0.8 -0.1,0.2 -0.1,0.3 -0.1,0.5 l 0,13.5 -2.7,1.6 0,-9 c 0,-0.4 -0.1,-0.8 -0.2,-1.2 0,0 0,-0.1 -0.1,-0.1 C 30.6,9.2 30.5,9.1 30.4,9 30.4,8.9 30.3,8.9 30.3,8.9 30.1,8.7 29.9,8.6 29.7,8.5 29.1,8.2 28.4,8 27.7,8 c -0.1,0 -0.1,0 -0.2,0 -0.9,0 -1.8,0.2 -2.6,0.7 0,0 0,0 0,0 -0.3,0.2 -0.6,0.4 -0.8,0.7 0,0 0,0.1 -0.1,0.1 -0.2,0.2 -0.3,0.5 -0.4,0.8 -0.1,0.2 -0.1,0.3 -0.1,0.5 l 0,13.5 -5.5,3.4 c -0.4,0.2 -0.7,0.7 -0.7,1.2 l -0.5,19.5 c 0,0.5 0.3,1 0.7,1.3 l 5.3,2.8 0,6.5 c 0,0 0,0.1 0,0.1 0,0.9 0.5,1.7 1.4,2.1 0.7,0.4 1.4,0.5 2.2,0.5 0.9,0 1.8,-0.2 2.6,-0.7 0.7,-0.4 1.1,-1 1.3,-1.7 0,-0.1 0,-0.2 0,-0.3 0,-0.1 0,-0.2 0,-0.2 l 0,-7.4 2.7,-1.6 0,3.1 c 0,0.1 0,0.1 0,0.2 0,0.1 0,0.1 0,0.2 0,0.1 0,0.1 0,0.2 0,0.2 0.1,0.3 0.1,0.5 0,0.1 0.1,0.2 0.1,0.2 0.1,0.2 0.2,0.3 0.2,0.3 0.1,0.1 0.1,0.2 0.2,0.3 0,0 0.1,0.1 0.2,0.1 0.1,0.1 0.2,0.2 0.4,0.3 0.7,0.4 1.4,0.5 2.2,0.5 0.9,0 1.8,-0.2 2.6,-0.7 0,0 0,0 0,0 0.7,-0.4 1.1,-1.1 1.3,-1.8 0,-0.1 0,-0.2 0,-0.3 0,-0.1 0,-0.2 0,-0.3 l 0,-7.3 4.8,-2.9 c 0.4,-0.2 0.7,-0.7 0.7,-1.2 l 0.5,-19.5 c 0,-0.5 -0.2,-1 -0.7,-1.2 l -4.8,-2.9 0,-12.8 c 0,-0.4 -0.1,-0.8 -0.2,-1.2 0,0 0,-0.1 -0.1,-0.1 C 40.4,3.3 40.3,3.2 40.2,3 40.2,2.9 40.1,2.9 40.1,2.9 39.9,2.7 39.7,2.6 39.5,2.5 39.4,2.3 39,2.1 38.6,2 38.5,2 38.4,2 38.2,2 38,2 37.8,1.9 37.5,1.9 l 0,0 z"
           id="path10466" /></g><g
         id="g10468"><line
           style="fill:none;stroke:#231f20;stroke-width:1.39999998;stroke-linecap:round;stroke-linejoin:round;stroke-miterlimit:10"
           stroke-miterlimit="10"
           x1="26.6"
           y1="32.799999"
           x2="45.400002"
           y2="21.5"
           id="line10470" /><polyline
           style="fill:none;stroke:#231f20;stroke-width:1.39999998;stroke-linecap:round;stroke-linejoin:round;stroke-miterlimit:10"
           stroke-miterlimit="10"
           points="     18.9,28.7 26.6,32.8 26.1,52.3    "
           id="polyline10472" /></g><polyline
         style="fill:none;stroke:#231f20;stroke-width:1.39999998;stroke-linecap:round;stroke-linejoin:round;stroke-miterlimit:10"
         stroke-miterlimit="10"
         points="    45.4,41.5 25.9,53.2 17.7,48.7   "
         id="polyline10474" /><g
         id="g10476"><g
           id="g10478"><path
             style="fill:#231f20"
             inkscape:connector-curvature="0"
             d="m 27.3,9.5 c 0.1,0 0.2,0 0.4,0 0.1,0 0.3,0 0.4,0.1 0.3,0.1 0.5,0.2 0.8,0.3 0.1,0 0.2,0.1 0.3,0.1 0,0 0,0 0,0 0.1,0.1 0.1,0.1 0.2,0.2 0,0 0,0 0,0 0.1,0.2 0.1,0.4 0.1,0.5 l 0,17.1 c 0,0.1 0,0.1 0,0.2 l 0,0 0,0 c 0,0.3 -0.3,0.7 -0.7,0.9 l 0,0 0,0 c -0.6,0.4 -1.2,0.5 -1.9,0.5 -0.6,0 -1.1,-0.1 -1.6,-0.4 -0.1,0 -0.2,-0.1 -0.2,-0.2 0,0 0,0 -0.1,0 0,0 -0.1,-0.1 -0.1,-0.1 0,0 -0.1,-0.1 -0.1,-0.1 0,0 0,-0.1 0,-0.1 0,-0.1 -0.1,-0.1 -0.1,-0.2 0,0 0,0 0,0 0,-0.1 0,-0.2 0,-0.2 0,0 0,0 0,0 h 0 l 0,-17.3 0,0 v 0 c 0,-0.2 0.1,-0.3 0.2,-0.5 0,0 0,0 0,0 0.1,-0.2 0.3,-0.3 0.4,-0.4 l 0,0 0,0 0,0 c 0.7,-0.3 1.3,-0.4 2,-0.4 0,0 0,0 0,0 m 0,-1.4 -0.1,0 c -0.9,0 -1.7,0.3 -2.5,0.7 -0.3,0.2 -0.6,0.4 -0.8,0.7 0,0 0,0 0,0.1 -0.2,0.3 -0.3,0.5 -0.4,0.8 -0.1,0.2 -0.1,0.3 -0.1,0.5 l 0,17.3 c 0,0.1 0,0.1 0,0.2 0,0.1 0,0.1 0,0.2 0,0.1 0,0.1 0,0.2 0,0.2 0.1,0.4 0.2,0.5 0,0.1 0.1,0.2 0.1,0.2 0.1,0.2 0.2,0.3 0.2,0.3 0.1,0.1 0.1,0.2 0.2,0.3 0,0 0.1,0.1 0.2,0.1 0.1,0.1 0.2,0.2 0.4,0.3 0.7,0.4 1.4,0.5 2.2,0.5 0.9,0 1.8,-0.2 2.6,-0.7 0.7,-0.4 1.2,-1.1 1.3,-1.8 0,-0.1 0,-0.2 0,-0.3 0,-0.1 0,-0.2 0,-0.3 l 0,-17 c 0,-0.4 -0.1,-0.8 -0.2,-1.2 0,0 0,-0.1 -0.1,-0.1 C 30.4,9.4 30.3,9.3 30.2,9.2 30.2,9.1 30.1,9.1 30.1,9.1 29.9,8.9 29.7,8.8 29.5,8.7 29.2,8.5 28.8,8.4 28.4,8.3 28.2,8.3 28,8.2 27.8,8.2 27.7,8.1 27.5,8.1 27.3,8.1 l 0,0 z"
             id="path10480" /></g><g
           id="g10482"><path
             style="fill:#231f20"
             inkscape:connector-curvature="0"
             d="m 37.5,3.3 c 0.3,0 0.5,0 0.7,0.1 0,0 0,0 0.1,0 0.3,0.1 0.5,0.2 0.8,0.3 0.1,0.1 0.2,0.1 0.3,0.2 0,0 0,0 0,0 0.1,0.1 0.1,0.1 0.2,0.2 0,0 0,0 0,0 0.1,0.2 0.1,0.4 0.1,0.5 l 0,17.1 c 0,0.1 0,0.1 0,0.2 v 0 h 0 c 0,0.3 -0.3,0.7 -0.7,0.9 l 0,0 0,0 c -0.6,0.4 -1.2,0.5 -1.9,0.5 -0.6,0 -1.1,-0.1 -1.6,-0.4 -0.1,-0.1 -0.2,-0.1 -0.2,-0.2 0,0 0,0 -0.1,0 0,0 -0.1,-0.1 -0.1,-0.1 0,0 -0.1,-0.1 -0.1,-0.1 0,0 0,-0.1 0,-0.1 0,-0.1 -0.1,-0.1 -0.1,-0.2 0,0 0,0 0,0 0,-0.1 0,-0.2 0,-0.2 0,0 0,0 0,0 l 0,0 0,-17.3 0,0 0,0 c 0,-0.2 0.1,-0.3 0.2,-0.5 0,0 0,0 0,0 0.1,-0.2 0.3,-0.3 0.4,-0.4 l 0,0 0,0 c 0.8,-0.3 1.4,-0.5 2,-0.5 m 0,-1.4 c -0.9,0 -1.8,0.2 -2.6,0.7 -0.3,0.2 -0.6,0.4 -0.8,0.8 0,0 0,0 0,0.1 -0.2,0.2 -0.3,0.5 -0.4,0.8 -0.1,0.2 -0.1,0.3 -0.1,0.5 l 0,17.3 c 0,0.1 0,0.1 0,0.2 0,0.1 0,0.1 0,0.2 0,0.1 0,0.1 0,0.2 0,0.2 0.1,0.3 0.1,0.5 0,0.1 0.1,0.2 0.1,0.2 0.1,0.2 0.2,0.3 0.2,0.3 0,0.1 0.1,0.2 0.2,0.3 0,0 0.1,0.1 0.2,0.1 0.1,0.1 0.2,0.2 0.4,0.3 0.7,0.4 1.4,0.5 2.2,0.5 0.9,0 1.8,-0.2 2.6,-0.7 0.7,-0.4 1.1,-1.1 1.3,-1.8 0,-0.1 0,-0.2 0,-0.3 0,-0.1 0,-0.2 0,-0.3 l 0,-17 c 0,-0.4 -0.1,-0.8 -0.2,-1.2 0,0 0,-0.1 -0.1,-0.1 C 40.5,3.3 40.4,3.2 40.3,3.1 40.3,3 40.2,3 40.2,3 40,2.8 39.8,2.7 39.6,2.6 39.3,2.4 38.9,2.3 38.5,2.2 c 0,0 -0.1,0 -0.1,0 C 38.2,2 37.9,1.9 37.5,1.9 l 0,0 z"
             id="path10484" /></g></g><g
         id="g10486"><path
           style="fill:#231f20"
           inkscape:connector-curvature="0"
           d="m 27.3,9.5 c 0.6,0 1.1,0.1 1.6,0.4 0.9,0.5 0.7,1.5 0,1.9 -0.6,0.4 -1.2,0.5 -1.9,0.5 -0.6,0 -1.1,-0.1 -1.6,-0.4 -0.9,-0.5 -0.7,-1.5 0,-1.9 0.6,-0.4 1.3,-0.5 1.9,-0.5 m 0,-1.4 c -0.9,0 -1.8,0.2 -2.6,0.7 -0.9,0.5 -1.4,1.4 -1.3,2.3 0,0.9 0.5,1.6 1.4,2.1 0.7,0.4 1.4,0.5 2.2,0.5 0.9,0 1.8,-0.2 2.6,-0.7 0.9,-0.5 1.4,-1.4 1.3,-2.3 C 30.9,9.8 30.4,9.1 29.5,8.6 28.9,8.2 28.1,8.1 27.3,8.1 l 0,0 z"
           id="path10488" /></g><g
         id="g10490"><path
           style="fill:#231f20"
           inkscape:connector-curvature="0"
           d="m 37.5,3.3 c 0.6,0 1.1,0.1 1.6,0.4 0.9,0.5 0.7,1.5 0,1.9 C 38.5,6 37.9,6.1 37.2,6.1 36.6,6.1 36.1,6 35.6,5.7 34.7,5.2 34.9,4.2 35.6,3.8 36.3,3.5 36.9,3.3 37.5,3.3 m 0,-1.4 c -0.9,0 -1.8,0.2 -2.6,0.7 -0.9,0.5 -1.4,1.4 -1.3,2.3 0,0.9 0.5,1.6 1.4,2.1 0.7,0.4 1.4,0.5 2.2,0.5 0.9,0 1.8,-0.2 2.6,-0.7 C 40.7,6.3 41.2,5.4 41.1,4.5 41.1,3.6 40.6,2.9 39.7,2.4 39.1,2.1 38.3,1.9 37.5,1.9 l 0,0 z"
           id="path10492" /></g></g><g
       id="controller" /><g
       id="spool_holder" /><g
       id="wiring" /><g
       id="power_supply" /><g
       id="extruder" /></g></g></svg>