<?xml version="1.0" encoding="UTF-8" standalone="no"?>
<!-- Generator: Adobe Illustrator 18.0.0, SVG Export Plug-In . SVG Version: 6.00 Build 0)  -->

<svg
   xmlns:dc="http://purl.org/dc/elements/1.1/"
   xmlns:cc="http://creativecommons.org/ns#"
   xmlns:rdf="http://www.w3.org/1999/02/22-rdf-syntax-ns#"
   xmlns:svg="http://www.w3.org/2000/svg"
   xmlns="http://www.w3.org/2000/svg"
   xmlns:xlink="http://www.w3.org/1999/xlink"
   xmlns:sodipodi="http://sodipodi.sourceforge.net/DTD/sodipodi-0.dtd"
   xmlns:inkscape="http://www.inkscape.org/namespaces/inkscape"
   version="1.1"
   x="0px"
   y="0px"
   viewBox="0 0 64 64"
   enable-background="new 0 0 64 64"
   xml:space="preserve"
   id="svg8667"
   inkscape:version="0.48.2 r9819"
   width="100%"
   height="100%"
   sodipodi:docname="OSE freecad 3d printer x-axis v1-5a-03.svg"><metadata
   id="metadata8833"><rdf:RDF><cc:Work
       rdf:about=""><dc:format>image/svg+xml</dc:format><dc:type
         rdf:resource="http://purl.org/dc/dcmitype/StillImage" /></cc:Work></rdf:RDF></metadata><defs
   id="defs8831"><linearGradient
     id="SVGID_1_"
     gradientUnits="userSpaceOnUse"
     x1="51.7281"
     y1="29.007299"
     x2="49.251801"
     y2="24.7183"><stop
       offset="0"
       style="stop-color:#58595B"
       id="stop8683" /><stop
       offset="1"
       style="stop-color:#A6A8AB"
       id="stop8685" /></linearGradient><linearGradient
     id="SVGID_2_"
     gradientUnits="userSpaceOnUse"
     x1="46.794201"
     y1="31.861"
     x2="44.410099"
     y2="27.7316"><stop
       offset="0"
       style="stop-color:#C79E42"
       id="stop8690" /><stop
       offset="1"
       style="stop-color:#FFEA73"
       id="stop8692" /></linearGradient><linearGradient
     id="SVGID_3_"
     gradientUnits="userSpaceOnUse"
     x1="41.9515"
     y1="22.864"
     x2="39.475201"
     y2="18.575001"><stop
       offset="0"
       style="stop-color:#58595B"
       id="stop8701" /><stop
       offset="1"
       style="stop-color:#A6A8AB"
       id="stop8703" /></linearGradient><linearGradient
     id="SVGID_4_"
     gradientUnits="userSpaceOnUse"
     x1="51.728298"
     y1="16.9988"
     x2="49.252102"
     y2="12.7097"><stop
       offset="0"
       style="stop-color:#58595B"
       id="stop8708" /><stop
       offset="1"
       style="stop-color:#A6A8AB"
       id="stop8710" /></linearGradient><linearGradient
     id="SVGID_5_"
     gradientUnits="userSpaceOnUse"
     x1="41.9515"
     y1="34.870098"
     x2="39.475201"
     y2="30.580999"><stop
       offset="0"
       style="stop-color:#58595B"
       id="stop8721" /><stop
       offset="1"
       style="stop-color:#A6A8AB"
       id="stop8723" /></linearGradient><linearGradient
     id="SVGID_6_"
     gradientUnits="userSpaceOnUse"
     x1="40.014"
     y1="42.919998"
     x2="22.6103"
     y2="32.871899"><stop
       offset="0"
       style="stop-color:#C79E42"
       id="stop8738" /><stop
       offset="1"
       style="stop-color:#F2D556"
       id="stop8740" /></linearGradient><linearGradient
     id="SVGID_7_"
     gradientUnits="userSpaceOnUse"
     x1="15.6298"
     y1="39.255501"
     x2="13.1536"
     y2="34.9664"><stop
       offset="0"
       style="stop-color:#58595B"
       id="stop8757" /><stop
       offset="1"
       style="stop-color:#A6A8AB"
       id="stop8759" /></linearGradient><linearGradient
     id="SVGID_8_"
     gradientUnits="userSpaceOnUse"
     x1="15.6299"
     y1="51.261501"
     x2="13.1536"
     y2="46.972401"><stop
       offset="0"
       style="stop-color:#58595B"
       id="stop8770" /><stop
       offset="1"
       style="stop-color:#A6A8AB"
       id="stop8772" /></linearGradient><linearGradient
     inkscape:collect="always"
     xlink:href="#SVGID_1_"
     id="linearGradient9242"
     gradientUnits="userSpaceOnUse"
     x1="51.7281"
     y1="29.007299"
     x2="49.251801"
     y2="24.7183" /><linearGradient
     inkscape:collect="always"
     xlink:href="#SVGID_2_"
     id="linearGradient9244"
     gradientUnits="userSpaceOnUse"
     x1="46.794201"
     y1="31.861"
     x2="44.410099"
     y2="27.7316" /><linearGradient
     inkscape:collect="always"
     xlink:href="#SVGID_3_"
     id="linearGradient9246"
     gradientUnits="userSpaceOnUse"
     x1="41.9515"
     y1="22.864"
     x2="39.475201"
     y2="18.575001" /><linearGradient
     inkscape:collect="always"
     xlink:href="#SVGID_4_"
     id="linearGradient9248"
     gradientUnits="userSpaceOnUse"
     x1="51.728298"
     y1="16.9988"
     x2="49.252102"
     y2="12.7097" /><linearGradient
     inkscape:collect="always"
     xlink:href="#SVGID_5_"
     id="linearGradient9250"
     gradientUnits="userSpaceOnUse"
     x1="41.9515"
     y1="34.870098"
     x2="39.475201"
     y2="30.580999" /><linearGradient
     inkscape:collect="always"
     xlink:href="#SVGID_6_"
     id="linearGradient9252"
     gradientUnits="userSpaceOnUse"
     x1="40.014"
     y1="42.919998"
     x2="22.6103"
     y2="32.871899" /><linearGradient
     inkscape:collect="always"
     xlink:href="#SVGID_7_"
     id="linearGradient9254"
     gradientUnits="userSpaceOnUse"
     x1="15.6298"
     y1="39.255501"
     x2="13.1536"
     y2="34.9664" /><linearGradient
     inkscape:collect="always"
     xlink:href="#SVGID_8_"
     id="linearGradient9256"
     gradientUnits="userSpaceOnUse"
     x1="15.6299"
     y1="51.261501"
     x2="13.1536"
     y2="46.972401" /></defs><sodipodi:namedview
   pagecolor="#ffffff"
   bordercolor="#666666"
   borderopacity="1"
   objecttolerance="10"
   gridtolerance="10"
   guidetolerance="10"
   inkscape:pageopacity="0"
   inkscape:pageshadow="2"
   inkscape:window-width="1536"
   inkscape:window-height="801"
   id="namedview8829"
   showgrid="false"
   inkscape:zoom="3.6875"
   inkscape:cx="0.81355932"
   inkscape:cy="32"
   inkscape:window-x="-8"
   inkscape:window-y="-8"
   inkscape:window-maximized="1"
   inkscape:current-layer="layer15" />


<g
   inkscape:groupmode="layer"
   id="layer15"
   inkscape:label="solids"><g
     id="solids"><g
       id="frame_1_" /><g
       id="axis_1_"><line
         style="fill:none;stroke:#231f20;stroke-width:1.39999998;stroke-linecap:round;stroke-linejoin:round;stroke-miterlimit:10"
         stroke-miterlimit="10"
         x1="2"
         y1="56.200001"
         x2="32"
         y2="38.400002"
         id="line8672" /><polyline
         style="fill:none;stroke:#231f20;stroke-width:1.39999998;stroke-linecap:round;stroke-linejoin:round;stroke-miterlimit:10"
         stroke-miterlimit="10"
         points="    2,56.2 32,38.4 62,56.2   "
         id="polyline8674" /><line
         style="fill:none;stroke:#231f20;stroke-width:1.39999998;stroke-linecap:round;stroke-linejoin:round;stroke-miterlimit:10"
         stroke-miterlimit="10"
         x1="32"
         y1="38.400002"
         x2="32"
         y2="3.5999999"
         id="line8676" /><g
         id="g8678"><path
           style="fill:#231f20"
           inkscape:connector-curvature="0"
           d="m 57,24.9 c 0,0.9 -0.7,1.6 -1.7,1 -0.9,-0.6 -1.7,-1.7 -1.7,-3 0,-0.9 0.7,-1.6 1.7,-1 1,0.5 1.7,1.7 1.7,3 z"
           id="path8680" /><linearGradient
           id="linearGradient8975"
           gradientUnits="userSpaceOnUse"
           x1="51.7281"
           y1="29.007299"
           x2="49.251801"
           y2="24.7183"><stop
             offset="0"
             style="stop-color:#58595B"
             id="stop8977" /><stop
             offset="1"
             style="stop-color:#A6A8AB"
             id="stop8979" /></linearGradient><path
           style="fill:url(#linearGradient9242)"
           inkscape:connector-curvature="0"
           d="m 55.4,21.9 c -0.5,-0.3 -0.9,-0.2 -1.2,0 l 0,0 -9.8,5.9 0,0 c -0.3,0.2 -0.4,0.6 -0.4,1 0,1.3 0.7,2.5 1.7,3 0.5,0.3 0.9,0.2 1.2,0 L 56.5,26 c 0,0 0.1,0 0.1,-0.1 l 0,0 0,0 c 0.3,-0.2 0.4,-0.6 0.4,-1 0,-1.3 -0.7,-2.5 -1.6,-3 z"
           id="path8687" /><linearGradient
           id="linearGradient8982"
           gradientUnits="userSpaceOnUse"
           x1="46.794201"
           y1="31.861"
           x2="44.410099"
           y2="27.7316"><stop
             offset="0"
             style="stop-color:#C79E42"
             id="stop8984" /><stop
             offset="1"
             style="stop-color:#FFEA73"
             id="stop8986" /></linearGradient><path
           style="fill:url(#linearGradient9244)"
           inkscape:connector-curvature="0"
           d="m 47.3,30.8 c 0,0.9 -0.7,1.6 -1.7,1 -0.9,-0.6 -1.7,-1.7 -1.7,-3 0,-0.9 0.7,-1.6 1.7,-1 0.9,0.5 1.7,1.7 1.7,3 z"
           id="path8694" /></g><g
         id="g8696"><path
           style="fill:#231f20"
           inkscape:connector-curvature="0"
           d="m 47.3,18.8 c 0,0.9 -0.7,1.6 -1.7,1 -0.9,-0.6 -1.7,-1.7 -1.7,-3 0,-0.9 0.7,-1.6 1.7,-1 0.9,0.5 1.7,1.7 1.7,3 z"
           id="path8698" /><linearGradient
           id="linearGradient8991"
           gradientUnits="userSpaceOnUse"
           x1="41.9515"
           y1="22.864"
           x2="39.475201"
           y2="18.575001"><stop
             offset="0"
             style="stop-color:#58595B"
             id="stop8993" /><stop
             offset="1"
             style="stop-color:#A6A8AB"
             id="stop8995" /></linearGradient><path
           style="fill:url(#linearGradient9246)"
           inkscape:connector-curvature="0"
           d="m 45.6,15.7 c -0.5,-0.3 -0.9,-0.2 -1.2,0 l 0,0 -9.8,5.9 0,0 c -0.3,0.2 -0.4,0.6 -0.4,1 0,1.3 0.7,2.5 1.7,3 0.5,0.3 0.9,0.2 1.2,0 l 9.6,-5.8 c 0,0 0.1,0 0.1,-0.1 l 0,0 0,0 c 0.3,-0.2 0.4,-0.6 0.4,-1 0.1,-1.2 -0.7,-2.4 -1.6,-3 z"
           id="path8705" /><linearGradient
           id="linearGradient8998"
           gradientUnits="userSpaceOnUse"
           x1="51.728298"
           y1="16.9988"
           x2="49.252102"
           y2="12.7097"><stop
             offset="0"
             style="stop-color:#58595B"
             id="stop9000" /><stop
             offset="1"
             style="stop-color:#A6A8AB"
             id="stop9002" /></linearGradient><path
           style="fill:url(#linearGradient9248)"
           inkscape:connector-curvature="0"
           d="m 55.4,9.9 c -0.5,-0.3 -0.9,-0.2 -1.2,0 l 0,0 -9.8,5.9 0,0 c -0.3,0.2 -0.4,0.6 -0.4,1 0,1.3 0.7,2.5 1.7,3 0.5,0.3 0.9,0.2 1.2,0 L 56.5,14 c 0,0 0.1,0 0.1,-0.1 l 0,0 0,0 c 0.3,-0.2 0.4,-0.6 0.4,-1 0,-1.3 -0.7,-2.5 -1.6,-3 z"
           id="path8712" /><path
           style="fill:#bbbdbf"
           inkscape:connector-curvature="0"
           d="m 37.5,24.7 c 0,0.9 -0.7,1.6 -1.7,1 -0.9,-0.6 -1.7,-1.7 -1.7,-3 0,-0.9 0.7,-1.6 1.7,-1 0.9,0.5 1.7,1.6 1.7,3 z"
           id="path8714" /></g><g
         id="g8716"><path
           style="fill:#a6a8ab"
           inkscape:connector-curvature="0"
           d="m 47.3,30.8 c 0,0.9 -0.7,1.6 -1.7,1 -0.9,-0.6 -1.7,-1.7 -1.7,-3 0,-0.9 0.7,-1.6 1.7,-1 0.9,0.5 1.7,1.7 1.7,3 z"
           id="path8718" /><linearGradient
           id="linearGradient9008"
           gradientUnits="userSpaceOnUse"
           x1="41.9515"
           y1="34.870098"
           x2="39.475201"
           y2="30.580999"><stop
             offset="0"
             style="stop-color:#58595B"
             id="stop9010" /><stop
             offset="1"
             style="stop-color:#A6A8AB"
             id="stop9012" /></linearGradient><path
           style="fill:url(#linearGradient9250)"
           inkscape:connector-curvature="0"
           d="m 45.6,27.8 c -0.5,-0.3 -0.9,-0.2 -1.2,0 l 0,0 -9.8,5.9 0,0 c -0.3,0.2 -0.4,0.6 -0.4,1 0,1.3 0.7,2.5 1.7,3 0.5,0.3 0.9,0.2 1.2,0 l 9.6,-5.8 c 0,0 0.1,0 0.1,-0.1 l 0,0 0,0 c 0.3,-0.2 0.4,-0.6 0.4,-1 0.1,-1.3 -0.7,-2.5 -1.6,-3 z"
           id="path8725" /><path
           style="fill:#bbbdbf"
           inkscape:connector-curvature="0"
           d="m 37.5,36.7 c 0,0.9 -0.7,1.6 -1.7,1 -0.9,-0.6 -1.7,-1.7 -1.7,-3 0,-0.9 0.7,-1.6 1.7,-1 0.9,0.5 1.7,1.6 1.7,3 z"
           id="path8727" /></g><path
         style="fill:#231f20"
         inkscape:connector-curvature="0"
         d="m 38.1,25 c 0,1.2 -1,2.2 -2.3,1.4 -1.2,-0.7 -2.3,-2.3 -2.3,-4.1 0,-1.2 1,-2.2 2.3,-1.4 1.3,0.7 2.3,2.3 2.3,4.1 z"
         id="path8729" /><path
         style="fill:#231f20"
         inkscape:connector-curvature="0"
         d="m 38.1,37 c 0,1.2 -1,2.2 -2.3,1.4 -1.2,-0.7 -2.3,-2.3 -2.3,-4.1 0,-1.2 1,-2.2 2.3,-1.4 1.3,0.7 2.3,2.3 2.3,4.1 z"
         id="path8731" /><polygon
         style="fill:#f2d556"
         points="15.5,26.5 15.5,49.1 23,53.1 23,31 "
         id="polygon8733" /><polygon
         style="fill:none;stroke:#ffea73;stroke-miterlimit:10"
         stroke-miterlimit="10"
         points="16,28.4 21.8,31.9 21.8,51.9 16,48.7 "
         id="polygon8735" /><linearGradient
         id="linearGradient9020"
         gradientUnits="userSpaceOnUse"
         x1="40.014"
         y1="42.919998"
         x2="22.6103"
         y2="32.871899"><stop
           offset="0"
           style="stop-color:#C79E42"
           id="stop9022" /><stop
           offset="1"
           style="stop-color:#F2D556"
           id="stop9024" /></linearGradient><polygon
         style="fill:url(#linearGradient9252)"
         points="39.6,21.6 23,32.1 23,54.2 39.6,43.7 "
         id="polygon8742" /><polygon
         style="fill:none;stroke:#ffea73;stroke-width:1.39999998;stroke-miterlimit:10"
         stroke-miterlimit="10"
         points="38.9,22.9 38.9,42.1 24.5,51.3 24.6,32 "
         id="polygon8744" /><polygon
         style="fill:#ffea73"
         points="32.1,16 15.5,26.5 23,31 39.6,20.5 "
         id="polygon8746" /><path
         style="fill:#231f20"
         inkscape:connector-curvature="0"
         d="m 21.5,35.5 c 0,1.2 -1,2.2 -2.3,1.4 C 18,36.2 17,34.6 17,32.8 c 0,-1.2 1,-2.2 2.3,-1.4 1.2,0.8 2.2,2.3 2.2,4.1 z"
         id="path8748" /><path
         style="fill:#231f20"
         inkscape:connector-curvature="0"
         d="m 21.5,47.5 c 0,1.2 -1,2.2 -2.3,1.4 C 18,48.2 17,46.6 17,44.8 c 0,-1.2 1,-2.2 2.3,-1.4 1.2,0.8 2.2,2.3 2.2,4.1 z"
         id="path8750" /><g
         id="g8752"><path
           style="fill:#231f20"
           inkscape:connector-curvature="0"
           d="m 20.9,35.2 c 0,0.9 -0.7,1.6 -1.7,1 -0.9,-0.6 -1.7,-1.7 -1.7,-3 0,-0.9 0.7,-1.6 1.7,-1 1,0.5 1.7,1.6 1.7,3 z"
           id="path8754" /><linearGradient
           id="linearGradient9033"
           gradientUnits="userSpaceOnUse"
           x1="15.6298"
           y1="39.255501"
           x2="13.1536"
           y2="34.9664"><stop
             offset="0"
             style="stop-color:#58595B"
             id="stop9035" /><stop
             offset="1"
             style="stop-color:#A6A8AB"
             id="stop9037" /></linearGradient><path
           style="fill:url(#linearGradient9254)"
           inkscape:connector-curvature="0"
           d="m 19.3,32.1 c -0.5,-0.3 -0.9,-0.2 -1.2,0 l 0,0 -9.8,5.9 0,0 c -0.3,0.2 -0.4,0.6 -0.4,1 0,1.3 0.7,2.5 1.7,3 0.5,0.3 0.9,0.2 1.2,0 l 9.6,-5.8 c 0,0 0.1,0 0.1,-0.1 l 0,0 0,0 c 0.3,-0.2 0.4,-0.6 0.4,-1 0,-1.3 -0.7,-2.4 -1.6,-3 z"
           id="path8761" /><path
           style="fill:#a6a8ab"
           inkscape:connector-curvature="0"
           d="m 11.2,41 c 0,0.9 -0.7,1.6 -1.7,1 -0.9,-0.6 -1.7,-1.7 -1.7,-3 0,-0.9 0.7,-1.6 1.7,-1 0.9,0.6 1.7,1.7 1.7,3 z"
           id="path8763" /></g><g
         id="g8765"><path
           style="fill:#231f20"
           inkscape:connector-curvature="0"
           d="m 20.9,47.2 c 0,0.9 -0.7,1.6 -1.7,1 -0.9,-0.6 -1.7,-1.7 -1.7,-3 0,-0.9 0.7,-1.6 1.7,-1 1,0.5 1.7,1.7 1.7,3 z"
           id="path8767" /><linearGradient
           id="linearGradient9043"
           gradientUnits="userSpaceOnUse"
           x1="15.6299"
           y1="51.261501"
           x2="13.1536"
           y2="46.972401"><stop
             offset="0"
             style="stop-color:#58595B"
             id="stop9045" /><stop
             offset="1"
             style="stop-color:#A6A8AB"
             id="stop9047" /></linearGradient><path
           style="fill:url(#linearGradient9256)"
           inkscape:connector-curvature="0"
           d="m 19.3,44.1 c -0.5,-0.3 -0.9,-0.2 -1.2,0 l 0,0 -9.8,5.9 0,0 c -0.3,0.2 -0.4,0.6 -0.4,1 0,1.3 0.7,2.5 1.7,3 0.5,0.3 0.9,0.2 1.2,0 l 9.6,-5.8 c 0,0 0.1,0 0.1,-0.1 l 0,0 0,0 c 0.3,-0.2 0.4,-0.6 0.4,-1 0,-1.2 -0.7,-2.4 -1.6,-3 z"
           id="path8774" /><path
           style="fill:#a6a8ab"
           inkscape:connector-curvature="0"
           d="m 11.2,53 c 0,0.9 -0.7,1.6 -1.7,1 -1,-0.6 -1.7,-1.7 -1.7,-3 0,-0.9 0.7,-1.6 1.7,-1 0.9,0.6 1.7,1.7 1.7,3 z"
           id="path8776" /></g></g><g
       id="controller_1_" /><g
       id="power_supply_1_" /><g
       id="wiring_1_" /><g
       id="spool_holder_1_" /><g
       id="extruder_1_" /><g
       id="heat_bed_1_" /></g></g><g
   inkscape:groupmode="layer"
   id="layer16"
   inkscape:label="outlines"
   style="display:inline"><g
     id="outlines"><g
       id="frame" /><g
       id="heat_bed" /><g
       id="axis"><g
         id="g8788"><path
           style="fill:#231f20"
           inkscape:connector-curvature="0"
           d="m 54.7,9.7 c 0.2,0 0.4,0.1 0.6,0.2 0.9,0.6 1.7,1.7 1.7,3 0,0.4 -0.2,0.8 -0.4,1 l 0,0 0,0 c 0,0 -0.1,0.1 -0.1,0.1 l -9.6,5.8 0,0 0,0 c 0,0 -0.1,0.1 -0.2,0.1 l -7.1,4.2 v 6.5 l 4.8,-2.9 0,0 9.8,-5.9 0,0 c 0,0 0,0 0,0 0.1,-0.1 0.1,-0.1 0.2,-0.1 0,0 0,0 0,0 0.1,0 0.1,0 0.2,0 0,0 0.1,0 0.1,0 0,0 0,0 0,0 0.1,0 0.1,0 0.2,0 0.1,0 0.1,0 0.2,0 0,0 0,0 0.1,0 0.1,0 0.2,0.1 0.3,0.1 0.9,0.6 1.7,1.7 1.7,3 l 0,0 c 0,0 0,0 0,0 0,0.4 -0.2,0.8 -0.4,1 l 0,0 0,0 c 0,0 -0.1,0.1 -0.2,0.1 L 47,31.7 c 0,0 -0.1,0.1 -0.2,0.1 L 39.7,36 v 6.4 L 23,53.1 l -5.6,-3 -6.7,4 c -0.1,0.1 -0.3,0.2 -0.5,0.2 0,0 0,0 0,0 0,0 0,0 0,0 -0.1,0 -0.2,0 -0.3,0 0,0 0,0 -0.1,0 C 9.7,54.3 9.6,54.2 9.5,54.1 9.3,54 9.1,53.8 8.9,53.6 8.8,53.5 8.8,53.5 8.8,53.4 8.3,52.8 7.9,52 7.9,51.1 v 0 0 c 0,-0.2 0,-0.4 0.1,-0.6 0,0 0,0 0,0 0,-0.2 0.1,-0.4 0.3,-0.5 l 0,0 0,0 7.2,-4.3 v -6.5 l -4.8,2.9 c -0.1,0.1 -0.3,0.2 -0.5,0.2 0,0 0,0 0,0 0,0 0,0 0,0 -0.1,0 -0.2,0 -0.3,0 0,0 0,0 -0.1,0 C 9.7,42.3 9.6,42.2 9.5,42.1 9.1,41.9 8.7,41.5 8.5,41 8.1,40.4 7.9,39.8 7.9,39 l 0,0 c 0,-0.2 0,-0.4 0.1,-0.6 0,0 0,0 0,0 0,-0.1 0.1,-0.3 0.3,-0.4 l 0,0 0,0 7.2,-4.3 V 26.6 L 32.1,16 l 6,3.6 6.4,-3.8 0,0 0,0 9.8,-5.9 0,0 c 0,-0.1 0.2,-0.2 0.4,-0.2 m 0,-1.4 c 0,0 0,0 0,0 -0.4,0 -0.8,0.1 -1.2,0.3 0,0 -0.1,0 -0.1,0.1 l -9.8,5.9 c 0,0 0,0 0,0 L 38,17.9 32.8,14.8 c -0.2,-0.1 -0.5,-0.2 -0.7,-0.2 -0.3,0 -0.5,0.1 -0.8,0.2 L 14.8,25.3 c -0.4,0.3 -0.6,0.7 -0.6,1.2 v 6.4 L 7.6,36.8 C 7.4,36.9 7.3,37 7.2,37.1 7,37.3 6.8,37.6 6.7,37.9 c 0,0 0,0 0,0.1 -0.1,0.3 -0.2,0.7 -0.2,1.1 0,0 0,0 0,0 0,1 0.3,1.9 0.9,2.8 0.4,0.6 0.9,1.1 1.5,1.5 0.2,0.1 0.4,0.2 0.7,0.3 0.1,0 0.1,0 0.2,0 0.2,0 0.4,0.1 0.5,0.1 0,0 0.1,0 0.2,0 0.4,0 0.8,-0.2 1.2,-0.4 l 2.6,-1.6 V 45 L 7.7,48.9 C 7.5,49 7.4,49.1 7.3,49.2 7.1,49.4 6.9,49.7 6.8,50 c 0,0 0,0 0,0.1 -0.1,0.3 -0.2,0.7 -0.2,1.1 0,1.1 0.4,2.3 1.2,3.2 0.1,0.1 0.1,0.2 0.2,0.3 0.3,0.3 0.6,0.6 0.9,0.8 0.2,0.1 0.4,0.2 0.7,0.3 0.1,0 0.1,0 0.2,0 0.2,0 0.4,0.1 0.5,0.1 0,0 0,0 0.1,0 0,0 0.1,0 0.1,0 0.4,0 0.8,-0.2 1.2,-0.4 l 6,-3.6 4.9,2.6 c 0.2,0.1 0.4,0.2 0.7,0.2 0.3,0 0.5,-0.1 0.8,-0.2 L 40.6,44 c 0.4,-0.3 0.6,-0.7 0.6,-1.2 V 37 l 6.3,-3.8 c 0.1,0 0.2,-0.1 0.2,-0.1 l 9.5,-5.7 c 0.1,0 0.2,-0.1 0.3,-0.2 0,0 0.1,-0.1 0.1,-0.1 0.6,-0.5 0.9,-1.2 0.9,-2.1 0,-1.7 -0.9,-3.4 -2.3,-4.2 -0.2,-0.1 -0.3,-0.2 -0.5,-0.2 -0.1,0 -0.1,-0.1 -0.2,-0.1 -0.1,0 -0.2,-0.1 -0.4,-0.1 -0.1,0 -0.2,0 -0.4,0 -0.1,0 -0.2,0 -0.3,0 -0.1,0 -0.3,0 -0.5,0.1 0,0 -0.1,0 -0.2,0.1 -0.1,0 -0.1,0.1 -0.2,0.1 0,0 -0.1,0 -0.1,0.1 l -9.7,5.8 c 0,0 0,0 -0.1,0 L 41,28.2 V 25 l 6.3,-3.8 c 0.1,0 0.2,-0.1 0.3,-0.2 l 9.6,-5.7 c 0.1,-0.1 0.2,-0.1 0.3,-0.2 0,0 0.1,-0.1 0.1,-0.1 0.6,-0.5 0.9,-1.2 0.9,-2.1 0,-1.7 -0.9,-3.4 -2.3,-4.2 -0.5,-0.3 -1,-0.4 -1.5,-0.4 l 0,0 z"
           id="path8790" /></g><g
         id="g8792"><line
           style="fill:none;stroke:#231f20;stroke-width:1.39999998;stroke-linecap:round;stroke-linejoin:round;stroke-miterlimit:10"
           stroke-miterlimit="10"
           x1="23"
           y1="31.299999"
           x2="23"
           y2="53.299999"
           id="line8794" /><polyline
           style="fill:none;stroke:#231f20;stroke-width:1.39999998;stroke-linecap:round;stroke-linejoin:round;stroke-miterlimit:10"
           stroke-miterlimit="10"
           points="     15.5,26.8 23,31.3 39.6,20.7    "
           id="polyline8796" /></g><polyline
         style="fill:none;stroke:#231f20;stroke-width:1.39999998;stroke-linecap:round;stroke-linejoin:round;stroke-miterlimit:10"
         stroke-miterlimit="10"
         points="    40.3,42 40.2,20.2 32.4,15.3   "
         id="polyline8798" /><g
         id="g8800"><g
           id="g8802"><path
             style="fill:#231f20"
             inkscape:connector-curvature="0"
             d="m 18.6,31.9 c 0.1,0 0.1,0 0.2,0 0.1,0 0.1,0 0.2,0 0,0 0.1,0 0.1,0 0.1,0 0.2,0.1 0.3,0.1 0.9,0.6 1.7,1.7 1.7,3 l 0,0 c 0,0 0,0 0,0 0,0.4 -0.2,0.8 -0.4,1 l 0,0 0,0 c 0,0 -0.1,0.1 -0.2,0.1 l -9.6,5.8 c -0.1,0.1 -0.3,0.2 -0.5,0.2 0,0 0,0 0,0 0,0 0,0 0,0 -0.1,0 -0.2,0 -0.3,0 0,0 0,0 -0.1,0 C 9.9,42.1 9.8,42 9.7,41.9 9.5,41.8 9.3,41.6 9.1,41.4 9,41.3 8.9,41.2 8.8,41.1 8.7,41 8.6,40.9 8.6,40.7 8,40.3 7.8,39.7 7.8,39 v 0 0 0 c 0,-0.2 0,-0.4 0.1,-0.6 0,0 0,0 0,0 C 8,38.3 8.1,38.1 8.3,38 l 0,0 0,0 9.8,-5.9 0,0 c 0,0 0,0 0,0 0.1,-0.1 0.1,-0.1 0.2,-0.1 0,0 0,0 0,0 0.1,0 0.2,0 0.3,-0.1 0,0.1 0,0 0,0 0,0 0,0 0,0 m 0,-1.4 c 0,0 0,0 0,0 -0.1,0 -0.2,0 -0.3,0 -0.1,0 -0.3,0 -0.5,0.1 0,0 -0.1,0 -0.2,0.1 -0.1,0 -0.1,0.1 -0.2,0.1 0,0 -0.1,0 -0.1,0.1 l -9.8,5.9 c -0.2,0.1 -0.3,0.2 -0.4,0.3 -0.2,0.2 -0.4,0.5 -0.5,0.8 0,0 0,0 0,0.1 -0.1,0.4 -0.2,0.7 -0.2,1.1 0,0.9 0.2,1.7 0.7,2.5 0.1,0.2 0.2,0.4 0.3,0.5 0.1,0.2 0.3,0.3 0.4,0.5 0.3,0.3 0.6,0.6 0.9,0.8 0.2,0.1 0.4,0.2 0.7,0.3 0.1,0 0.1,0 0.2,0 0.2,0 0.3,0.1 0.5,0.1 0,0 0.1,0 0.2,0 0.4,0 0.8,-0.2 1.2,-0.4 L 21,37.7 c 0.1,-0.1 0.2,-0.1 0.3,-0.2 0,0 0.1,-0.1 0.1,-0.1 0.6,-0.5 0.9,-1.2 0.9,-2.1 0,-1.7 -0.9,-3.4 -2.3,-4.2 -0.2,-0.1 -0.3,-0.2 -0.4,-0.2 -0.1,0 -0.1,-0.1 -0.2,-0.1 -0.1,0 -0.2,-0.1 -0.4,-0.1 -0.1,-0.1 -0.3,-0.2 -0.4,-0.2 l 0,0 z"
             id="path8804" /></g><g
           id="g8806"><path
             style="fill:#231f20"
             inkscape:connector-curvature="0"
             d="m 18.6,44 c 0.1,0 0.1,0 0.2,0 0.1,0 0.1,0 0.2,0 0,0 0,0 0.1,0 0.1,0 0.2,0.1 0.3,0.1 0.9,0.6 1.7,1.7 1.7,3 l 0,0 c 0,0 0,0 0,0 0,0.4 -0.2,0.8 -0.4,1 l 0,0 0,0 c 0,0 -0.1,0.1 -0.2,0.1 L 10.9,54 c -0.1,0.1 -0.3,0.2 -0.5,0.2 0,0 0,0 0,0 0,0 0,0 0,0 -0.1,0 -0.2,0 -0.3,0 0,0 0,0 -0.1,0 C 9.9,54.2 9.8,54.1 9.7,54 9.5,53.9 9.3,53.7 9.1,53.5 c 0,0 0,0 0,-0.1 -0.6,-0.6 -1,-1.5 -1,-2.5 v 0 0 c 0,-0.2 0,-0.4 0.1,-0.6 0,0 0,0 0,0 C 8,50.3 8.1,50.1 8.3,50 l 0,0 0,0 9.8,-5.9 0,0 c 0,0 0,0 0,0 0.1,-0.1 0.1,-0.1 0.2,-0.1 0,0 0,0 0,0 0.1,0 0.2,0 0.3,0 0,0 0,0 0,0 0,0 0,0 0,0 m 0,-1.4 c 0,0 0,0 0,0 -0.1,0 -0.2,0 -0.3,0 -0.1,0 -0.3,0 -0.5,0.1 -0.1,0 -0.1,0 -0.2,0.1 -0.1,0 -0.1,0.1 -0.2,0.1 0,0 -0.1,0 -0.1,0.1 L 7.5,48.9 C 7.3,49 7.2,49.1 7.1,49.2 6.9,49.4 6.7,49.7 6.6,50 c 0,0 0,0.1 0,0.1 -0.1,0.4 -0.2,0.7 -0.2,1.1 0,1.2 0.5,2.5 1.3,3.4 0,0 0.1,0.1 0.1,0.1 0.3,0.3 0.6,0.6 0.9,0.8 0.2,0.1 0.4,0.2 0.7,0.3 0.1,0 0.1,0 0.2,0 0.2,0 0.3,0.1 0.5,0.1 0,0 0.1,0 0.2,0 0.4,0 0.8,-0.2 1.2,-0.4 L 21,49.8 c 0.1,0 0.2,-0.1 0.3,-0.2 0,0 0.1,-0.1 0.1,-0.1 C 22,49 22.3,48.3 22.3,47.4 22.3,45.7 21.4,44 20,43.2 19.8,43.1 19.7,43 19.5,43 c -0.1,0 -0.1,-0.1 -0.2,-0.1 -0.2,0 -0.3,-0.1 -0.4,-0.1 0,-0.2 -0.2,-0.2 -0.3,-0.2 l 0,0 z"
             id="path8808" /></g></g><g
         id="g8810"><path
           style="fill:#231f20"
           inkscape:connector-curvature="0"
           d="m 8.9,37.8 c 0.2,0 0.4,0.1 0.6,0.2 0.9,0.6 1.7,1.7 1.7,3 0,0.7 -0.4,1.2 -1,1.2 C 10,42.2 9.8,42.1 9.6,42 8.7,41.4 7.9,40.3 7.9,39 7.8,38.4 8.3,37.8 8.9,37.8 m 0,-1.4 c 0,0 0,0 0,0 -1.4,0 -2.4,1.2 -2.4,2.6 0,1.7 0.9,3.4 2.3,4.2 0.4,0.3 0.9,0.4 1.4,0.4 1.4,0 2.4,-1.2 2.4,-2.6 0,-1.7 -0.9,-3.4 -2.3,-4.2 -0.5,-0.3 -1,-0.4 -1.4,-0.4 l 0,0 z"
           id="path8812" /></g><g
         id="g8814"><g
           id="g8816"><path
             style="fill:#231f20"
             inkscape:connector-curvature="0"
             d="m 33.2,34.2 c 0.7,0 1.2,0.6 1.2,1.4 0,1.5 -0.9,2.9 -1.9,3.5 -0.3,0.2 -0.5,0.2 -0.7,0.2 -0.7,0 -1.2,-0.6 -1.2,-1.4 0,-1.5 0.9,-2.9 1.9,-3.5 0.2,-0.2 0.5,-0.2 0.7,-0.2 m 0,-1.4 c -0.5,0 -1,0.1 -1.5,0.4 -1.6,1 -2.6,2.8 -2.6,4.7 0,1.6 1.1,2.8 2.6,2.8 0.5,0 1,-0.1 1.5,-0.4 1.6,-1 2.6,-2.8 2.6,-4.7 0,-1.6 -1.2,-2.8 -2.6,-2.8 l 0,0 z"
             id="path8818" /></g></g><g
         id="g8820"><path
           style="fill:#231f20"
           inkscape:connector-curvature="0"
           d="m 8.9,49.8 c 0.2,0 0.4,0.1 0.6,0.2 0.9,0.6 1.7,1.7 1.7,3 0,0.7 -0.4,1.2 -1,1.2 C 10,54.2 9.8,54.1 9.6,54 8.7,53.4 7.9,52.3 7.9,51 7.8,50.4 8.3,49.8 8.9,49.8 m 0,-1.4 c 0,0 0,0 0,0 -1.4,0 -2.4,1.2 -2.4,2.6 0,1.7 0.9,3.4 2.3,4.2 0.4,0.3 0.9,0.4 1.4,0.4 1.4,0 2.4,-1.2 2.4,-2.6 0,-1.7 -0.9,-3.4 -2.3,-4.2 -0.5,-0.3 -1,-0.4 -1.4,-0.4 l 0,0 z"
           id="path8822" /></g></g><g
       id="controller" /><g
       id="spool_holder" /><g
       id="wiring" /><g
       id="power_supply" /><g
       id="extruder" /></g></g></svg>