<svg enable-background="new 0 0 288 144" version="1.1" viewBox="0 0 288 144" xml:space="preserve" xmlns="http://www.w3.org/2000/svg" xmlns:cc="http://creativecommons.org/ns#" xmlns:dc="http://purl.org/dc/elements/1.1/" xmlns:rdf="http://www.w3.org/1999/02/22-rdf-syntax-ns#">
<g>
<g fill="#2980b9">
<rect width="288" height="144"/>
<path d="m10.837 133c-2.8504-2.9684-3.8977-4.5292-3.92-5.8421-0.016734-0.98533-0.012673-28.223 0.0090242-60.528 0.021697-32.305 0.035389-59.092 0.030426-59.526-0.0071918-0.62917 26.954-0.78521 132.78-0.76847l132.79 0.021005 4.3326 4.1446 4.3326 4.1446-0.46898 60.784-0.46897 60.784-38.285 0.41786c-21.057 0.22982-80.8 0.41811-132.76 0.41842l-94.479 5.7e-4zm168.97-4.0612c1.013-1.492 1.1476-3.3425 1.2154-16.715l0.0762-15.037-5.206-4.3839-5.206-4.3839h-12.023l-4.488 3.6316-4.488 3.6316-2e-3 7.328-2e-3 7.328 3.0113 4.0404c2.9287 3.9296 3.1063 4.0517 6.4737 4.4516 1.9043 0.22618 5.7579 0.43934 8.5635 0.47369l5.1011 0.0625-0.27809 1.8947-0.27809 1.8947-7.981 0.01c-4.3895 5e-3 -8.2898 0.21847-8.6672 0.47368-0.73997 0.50035-4.0506 5.9748-4.0506 6.698 0 0.24135 6.0953 0.40294 13.545 0.35907l13.545-0.0798 1.1392-1.6777zm28.455-4.0396 4.579-5.1886-0.056-11.383-0.056-11.383-3.7964-3.3792c-2.088-1.8585-4.0183-3.1375-4.2895-2.8421s-0.31392 4.3706-0.0949 9.0561l0.39812 8.519-1.8947 1.7256c-1.5883 1.4466-2.4732 1.7286-5.4717 1.7441-3.4729 0.018-3.6331-0.0579-5.5081-2.6075l-1.9312-2.626 0.39028-7.7005c0.25415-5.0145 0.16358-7.8406-0.25962-8.1021-0.35745-0.22091-2.1044 0.78153-3.8822 2.2277l-3.2322 2.6293v14.974l3 4.0595 3 4.0595 8.2105 0.13212c4.5158 0.0727 7.167 0.24227 5.8917 0.3769-1.6668 0.17595-2.6283 0.72328-3.4193 1.9465-0.60528 0.93592-2.3297 3.1496-3.832 4.9193-1.5023 1.7697-2.5452 3.4039-2.3175 3.6316 0.22766 0.22767 2.5692 0.41049 5.2034 0.40628l4.7895-8e-3 4.5789-5.1886zm-169.4-7.6815 3.1406-2.7802-2.5263-2.2461c-2.7601-2.454-4.1607-2.8066-5.3684-1.3513-1.1102 1.3376-6.8065 1.2706-8.3187-0.0979-0.63525-0.57489-1.155-1.5488-1.155-2.1642 0-0.61542-0.49737-1.2489-1.1053-1.4078-0.6079-0.15886 1.8079-0.32181 5.3684-0.3621l6.4737-0.0733v-6.9474h-5.9409c-5.6598 0-5.925-0.06069-5.6055-1.2825 0.53663-2.0521 2.7081-3.1386 6.2726-3.1386 4.5307 0 5.9053 1.7105 5.9053 7.3483v4.0201h2.4702c1.983 0 2.7927-0.38325 4.1053-1.9432 1.3449-1.5983 1.6351-2.5888 1.6351-5.5806v-3.6374l-4.3596-4.2089-4.3596-4.2089h-11.207l-4.5631 4.5938-4.5631 4.5938v13.56l3.3158 5.0332 3.3158 5.0332 6.9647 0.0142 6.9647 0.0142 3.1406-2.7802zm33.338 0.37723c0.93341-0.97427 1.6971-2.0534 1.6971-2.3981 0-0.3447-1.1435-1.7434-2.5411-3.1081-2.224-2.1717-2.6959-2.3847-3.7809-1.7071-0.68187 0.42582-2.8778 0.77423-4.8799 0.77422-3.419-2e-5 -3.7498-0.13744-5.4453-2.2624-1.5808-1.9812-1.7977-2.761-1.745-6.2745 0.05045-3.363 0.31731-4.2895 1.6493-5.7268 1.4217-1.5341 1.991-1.7027 5.4033-1.6003 3.4206 0.10264 3.9994 0.32181 5.61 2.1244l1.7959 2.0099 2.9195-2.3923c3.2094-2.6298 3.2134-2.5526-0.34998-6.67l-2.3115-2.6709-5.9786-0.35668c-3.2882-0.19618-6.6981-0.1761-7.5775 0.04459-0.88967 0.2233-3.3057 2.3795-5.4467 4.8609-3.5499 4.1143-3.8478 4.6933-3.8478 7.4763 0 1.6592 0.19371 3.2104 0.43047 3.4471 0.23676 0.23676 0.35822 1.9903 0.2699 3.8968-0.15909 3.4345-0.12444 3.507 3.7667 7.8853l3.9273 4.4189h7.3688c7.2491 0 7.3964-0.0288 9.0659-1.7714zm28.695-2.8216 3.7992-4.5931 0.0546-6.6175 0.0546-6.6175-4.3179-4.5239-4.3179-4.5239-6.5562 0.30658-6.5562 0.30658-4.2632 4.4344-4.2632 4.4344v12.295l4.2345 4.8458 4.2345 4.8458h14.098l3.7992-4.593zm14.536-20.856c0.10914-16.608-0.0591-25.552-0.49591-26.368-0.47673-0.89079-0.45992-1.2352 0.0603-1.2352 0.39675 0 0.5719-0.38951 0.38921-0.86559-0.29846-0.77777 2.6474-5.0619 4.2838-6.23 0.35753-0.25521 2.4264-0.46836 4.5974-0.47368l3.9474-0.0097v-8.2105h-13.145l-4.1343 4.4655-4.1344 4.4655-0.0411 29.523c-0.0226 16.238 0.16536 29.73 0.41771 29.982 0.25236 0.25236 2.1758 0.37575 4.2742 0.27422l3.8154-0.18461zm27.073 22.765c5.1223-5.3834 5.1518-5.457 5.2127-13.027l0.0553-6.8647-3.8355-4.1857-3.8355-4.1857h-14.314l-3.8024 4.2131c-4.3334 4.8013-4.8851 6.578-4.1905 13.494 0.43216 4.3033 0.51231 4.4588 4.5411 8.8102l4.1012 4.4296h13.513zm-104.83-35.368c5.4322-5.6859 5.9187-8.0922 2.5353-12.541-1.1608-1.5263-2.4606-3.4348-2.8885-4.2412-0.73336-1.3822-1.0791-1.4545-6.0403-1.2632l-5.2624 0.20298-1.4113-2.063c-1.3619-1.9907-1.3716-2.1069-0.27758-3.3158 0.83203-0.91939 1.9443-1.2528 4.1792-1.2528 2.5515 0 3.2132 0.25607 4.08 1.5789 0.90596 1.3827 1.4882 1.5789 4.6838 1.5789 4.7942 0 5.183-0.96099 2.2821-5.6398l-2.1813-3.5181-7.6926-0.50908-7.6926-0.50908-3.3845 3.667c-4.4757 4.8493-4.4888 6.1039-0.12562 12.051l3.3158 4.5199 4.2105 0.02154c2.8119 0.0144 4.2975-0.23938 4.4724-0.76394 0.144-0.43201 0.98996 0.34957 1.8799 1.7368l1.6181 2.5223-1.3058 1.4211c-1.0049 1.0936-2.0019 1.4211-4.3267 1.4211-2.6954 0-3.2109-0.23816-4.7846-2.2105-1.6481-2.0655-2.002-2.2105-5.3953-2.2105-3.5718-1.9e-5 -3.6316 0.02962-3.6316 1.8005 0 1.185 1.0868 3.2362 3.1791 6l3.1791 4.1994h14.221zm31.56 0c5.9305-6.2529 5.7884-5.9079 5.8578-14.212l0.06259-7.483-4.2595-4.464-4.2595-4.464-4.8947 0.31561-4.8947 0.31561v-2.0193c0-1.1106-0.29421-2.5691-0.6538-3.241-0.62908-1.1755-0.3724-1.222 6.7895-1.2309 4.651-0.0058 8.0114-0.30198 8.9577-0.78947 0.83293-0.42909 2.7514-2.5883 4.2632-4.7983 2.7361-3.9997 2.7485-4.0431 2.7043-9.4737-0.02444-3.0005-0.23757-5.9271-0.47368-6.5034-0.23611-0.57633-2.41-2.6686-4.8309-4.6496l-4.4016-3.6017-5.41 0.25866-5.41 0.25866-4.8691 3.7593-4.8691 3.7593-0.0035 15.961-0.0035 15.961-2.5263 2.7407-2.5263 2.7407v13.397l4.1112 4.7139c2.2612 2.5926 4.748 4.8367 5.5263 4.9868 0.77832 0.15011 4.127 0.31163 7.4415 0.35894l6.0263 0.086009zm30.421 0.22114c0.94458-1.181 2.5051-3.2934 3.4678-4.6941l1.7504-2.5468-0.17142-11.727-0.1714-11.727-3.8545-0.18562-3.8545-0.18562-0.40866 3.9098c-0.22476 2.1504-0.40866 6.9561-0.40866 10.679 0 5.8922-0.16964 6.9852-1.309 8.4337-1.0561 1.3426-1.8404 1.6641-4.0594 1.6641-2.2191 0-3.0033-0.32149-4.0594-1.6641-1.2068-1.5341-1.309-2.4961-1.309-12.316v-10.652h-7.5789v25.41l2.2671 3.0885c3.58 4.8769 4.0533 5.0769 11.489 4.8542l6.4931-0.19446zm55.529-0.18714c1.1455-1.1102 2.0827-2.2368 2.0827-2.5035 0-0.26668-1.2079-1.6153-2.6842-2.9969-2.5004-2.34-2.78-2.4497-4.083-1.6018-0.76936 0.50065-2.8874 0.91026-4.7068 0.91026-2.8651 0-3.5867-0.27021-5.3906-2.0186-1.1691-1.1331-2.0827-2.6569-2.0827-3.4737 0-0.80028-0.34105-1.455-0.75789-1.455-0.58947 0-0.58947-0.16842 0-0.7579 0.41684-0.41684 0.75789-1.9305 0.75789-3.3636 0-1.9796 0.3888-2.9709 1.618-4.1257 1.4087-1.3234 2.1236-1.4959 5.5263-1.3336 3.4618 0.1651 4.0759 0.39836 5.3752 2.0415 0.80675 1.0203 1.7496 1.8551 2.0951 1.8551 1.014 0 5.5721-4.0283 5.5846-4.9354 6e-3 -0.45658-1.1965-2.2328-2.6728-3.9471l-2.6842-3.1169-7.3779-3.1e-4 -7.3779-3.1e-4 -2.8338 3c-5.5735 5.9005-5.4145 5.5043-5.4145 13.495v7.1995l4.1333 4.5739 4.1333 4.5739h14.677zm28.538-0.66558c1.602-1.4763 2.9127-2.8605 2.9127-3.0759s-1.2345-1.4231-2.7433-2.6836l-2.7432-2.2919-1.6051 1.2626c-1.0888 0.85648-2.5619 1.2626-4.5799 1.2626-3.042 0-3.7856-0.48705-5.5444-3.6316l-0.79483-1.4211h6.0054c5.2704 0 6.0143-0.13526 6.0786-1.1053 0.0698-1.0526 0.087-1.0526 0.3621 0 0.21241 0.81284 0.93648 1.1053 2.7367 1.1053 3.5414 0 5.67-2.8877 5.67-7.692v-3.4675l-4.4041-4.2097-4.404-4.2097-5.5433 0.03025-5.5433 0.03025-4.7178 4.371-4.7178 4.371 0.12792 6.9054 0.12793 6.9054 3.2553 5.1144 3.2553 5.1144h13.896l2.9127-2.6842zm-140.85-39.112l3.7408-4.533 0.05119-6.6741 0.05119-6.6741-4.2339-4.2666-4.2339-4.2666h-13.329l-4.5631 4.5938-4.5631 4.5938v12.218l4.1775 4.7709 4.1775 4.7709h14.984zm60.787 2.0214 2.7654-2.5115-2.7251-2.602c-2.5294-2.4152-2.805-2.5296-3.8392-1.5937-0.76168 0.68931-2.3222 1.0083-4.9329 1.0083-3.6781 0-3.8551-0.07512-4.8062-2.0388-0.54309-1.1214-0.91156-2.1147-0.81884-2.2074 0.09272-0.09272 3.7519-0.19066 8.1315-0.21763 7.6735-0.04726 8.0218-0.10789 9.5821-1.6682 1.3899-1.3899 1.6191-2.174 1.6191-5.5382v-3.919l-4.0506-3.8896-4.0506-3.8896h-11.902l-4.2089 4.3596-4.2089 4.3596v12.702l3.3158 5.0299 3.3158 5.0299 7.024 0.04899 7.024 0.04899zm15.713-7.6878c0.27351-8.5606 0.47683-10.061 1.5189-11.211 1.743-1.9223 5.6354-1.8089 7.6677 0.2233 1.5076 1.5076 1.5502 1.8099 1.5502 10.985 0 10.388-0.0749 10.202 4.1053 10.202 4.2195 0 4.1053 0.31836 4.1053-11.445v-10.678l-2.9066-3.6227c-1.5986-1.9925-3.2639-3.9089-3.7005-4.2588-0.43667-0.3499-3.6703-0.60965-7.1858-0.57723l-6.3918 0.05895-2.6971 3.045c-1.4834 1.6748-2.8903 3.4977-3.1264 4.0509-0.57614 1.35-0.63907 22.464-0.0687 23.034 0.24718 0.24718 1.8814 0.3656 3.6316 0.26316l3.1822-0.18627z"/></g><g fill="#ffd671"><path d="m119 15.7c2.7 0 5.4 0.1 8.1 0.1 1.2 0 3.1-0.3 4.1 0.1s2.2 2.4 2.8 3.3c0.9 1.2 2 2.3 2.9 3.5 0.2 0.3 0.6 0.5 0.8 0.8 0.4 0.9 0.1 2.8 0.1 4v9.1 6c0 1 0.1 2.2-0.1 2.8-1.1 0.5-5.8 0.3-7 0-0.4-1-0.3-4.4-0.2-5.6-0.1-4.3-0.1-8.7-0.2-13-0.3-1-1.3-2-2-2.6-1.4-1.4-5.8-1.3-6.3-0.9-0.8 0.2-2.4 2.4-2.6 2.9-0.4 0.9-0.1 11.9-0.1 14.4 0 1.5 0.3 3.8-0.2 4.9-1.9 0.2-4.8 0.4-6.7 0 0-0.1-0.1-0.2-0.1-0.3-0.3-0.5-0.1-1.8-0.1-2.5v-6.1c0-3 0.1-6.1 0.1-9.1 0-1.3-0.2-4 0.2-5 0.5-1.3 1.9-2 2.6-3 1.1-1.4 2.2-2.6 3.4-3.8 0.2 0.1 0.4 0.1 0.5 0"/><path d="m108.5 22.9c-0.3-0.8-7.7-7.9-8.4-8.1v-0.3h-10.5c-1.1 0.5-1.8 1.4-2.5 1.9-0.3 0.3-5.8 6-6.3 6.6-0.3 0.4-0.2 10.7-0.2 12.8 0.3 1.2 1.4 2.2 2 3.1 1.5 2.3 3.2 4.6 4.6 7 1.3 0.3 10.5 0 13.4 0 0.5-0.5 1.1-0.9 1.6-1.3 1.3-1 2.2-2.6 3.8-3.4 0.1-0.2 0-0.1 0.1-0.2-0.1-0.8-4.6-4.1-5.2-4.7-1.1 0.2-1.3 1.4-2.3 1.8-0.5 0.3-6.8 0.3-7.2 0.1-0.6-0.4-1.4-1.8-2-2.4v-1.5c-0.2-0.4-0.7-0.3-1.2-0.4-0.8-0.2-1.8 0.1-2.8-0.2-0.4-0.1-0.8-0.2-1.2-0.2-0.6-0.7-1.4-1.4-2.2-1.9v-2.6c0.2-0.5 2-2.5 2.5-2.6 1.2-0.4 3 0.1 4.1-0.3 0.1-0.3 0-0.8 0.2-1.2 0.2-0.6 2.5-2.7 3.1-2.8 0.2 0 5.1-0.2 5.7 0.1 0.6 0.1 3 2.4 3.2 2.9 0.1 0.3 0 0.6 0.2 0.8v6.9c0.2 0.4 3.6 0.3 4.4 0.3 0.8-0.7 2.6-2.3 2.9-3.3 0.3-0.3 0.2-5.2 0.2-6.9m-2.8 7.4l-0.8 0.8c-1 0-1.2-0.5-1.8-0.8 0-0.5 0-1 0.2-1.3 0.2-0.5 0.7-0.5 1-0.8 0.7 0.1 0.9 0.5 1.4 0.8 0.2 0.4 0.2 1 0 1.3"/><path d="m46.4 33.2c-0.6 0.1-1 0.7-1.2 1.1-1.3 0-2.8 0.1-4.1 0.1-0.3-0.2-0.5-0.4-0.8-0.7-0.3-0.5-0.3-0.8-0.8-1.1-0.1-0.1 0 0-0.2-0.1-0.1 0.1 0 0-0.2 0.1-0.1 0.5 0.3 1.6 0 2.3-0.1 0.3-2.6 3.2-2.9 3.8-1.4 0.2-7.5 0.3-8.2 0.1-0.5-0.2-3.8-3.5-4.2-4.9 0-0.7-0.4-6.1-0.1-7s2.9-3.7 3.6-4c0.6-0.4 6.4-0.3 7.7-0.3 1.1 0.3 4.1 3.5 4.2 4.1 0.4 0.7-0.1 2.9 0.1 3.9 0.3 1.3 1.1 1.9 1.7 2.9 0.7 0.1 3.3 0.3 3.7 0 0.5-0.2 0.6-0.6 0.8-1 0.2-0.3 0.7-0.7 0.8-1.1 0.4-0.9 0.1-3.4 0.1-4.6v-2.7c-0.1-0.4-0.7-0.9-0.9-1.2-0.4-0.4-0.8-0.8-1.2-1.1-0.8-0.8-5.5-6.3-6.6-6.6-0.3-0.1-0.6 0.1-0.8 0.1h-2.8c-3.2 0-6.6 0.2-9.1-0.1-0.8 0.7-8.5 8.6-8.8 9.2-0.2 0.3 0 11.3 0 12.2 0.3 0.8 7.8 8.7 8.2 9.2 3.6 0 13.8 0.5 14.4 0.1 0.8-0.5 6.6-8.1 7.5-8.8 0-0.7 0.2-3.3 0-3.6v-0.3zm-4.5-4.6c0.1-0.1 0.2-0.1 0.3-0.2h1.4c0.3 0.4 0.7 0.9 1 1.2 0 0.8-0.5 1.2-0.8 1.7-0.3 0.1-1.1 0.4-1.5 0.1-0.9 0-1-0.9-1.4-1.4 0.1-0.6 0.6-1 1-1.4"/><path d="m100.1 28.7c0-0.5 0.1-1.3 0-1.5s-0.1-0.2-0.2-0.3c-1.6 0-3.2-0.1-4.8-0.1-0.5 0.3-2.8 0.1-3.6 0.1-1.4 0-3.1 0-4.3 0.3h-1.7c-0.5 0.2-2.2 1.6-2.4 2.1-0.3 0.5-0.1 2.1 0 2.6 0.5 0.3 1.2 0.7 1.5 1.1 1.2 0 2.6 0.1 3.6 0.3 1.7 0 3.3-0.1 5-0.1 1.2 0 2.6 0.1 3.7-0.1 0.7-0.1 2.2 0.4 2.9 0 0.1 0 0.2-0.1 0.3-0.1 0.2-1.1 0-2.9 0-4.3m-12.2 2c-0.4 0.4-0.8 0.7-1.2 1-0.9 0-1.3-0.4-1.8-0.8-0.1-0.3-0.1-0.8-0.1-1.2 0.3-0.3 0.9-0.7 1.2-1h0.7c0.4 0.4 0.8 0.8 1.2 1.1v0.9z"/><path d="m21.9 50.4c2.8 0.1 13.4 0 15.1 0.4 1 1.7 2.1 3.4 3.2 5.1 0.2 0.4 0.8 0.9 0.9 1.3 0.2 0.6 0 1.9-0.1 2.4-0.1 0-0.2 0.1-0.3 0.1-0.3 0.2-1.1 0.1-1.6 0.1-1.1 0-4.3 0.4-4.8 0-0.7-0.3-1.6-1.9-2.1-2.5-0.2-0.2-0.5-0.4-0.8-0.6h-6.1c-0.7 0.9-1.7 1.7-2.5 2.5 0.2 0.9 1 1.5 1.5 2.2 1.3 1.8 2.5 3.6 3.8 5.4 0.5 0.7 2.1 2 2.2 3-0.6 0.2-1.7 0.1-2.5 0.1h-5.6c-0.1-0.1 0 0-0.2-0.1-0.3-0.6-0.8-1-1.2-1.5-1.3-1.8-2.5-3.5-3.8-5.3-0.4-0.5-1-1-1.3-1.6-0.2-0.4-0.2-4 0-4.3 0.6-0.8 4.8-5.2 6.2-6.7"/><path d="m115.4 50.6h8.3c1.3 0 3-0.1 4.1 0.1l0.2 0.4c0.2 0.4 0.1 1.4 0.1 2v5.2c-0.4 0.2-6.5-0.1-8.2 0.4-1.2 0.3-4.6 5-4.9 5.7-0.2 0.5 0.1 1 0.1 1.6-0.2 0.1-0.2 0.1-0.5 0.2-0.3-0.4-1.1-1.4-1.5-1.6s-3.8-0.1-4 0c-0.9 0.3-1 1.5-1.9 1.6-0.4-1.2-0.1-4.8-0.1-6.3h0.1c0.4-1.1 5.9-7.3 8.2-9.3"/><path d="m78.2 50.7c1.3 0 2.8 0.1 4.2 0.1 0.9 0 1.7-0.1 2.5 0 0.5 0.9-0.1 20.1 0.3 21.1 0.4 1.1 1.9 2.6 2.7 3.4 1.4 0 4.6 0.4 5.6-0.1 0.8-0.4 2.7-3 3-3.9 0-1.1-0.2-16.6 0.3-18.6 0.2-0.9-0.4-1.5 0.4-1.9 0.4-0.3 1.2-0.1 1.9-0.1 1.6 0 3.7-0.2 5 0 0 0.1 0.1 0.2 0.1 0.3 0.3 0.5 0.1 2.7 0.1 3.4v20.2c-0.3 1.2-5.5 7.9-6.6 8.6-0.7 0.5-12.1 0.7-13.3 0.2-1-0.4-5.7-6-6.2-7.4-0.2-0.5-0.4-4.3-0.3-4.9 0.1-0.5 0-6.4 0-8.3v-11.8l0.3-0.3"/><path d="m42.2 73.8c0-2.9-0.8-3-2-4.6-0.8-1.2-1.7-2.3-2.5-3.4-0.4-0.6-0.8-1.6-1.4-2.1-0.6-0.4-2-0.3-3-0.3-2.1-0.1-4.1-0.1-6.2-0.2-0.3 1.1 1.1 2.2 1.6 2.8 1.1 1.5 2.3 2.8 3.4 4.2 0.7 1 1.3 2.3 2.2 3.1v0.5c-0.6 0.6-1.6 2.1-2.4 2.5-0.9 0.4-5.2 0.1-6.5 0.1-1.3-1.3-2.7-2.7-3.9-4.1-1.5 0-3-0.1-4.5-0.1-0.7 0-1.4-0.2-1.8 0.1-0.1 0.1-0.2 0.1-0.3 0.2v3.1c0.2 0.5 5.5 7.6 6.3 7.9 0.8 0.5 11.9 0.2 14.1 0.2 1.8-1.8 6.4-7.2 6.7-8.1 0.3-0.3 0.2-1.3 0.2-1.8m-7.9-7.3c-0.6 0.6-0.7 1.2-2.1 1.2-0.4-0.4-0.9-0.9-1.3-1.2 0-1 0.8-1.2 1.3-1.7h0.8c0.3 0.2 0.6 0.4 0.8 0.7 0.2 0.2 0.2 0.4 0.4 0.6v0.4z"/><path d="m156.8 55.2c-0.8-0.8-1.6-1.8-2.3-2.7-0.3-0.2-0.5-0.4-0.8-0.7s-0.5-0.9-0.9-1c-0.3-0.1-1.1 0-1.3-0.1-0.6 0.4-2.4 0.1-3.2 0.1h-9.6c-0.8 0.3-1.5 1.3-2.1 1.9-1.7 1.7-3.4 3.5-4.8 5.4-0.5 0.7-1.7 1.3-1.4 2.5 0 1.8-0.1 3.5-0.1 5.3 0.2 0.9 1.8 3.4 2.6 3.7 0.3 0.2 0.7 0 1 0 1.7 0 1.8 0.2 2.5-1 0.4-0.6 1.3-1.3 1.5-2.1v-4.6l2.7-2.7 0.9-0.9c0.7-0.3 1.6-0.1 2.5-0.1 1.7 0 3.4 0.1 5.1 0.1 0.8 0.8 1.5 1.7 2.3 2.5l1.6 1.6c0.9 0 1-0.5 1.5-0.9 1.4-1 2.5-2.5 4-3.5 0.1-1.4-1.1-2.2-1.7-2.8m-21.8 12.4c-0.7 0-1.2 0-1.6-0.3-0.4-0.1-0.5-0.5-0.8-0.8 0-1 0.6-1.2 1.1-1.7 0.3 0 0.6 0.1 0.9 0.1 0.3 0.4 0.8 0.7 1.1 1 0.1 1-0.3 1.2-0.7 1.7"/><path d="m189 64.4v-5.3c-1.9-1.8-3.7-3.7-5.7-5.5-0.9-0.8-1.7-2.2-2.7-2.6-0.8-0.3-2.3-0.1-3.3-0.1h-7.7c-3.1 2.9-6.2 5.8-9.2 8.7-0.1 2.9 0 6 0 9.1v4.1c0.2 0.6 0.8 1.2 1.1 1.7 1 1.6 2.1 3.1 3.1 4.6 0.6 0.9 1.9 3.6 2.8 4 0.3 0.2 1.1 0.1 1.6 0.1 1.1 0 2.2-0.1 3.4-0.1 2 0 4.1-0.1 5.9-0.1 0.8 0 2.2 0.2 2.8-0.1l1.6-1.6c1.2-1.1 2.5-2.5 3.9-3.4-0.1-0.9-1.2-1.3-1.8-1.8l-1-1c-0.8-0.6-1.7-1.2-2.5-2h-0.5c-0.5 0.6-1.2 1.6-2.1 1.9-0.4 0.2-2.3 0.2-2.9 0.2-1.1 0-3.8 0.2-4.3-0.1-0.4-0.2-0.6-0.8-0.9-1.1l-1-1c-0.3-0.5 0-1.4-0.3-1.9-0.3-0.8-4.1-0.4-5.2-0.8-0.7-0.2-1.7-1.5-2.4-2 0-0.6-0.2-1.9 0-2.7 0.2-0.6 2-2.5 2.6-2.6 0.9-0.5 2.9 0.2 3.6-0.2 1.1-0.1 0.4-0.9 0.8-1.6l2.4-2.4c1-0.7 5.1-0.4 6.9-0.4 0.9 0.9 2.2 1.7 2.9 2.8 0.2 0.3 0.1 0.7 0.3 0.9 0 1.7-0.3 6.6 0.3 7.5 1.4 0 2.8 0.1 4.3 0.1 0.7-0.7 2.7-2.5 3-3.4 0.4-0.3 0.2-1.1 0.2-1.9m-2.8 2.4c-0.3 0.3-0.6 0.7-1 0.8v0.1c-0.8 0-1.1-0.4-1.6-0.7-0.1-0.5-0.2-1.3 0.1-1.7s0.7-0.5 1-0.8c0.6 0.1 1.2 0.5 1.4 0.9 0.3 0.5 0.2 0.9 0.1 1.4"/><path d="m180.3 63.5c0-0.1-0.1-0.2-0.1-0.3-1.7 0-3.3-0.1-5-0.1-0.5 0.3-2.4 0.1-3.1 0.1-1.7 0-3.6 0-5.1 0.4h-1.9c-1 0.3-1.7 1.6-2.5 2.2v2.3c0.5 0.5 1.3 1 1.6 1.5 5.2 0.2 10.4 0.3 15.7 0.3 0.1-0.1 0.2-0.2 0.4-0.3v-4.3c0.1-0.6 0.2-1.4 0-1.8m-13.8 4.8c-0.7 0.5-1.6-0.5-2-0.8 0-0.5-0.1-1.1 0.2-1.4 0.2-0.5 0.9-0.6 1.3-0.9 0.7 0.2 1 0.6 1.5 0.9 0.1 0.2 0 0.1 0.1 0.2 0.1 1.2-0.2 1.7-1.1 2"/><path d="m78.2 23.1c-0.4-0.7-1.4-1.5-2.1-2-1.5-1.1-2.8-2.5-4.2-3.6-0.7-0.5-1.3-1.4-2.1-1.7s-2.1-0.1-3.1-0.1h-6.8c-0.5 0.3-1.4 0-1.9 0.3-0.7 0.4-1.2 1.1-1.8 1.5-1.4 1.1-2.7 2.3-4.1 3.3-0.9 0.6-3.1 2.1-3.5 3v31.4c-0.3 1-2.9 3.5-3.7 4.2-0.4 0.4-0.9 0.7-1.1 1.3-0.2 0.4-0.3 9.2 0 9.6v3.2c0.3 0.6 7.9 9.5 8.6 9.7 0.8 0.5 13.5 0.3 14.3 0.4 1-0.3 7.9-8.7 8.2-9.5 0.4-0.7-0.2-2.2 0.2-2.9 0-0.3 0-0.8-0.1-0.9s0 0-0.2-0.1c-0.3 0.3-0.6 0.7-0.9 1-0.4 0.3-4.1 0.5-4.6 0.1-0.5-0.2-1-1.3-1.3-1.8h-0.4c-0.1 0.6-2.5 6.3-3.4 6.6-1.6 0-7.6 0.4-8.5-0.2-0.6-0.4-3.8-3.9-4.1-5.4 0-1.6-0.1-6.2-0.1-6.9 0.3-1 3-4.1 3.8-4.3 0.9-0.6 7.6-0.4 8-0.2 1 0.1 3 2.5 3.6 3.3 0.3 0.4 0.8 0.5 0.9 1 0.4 1.4-0.4 3.7 0.2 4.9 0.4 0.8 1.2 1.5 1.7 2.3h3.5c0.7-0.7 1.7-1.7 2-2.7v-7.5c-0.5-0.4-0.8-1-1.2-1.5-0.7-1-6.8-7.4-7.5-7.7-0.5-0.2-1.6-0.1-2.3-0.1h-5.1c-0.6 0-1.9 0.2-2.2 0-0.3 0-0.4 0-0.6-0.1-0.2-1.2 0.4-4-0.2-5-0.6-0.5-1.1-1.1-1.7-1.6-1.1-1.1-2.1-2.3-3.2-3.4-0.4-0.4-1-0.8-1.2-1.4-0.2-0.5-0.1-3-0.1-3.6 0.8-0.8 1.5-2 2.7-2.4 1.4-0.4 2.3 0.4 3.4-0.1 0.2-0.6-0.1-1.5 0.1-2.5 0.3-1.2 0.2-3.2 0.2-4.4 0.9-0.9 1.8-1.6 2.8-2.4 0.6-0.5 1.1-1.3 2-1.5h2.2c0.8 0 2.4-0.2 2.9 0.1h1.4c0.8 0.3 1.8 1.9 2.5 2.5 0.3 0.3 0.8 0.6 0.9 1v3.8 3.2c-0.1 0.4-0.7 0.8-0.9 1.1-0.7 0.9-1.9 2.9-3 3.3-0.6 0.4-2.2 0.1-3 0.1-1.1 0-3 0.5-4 0s-2.2-1.9-3.2-2.6l-0.7-0.7c-0.5-0.2-1.2 0.1-1.8-0.1-0.4-0.1-0.8-0.3-1.1-0.4-0.9 0.7-2.2 1.1-2.5 2.3-0.1 0.2 0 2.8 0.1 2.9 0.3 0.9 1.9 2 2.5 2.6 0.3 0.3 0.6 0.8 0.9 1.1 0.1 0.1 0.3 0.1 0.4 0.2 0.4 0.5 0.9 1.3 1.6 1.5 0.5 0 1-0.1 1.5-0.1 1.7 0.3 3.6 0.1 5.6 0.1 1.2 0 2.6 0 3.6-0.2 1.2-0.3 2.6 0.1 3.7-0.1s1.5 0 2.1-0.7c1.4-1.9 2.7-3.8 4.1-5.8 0.5-0.7 1.3-1.3 1.5-2.2v-9.5c-0.1-0.5 0.2-2.3-0.2-3m-7.5 42.1c0.6 0 1.3-0.1 1.6 0.2 0.4 0.3 0.6 0.8 0.9 1.1 0 0.9-0.5 1.2-0.8 1.8-0.4 0.2-1.1 0.2-1.8 0.2-0.5-0.5-1.2-0.9-1.2-2 0.5-0.3 1-0.8 1.3-1.3m-15.4-26.9c-0.2 0.5-0.5 0.6-0.8 0.9-0.6 0-1.2-0.1-1.6-0.4-0.3-0.1-0.3-0.1-0.4-0.4-0.3-0.4-0.1-0.9-0.1-1.4 0.4-0.3 0.8-0.7 1.1-1 0.8 0 1.3 0.2 1.8 0.5 0.1 0.5 0.4 1.3 0 1.8"/><path d="m115.1 77.1v-8.9c-0.3-0.9-1.1-1.6-1.7-2.3-0.3-0.3-0.4-0.7-0.8-0.8h-3c-0.7 0.7-1.9 1.6-2.3 2.6-0.3 0.4-0.1 2.6-0.1 3.3 0 2.9 0.1 5.7 0.1 8.6 0 9-0.1 19-0.1 28.5v7.6c0 0.8-0.2 2.4 0.1 2.9v0.2c1.5 0.3 3.7 0.1 5.4 0.1 0.6 0 1.6 0.1 2-0.1 0.7-0.3 0.4-2.3 0.4-3.5v-10.8c-0.1-9.2 0-18.5 0-27.4m-2.9-7.4c-0.5 0.1-1.1 0.1-1.7 0.1-0.5-0.5-1-1-1.5-1.4 0.1-0.9 1-1.6 1.6-2.1 0.4 0 0.8 0.1 1.1 0.1 0.5 0.5 0.9 1 1.4 1.4 0 0.9-0.5 1.3-0.9 1.9"/><path d="m130.6 68c1 0.4 0.7 2 2.1 2.2 0.6 0.4 3.3 0 3.9-0.1 0.4-0.6 0.8-1.4 1.3-1.9 0.2 0.1 0.1 0 0.2 0.1 0.4 0.7-0.1 2.1 0.2 2.8 0.3 0.8 3.3 3.9 4.3 4.2 0.7 0.2 6.3 0 6.9 0 1-0.3 1.3-1.5 2.5-1.7 0.3 0.4 0.7 0.6 1 0.9l2.8 2.8c0.4 0.4 1.2 0.8 1.3 1.5 0.1 0.1 0 0.1 0 0.4l-3.9 3.9c-3.3 0.2-13.8 0.4-14.6 0-0.9-0.4-6.9-7.9-8.2-9.1 0-1.7-0.5-4.9 0.2-6"/><path d="m212.4 96.9v23h-0.3c-1.4 2.3-3.7 4.1-5.4 6.2-0.3 0.2-0.5 0.4-0.8 0.7-0.5 0.7-1.9 2.7-2.5 3h-9.1c-0.1 0.1 0 0.1-0.2 0-0.4-0.1-0.4-0.2-0.4-0.7 1-0.7 1.6-1.8 2.3-2.7 1.2-1.6 2.7-3 3.9-4.6 0.4-0.6 0.8-1.6 1.4-2 0.3-0.2 2.5-0.4 3.1-0.3 0.1 0 0.5 0.2 0.8 0.1 0.6-0.2 1.1-1 1.5-1.4 0.9-0.9 3.9-3.4 4.2-4.5 0.3-0.8-0.1-3.3-0.1-4.1-1-0.6-1.6-1.9-2.8-2.1-1-0.1-2.9 0.4-3.2-0.4-0.3-0.6-0.1-3.5-0.1-4.4 0-2.8-0.1-5.7-0.1-8.5 0-1.2-0.2-2.7 0-3.7 0.1-0.1 0.2-0.1 0.4-0.1 0.7 0.9 1.7 1.6 2.5 2.3 0.9 0.6 1.6 1.5 2.5 2.2 0.8 0.6 1.4 1.8 2.4 2"/><path d="m73.5 92.1c-0.9-1-1.8-2.1-2.6-3.2l-1.1-1.1c-4.4-0.2-9.4 0-13.7-0.1-2.1 1.7-3.6 3.5-5.4 5.5-0.8 0.9-2.5 2.1-2.8 3.3v1.7c0 1.1-0.2 3.7 0 4.4 0.4 1 1.7 2.3 2.3 3.2 0.9 0 2.4 0.3 2.9-0.1 0.6-0.2 2.1-2.5 2.3-3.1v-4.3c0.2-0.4 0.7-0.6 1-0.9 0.7-0.7 1.8-2.2 2.6-2.5 0.9-0.3 2.8 0 3.8 0 0.8 0 3-0.2 3.6 0.1 0.4 0.2 0.8 0.9 1 1.2l2.6 2.6c1-0.1 1.5-0.9 2-1.4 0.6-0.6 1.2-1 1.9-1.5l1.4-1.4c-0.1-1.1-1.2-1.7-1.8-2.4m-21.1 11.9c-1.4 0.1-2.1-0.3-2.4-1.4l1.2-1.2c0.2 0 0.3 0 0.5 0.1 0.9 0 1.1 0.6 1.5 1 0 0.8-0.4 1-0.8 1.5"/><path d="m147.3 106.4c-0.1-0.1-0.1-0.1 0 0-0.5 0.2-0.9 0.7-1 1.1-0.9 0-3.7 0.4-4.2-0.1-0.7-0.3-0.6-1.3-1.4-1.6-0.1-0.1 0 0-0.2-0.1-0.3 0.7 0.2 1.6-0.1 2.4-0.2 0.6-2.5 3.7-3.1 3.9-1.3 0-6.9 0.3-7.8-0.1-0.7-0.3-3.5-3.6-4-4.7-0.2-0.5-0.4-6-0.2-6.8 0.3-1.3 2.6-3.1 3.4-4.2 1.7-0.1 7.1-0.2 7.8-0.2 0.9 0.3 3.8 3.4 4 4 0.5 0.9-0.2 2.7 0.1 3.8 0.2 0.9 1.2 2.7 2 3v0.1h3.2c0.4-0.2 1.6-2 1.8-2.5v-3.8c0-1.1 0.3-3.1-0.2-3.8-0.7-0.7-7.2-8.1-8.1-8.4h-12.8c-2.1 1.8-8 8.3-8.3 9.1-0.2 0.3 0 1-0.1 1.4-0.4 1.8 0.1 10 0.1 10.8 0.3 0.7 7.4 8.8 8 9.1 1 0.7 12.7 0.3 13.6 0.4 0.9-0.3 7.4-8.2 7.7-8.9 0.2-0.8 0-3.7-0.2-3.9m-4.2-4.7c0.2 0 0.2 0 0.3-0.1h1.3c0.3 0.4 0.6 0.8 0.9 1.1 0 1-0.4 1.3-0.8 1.9-0.3 0.1-0.9 0.2-1.2 0-0.9 0-1-0.7-1.4-1.2 0-0.9 0.5-1.1 0.9-1.7"/><path d="m104.5 106.7v-0.2c-0.8 0.2-0.7 0.9-1.3 1.1-0.5 0.4-2.9 0.2-3.8 0.2-0.2-0.2-0.7-0.4-0.8-0.7-0.2-0.3-0.2-0.7-0.4-0.9-0.1-0.1-0.3-0.1-0.4-0.3-0.3 0.1-0.3 0.1-0.5 0.2 0 0.7 0.1 1.4 0.1 2.1-0.1 0.3-2.2 2.8-2.8 3.8-1.4 0.2-7.9 0.2-8.3 0-0.5-0.3-3.3-3.4-3.8-4.6-0.3-0.8-0.2-6.1-0.2-7 0.3-1 2.7-3.6 3.2-4 0.8-0.5 6.5-0.4 7.9-0.4 1 0.3 4 3.6 4.1 4.1v3.9c0.2 0.8 1.2 2.6 1.9 2.8 0.4 0.3 2.8 0.1 3.3 0.1 0.6-0.6 1.5-1.6 1.8-2.5v-7.2c-1.1-1-2.1-2.2-3-3.4l-2.9-2.9c-0.5-0.6-1.6-2.1-2.3-2.4-0.9-0.4-2.7-0.1-3.8-0.1h-9c-1.9 1.4-8.2 8.7-8.6 9.1-0.2 0.4 0.1 0.8 0 1.4-0.3 1.2 0.1 9.1 0.1 10.8 0.3 0.7 7.5 8.4 8 9.2 4.7 0 9.3 0.5 13.7 0.2 2.1-2.1 4-4.3 5.8-6.7 0.5-0.7 2-1.8 1.9-2.6 0-0.9 0.6-2.4 0.1-3.1m-5.1-3.4c0.1-0.5 0.6-1.2 1-1.3 0.1-0.1 0.3-0.1 0.4-0.2h0.9c0.4 0.4 0.9 0.7 1 1.2 0.4 0.7-0.6 1.5-0.8 1.9h-1.5c-0.4-0.3-1.1-1-1-1.6"/><path d="m55.4 104.7c0 0.9-0.3 1.7 0 2.5 0.2 0.8 1.1 1.4 1.7 2 0.7 0.7 1.5 1.9 2.5 2.3 0.9 0.4 3.6 0.1 4.8 0.1h1.8c1-0.3 1.4-1.5 2.5-1.7 1.6 1.7 3.5 3.4 5.2 5-0.3 1.2-2.1 2.5-2.9 3.3-0.4 0.4-0.7 0.9-1.2 1h-7.9-5.6c-1-0.3-2.2-2.3-2.9-3-1.3-1.3-2.4-2.5-3.5-4-0.5-0.7-1.6-1.2-1.9-2.1 0-0.6 0.1-1.3 0.1-1.9-0.2-1-0.2-2.9 0-3.9h0.3c0.4 0.8 0.9 1.5 1.5 2.1 1.3 0.1 2.8 0.1 4 0 0.1-0.2 1.2-1.8 1.2-1.8h0.3z"/><path d="m210.2 110.3c-0.4-0.4-1.3-1.4-1.6-1.8-0.6-0.1-2.7-0.2-3.2 0.1-1.4 0.2-2.9 2.8-4.3 3.3-0.3 0.2-1.1 0.1-1.6 0.1h-5.3c-0.9-0.1-1.3-1.2-1.7-1.8-0.7-1-2-2.1-2.4-3.3v-2.4c0-0.7-0.2-2.9 0.1-3.3v-8.1c0-0.8 0.3-2.4-0.4-2.6-0.6 0.6-1.3 0.9-2 1.4-0.9 0.7-1.7 1.7-2.6 2.5-0.6 0.5-1.6 1-1.9 1.9-0.2 0.3-0.1 1.3-0.1 1.8v4.4 7.5c0.2 0.7 1.4 1.7 1.8 2.4 1.5 2.1 2.9 4.1 4.4 6.1 5.2 0.1 10.3 0.1 15.5 0.2 0.6-0.2 1.3-1.1 1.7-1.6 0.2-0.2 0.4-0.3 0.7-0.5 0.8-0.8 1.6-1.6 2.3-2.5 0.2-0.2 0.5-0.5 0.7-0.8 0.2-0.8-0.1-2-0.1-3m-1.6 1.5c0 0.6-0.2 0.9-0.7 1-0.1 0.1-0.4 0.1-0.5 0.2-1-0.1-1.3-0.8-1.8-1.3 0-0.4 0.1-1.1 0.3-1.4v-0.2c0.2 0 0.4-0.1 0.6-0.2h1c0.4 0.4 0.9 0.5 1 1 0.2 0.3 0.2 0.7 0.1 0.9"/><path d="m167.2 123.5c1.6 0 3.5-0.2 4.9 0.1l0.2 0.4c0.5 0.8-0.1 3 0.2 4 0.3 0.9 1.5 1 1.6 2.2-1.3 0.8-4.5 0.4-6.4 0.4-5.2 0-10.7 0.1-15.7 0.1-0.1-0.2-0.2-0.3-0.2-0.7 0.5-0.4 0.6-1.1 0.9-1.6 0.6-1 1.3-2.1 1.9-3.1 0.3-0.5 0.4-1.2 1-1.4 0.5-0.4 1.8-0.2 2.6-0.2h6.4c0.7-0.1 2.1 0.1 2.6-0.2"/><path d="m180.7 123.9v-20.1c0.2-1.1-0.6-3.9 0-4.9v-1.6c-0.2-0.5-1-0.9-1.4-1.2-0.9-0.7-1.8-1.6-2.7-2.4-1.4-1-2.6-2.3-4-3.3-0.6-0.4-1.1-1.3-1.9-1.5h-12.2c-0.8 0.8-1.9 1.5-2.8 2.2-1.2 0.9-2.3 2.1-3.5 3-0.7 0.5-2 1.3-2.4 2.2-0.3 0.9 0 2 0 3v7.2c0 1-0.3 2.9 0 3.6 0.1 0.3 0.5 0.5 0.7 0.8 1 1.4 2.1 2.7 3 4.1 0.5 0.7 2.1 3.3 2.8 3.6 0.8 0.5 3.6-0.2 4.8 0.1 1.3 0.3 3.1 0.1 4.5 0.1 2.4 0 4.7 0.1 7.1 0.1 0.4-0.5 1-0.8 1.5-1.2 1.1-0.8 2.1-2.1 3-3.1 0.3-0.3 0.8-0.6 0.9-1v-3c-0.2-0.2-0.3-0.5-0.6-0.8-0.4-0.4-0.8-0.6-1.1-1-0.6 0-2.5-0.2-3.2 0-0.3 0.1-0.5 0.5-0.8 0.7-0.7 0.5-1.4 1.1-2.1 1.6-0.5 0.3-0.8 1-1.4 1.2-1.2 0.4-3.2 0.2-4.7 0.2-0.9 0-2.8 0.2-3.2 0-1.1-0.1-1.4-1.3-1.9-2-0.7-1-1.9-2-2.4-3.2-0.2-2.4-0.3-4.7-0.5-7.1 0.8-0.9 3.1-3.6 4.1-4 2.6-0.1 5.2-0.1 7.7-0.2 0.5 0.2 0.9 0.8 1.3 1.2 0.9 0.9 2.5 2 3.1 2.9 0.5 0.7 0.4 4.1 0.4 5.2 0 0.6-0.1 1.6 0.1 2l0.2 0.4c0.8 0.1 2.1-0.2 3 0.1 0.5 0.2 2.4 1.7 2.5 2.2 0.1 0.2 0.4 3.4 0.2 4-0.3 0.9-1.3 1.6-2 2.3-0.9 0.9-1.7 1.8-2.6 2.7-0.4 0.4-1.1 0.8-1.3 1.3-0.3 0.6 0 1.5 0 2.3 0 1.9 0.2 3.4 0.2 5.4 0.7 0.7 1.5 1.8 2.5 2.2 0.4 0.3 1.3 0 1.9 0.1 0.9 0.2 1.2-0.4 1.6-0.9 0.3-0.4 0.9-0.9 1.1-1.3 0.8-1.3 0.5-3.1 0.5-4.2m-6.9-13.7c0.3-0.1 0.4-0.2 0.6-0.3h1.2l1.2 1.2c0 0.3 0 0.9-0.2 1.1-0.2 0.6-0.7 0.5-1.1 0.8-1 0-1.3-0.7-1.9-1.2 0-0.5 0.1-1 0.2-1.6m4.5 17.9c-0.4 0.1-1.3 0.4-1.8 0.1-0.6-0.1-0.9-0.7-1.3-1.1 0.1-1 0.8-1.3 1.5-1.7 0.4 0.1 0.7-0.1 1.1 0.1 0.5 0.2 0.7 0.9 1.1 1.2 0 0.8-0.4 0.8-0.6 1.4"/><path d="m43.9 101.1v-5.3c-1.9-1.8-3.7-3.7-5.7-5.5-0.9-0.8-1.7-2.2-2.7-2.6-0.8-0.3-2.3-0.1-3.3-0.1h-7.7c-3.1 2.9-6.2 5.8-9.2 8.7-0.1 2.9 0 6 0 9.1v4.1c0.2 0.6 0.8 1.2 1.1 1.7 1 1.6 2.1 3.1 3.1 4.6 0.6 0.9 1.9 3.6 2.8 4 0.3 0.2 1.1 0.1 1.6 0.1 1.1 0 2.2-0.1 3.4-0.1 2 0 4.1-0.1 5.9-0.1 0.8 0 2.2 0.2 2.8-0.1l1.6-1.6c1.2-1.1 2.5-2.5 3.9-3.4-0.1-0.9-1.2-1.3-1.8-1.8l-1-1c-0.8-0.6-1.7-1.2-2.5-2h-0.5c-0.5 0.6-1.2 1.6-2.1 1.9-0.4 0.2-2.3 0.2-2.9 0.2-1.1 0-3.8 0.2-4.3-0.1-0.4-0.2-0.6-0.8-0.9-1.1l-1-1c-0.3-0.5 0-1.4-0.3-1.9-0.3-0.8-4.1-0.4-5.2-0.8-0.7-0.2-1.7-1.5-2.4-2 0-0.6-0.2-1.9 0-2.7 0.2-0.6 2-2.5 2.6-2.6 0.9-0.5 2.9 0.2 3.6-0.2 1.1-0.1 0.4-0.9 0.8-1.6l2.4-2.4c1-0.7 5.1-0.4 6.9-0.4 0.9 0.9 2.2 1.7 2.9 2.8 0.2 0.2 0.1 0.7 0.3 0.9 0 1.7-0.3 6.6 0.3 7.5 1.4 0 2.8 0.1 4.3 0.1 0.7-0.7 2.7-2.5 3-3.4 0.4-0.3 0.2-1.1 0.2-1.9m-2.8 2.4c-0.3 0.3-0.5 0.7-1 0.8v0.1c-0.8 0-1.1-0.4-1.6-0.7-0.1-0.5-0.2-1.3 0.1-1.7s0.7-0.5 1-0.8c0.6 0.1 1.2 0.5 1.4 0.9 0.3 0.5 0.2 0.9 0.1 1.4"/><path d="m35.2 100.3c0-0.1-0.1-0.2-0.1-0.3-1.7 0-3.3-0.1-5-0.1-0.5 0.3-2.4 0.1-3.1 0.1-1.7 0-3.6 0-5.1 0.4h-1.9c-1 0.3-1.7 1.6-2.5 2.2v2.3c0.5 0.5 1.3 1 1.6 1.5 5.2 0.2 10.4 0.3 15.7 0.3 0.1-0.1 0.2-0.2 0.4-0.3v-4.4c0.1-0.5 0.2-1.4 0-1.7m-13.8 4.7c-0.7 0.5-1.6-0.5-2-0.8 0-0.5-0.1-1.1 0.2-1.4 0.2-0.5 0.9-0.6 1.3-0.9 0.7 0.2 1 0.6 1.5 0.9 0.1 0.2 0 0.1 0.1 0.2 0.1 1.2-0.2 1.7-1.1 2"/></g><path d="m0 0v144h288v-144h-288zm281.2 36.8v8.8c0 6 0 12.2-0.1 18.3-0.2 18-0.3 23-0.3 40.8 0 6.8-0.3 13.3-0.3 20.3v5.6c0 0.6-0.2 1.8 0.1 2.2 0 1.3 0.2 3.3-0.3 4.1-50.8 0.1-118.6 0.2-169.3 0.3-1 0.2-2.4 0.1-3.5 0.1h-6.8-25c-14.2 0-28.4 0.1-42.7 0.1h-18.5c-1.3-1.4-2.7-2.6-3.8-4.1-0.4-0.4-0.8-0.7-1.2-1.1-0.8-1-2-2.6-3-3.4-0.3-4.2-0.1-8.8-0.1-13.1v-23.3-57.8-18.6-6.8c0-0.8-0.2-2.2 0.2-2.6 0.1-0.2 0.1-0.1 0.2-0.3h212.8 38.6 10.7c1 0 3.7-0.3 4.4 0.1l1.8 1.8c1.4 1.4 2.7 2.7 4 4.1 0.6 0.7 1.9 1.4 2.2 2.3 0.3 0.5 0.1 1.4 0.1 2.2v5.6c0 4.9-0.1 1.4-0.1 6.3 0 2.5 0.3 5.9-0.1 8.1z" fill="#ffd770"/>
</g>
</svg>
