<?xml version="1.0" encoding="UTF-8" standalone="no"?>
<!-- Generator: Adobe Illustrator 18.0.0, SVG Export Plug-In . SVG Version: 6.00 Build 0)  -->

<svg
   xmlns:dc="http://purl.org/dc/elements/1.1/"
   xmlns:cc="http://creativecommons.org/ns#"
   xmlns:rdf="http://www.w3.org/1999/02/22-rdf-syntax-ns#"
   xmlns:svg="http://www.w3.org/2000/svg"
   xmlns="http://www.w3.org/2000/svg"
   xmlns:xlink="http://www.w3.org/1999/xlink"
   xmlns:sodipodi="http://sodipodi.sourceforge.net/DTD/sodipodi-0.dtd"
   xmlns:inkscape="http://www.inkscape.org/namespaces/inkscape"
   version="1.1"
   x="0px"
   y="0px"
   viewBox="0 0 64 64"
   enable-background="new 0 0 64 64"
   xml:space="preserve"
   id="svg6616"
   inkscape:version="0.48.2 r9819"
   width="100%"
   height="100%"
   sodipodi:docname="OSE freecad 3d printer heatbed v1-5a-09.svg"><metadata
   id="metadata6716"><rdf:RDF><cc:Work
       rdf:about=""><dc:format>image/svg+xml</dc:format><dc:type
         rdf:resource="http://purl.org/dc/dcmitype/StillImage" /></cc:Work></rdf:RDF></metadata><defs
   id="defs6714"><linearGradient
     id="SVGID_1_"
     gradientUnits="userSpaceOnUse"
     x1="6.9033999"
     y1="40.0798"
     x2="56.7892"
     y2="40.0798"><stop
       offset="0"
       style="stop-color:#F2D556"
       id="stop6630" /><stop
       offset="1"
       style="stop-color:#C79E42"
       id="stop6632" /></linearGradient><linearGradient
     id="SVGID_2_"
     gradientUnits="userSpaceOnUse"
     x1="8.9531002"
     y1="37.2449"
     x2="54.7388"
     y2="37.2449"><stop
       offset="0"
       style="stop-color:#C79E42"
       id="stop6639" /><stop
       offset="1"
       style="stop-color:#F2D556"
       id="stop6641" /></linearGradient><linearGradient
     inkscape:collect="always"
     xlink:href="#SVGID_1_"
     id="linearGradient6945"
     gradientUnits="userSpaceOnUse"
     x1="6.9033999"
     y1="40.0798"
     x2="56.7892"
     y2="40.0798" /><linearGradient
     inkscape:collect="always"
     xlink:href="#SVGID_2_"
     id="linearGradient6947"
     gradientUnits="userSpaceOnUse"
     x1="8.9531002"
     y1="37.2449"
     x2="54.7388"
     y2="37.2449" /></defs><sodipodi:namedview
   pagecolor="#ffffff"
   bordercolor="#666666"
   borderopacity="1"
   objecttolerance="10"
   gridtolerance="10"
   guidetolerance="10"
   inkscape:pageopacity="0"
   inkscape:pageshadow="2"
   inkscape:window-width="1536"
   inkscape:window-height="801"
   id="namedview6712"
   showgrid="false"
   inkscape:zoom="3.6875"
   inkscape:cx="0.81355932"
   inkscape:cy="32"
   inkscape:window-x="-8"
   inkscape:window-y="-8"
   inkscape:window-maximized="1"
   inkscape:current-layer="layer7" />


<g
   inkscape:groupmode="layer"
   id="layer7"
   inkscape:label="solids"><g
     id="solids"><g
       id="frame_1_" /><g
       id="axis_1_" /><g
       id="controller_1_" /><g
       id="power_supply_1_" /><g
       id="wiring_1_" /><g
       id="spool_holder_1_" /><g
       id="extruder_1_" /><g
       id="heat_bed_1_"><g
         id="g6627"><linearGradient
           id="linearGradient6854"
           gradientUnits="userSpaceOnUse"
           x1="6.9033999"
           y1="40.0798"
           x2="56.7892"
           y2="40.0798"><stop
             offset="0"
             style="stop-color:#F2D556"
             id="stop6856" /><stop
             offset="1"
             style="stop-color:#C79E42"
             id="stop6858" /></linearGradient><path
           style="fill:url(#linearGradient6945)"
           inkscape:connector-curvature="0"
           d="M 56.8,37.8 53.9,37.7 34.7,26.4 c -1.8,-1.1 -5,-1 -7.1,0.1 L 9.6,36.8 7,36.7 v 2.7 h 0 c -0.1,0.7 0.3,1.5 1.3,2 L 29,53.8 c 1.8,1.1 5,1 7.1,-0.1 l 19,-10.8 c 1.1,-0.6 1.7,-1.5 1.6,-2.3 l 0,0 v -2.8 z"
           id="path6634" /><path
           style="fill:#ffea73"
           inkscape:connector-curvature="0"
           d="m 55.1,40 -19,10.8 C 34,52 30.8,52 29,50.9 L 8.2,38.6 C 6.4,37.5 6.5,35.7 8.6,34.5 l 19,-10.8 c 2.1,-1.2 5.3,-1.2 7.1,-0.1 l 20.8,12.3 c 1.9,1.1 1.7,2.9 -0.4,4.1 z"
           id="path6636" /><linearGradient
           id="linearGradient6862"
           gradientUnits="userSpaceOnUse"
           x1="8.9531002"
           y1="37.2449"
           x2="54.7388"
           y2="37.2449"><stop
             offset="0"
             style="stop-color:#C79E42"
             id="stop6864" /><stop
             offset="1"
             style="stop-color:#F2D556"
             id="stop6866" /></linearGradient><path
           style="fill:url(#linearGradient6947)"
           inkscape:connector-curvature="0"
           d="m 32.3,49.7 c -0.9,0 -1.7,-0.2 -2.3,-0.5 L 9.2,36.9 C 9.1,36.8 9,36.7 9,36.7 9.1,36.6 9.3,36.4 9.6,36.2 l 19,-10.8 c 0.7,-0.4 1.8,-0.7 2.8,-0.7 0.9,0 1.7,0.2 2.3,0.5 l 20.8,12.3 c 0.1,0.1 0.2,0.1 0.2,0.2 -0.1,0.1 -0.3,0.3 -0.6,0.5 L 35.1,49 c -0.7,0.5 -1.8,0.7 -2.8,0.7 z"
           id="path6643" /><g
           id="g6645"><polygon
             style="fill:#58595b"
             points="44.8,51.7 44.8,48.6 51.1,45 51.1,48.1 "
             id="polygon6647" /><polygon
             style="fill:#929497"
             points="42.4,50.3 42.4,47.2 44.8,48.6 44.8,51.7 "
             id="polygon6649" /><polygon
             style="fill:#bbbdbf"
             points="44.8,48.6 40.1,45.8 46.4,42.2 51.1,45 "
             id="polygon6651" /></g></g><path
         style="fill:#231f20"
         inkscape:connector-curvature="0"
         d="m 31,33.9 c 0,0 -5,-5 0,-12 1.7,-2.3 2.6,-4.5 2.5,-6.3 C 33.5,12.1 31,9.9 31,9.9 h 2.6 c 0,0 5,5 0,12 -1.7,2.3 -2.6,4.5 -2.5,6.3 0,3.5 2.5,5.7 2.5,5.7 H 31 z"
         id="path6653" /><path
         style="fill:#231f20"
         inkscape:connector-curvature="0"
         d="m 38.1,33.9 c 0,0 -5,-5 0,-12 1.7,-2.3 2.6,-4.5 2.5,-6.3 0,-3.5 -2.5,-5.7 -2.5,-5.7 h 2.6 c 0,0 5,5 0,12 -1.7,2.3 -2.6,4.5 -2.5,6.3 0,3.5 2.5,5.7 2.5,5.7 h -2.6 z"
         id="path6655" /><path
         style="fill:#231f20"
         inkscape:connector-curvature="0"
         d="m 23.9,33.9 c 0,0 -5,-5 0,-12 1.7,-2.3 2.6,-4.5 2.5,-6.3 0,-3.5 -2.5,-5.7 -2.5,-5.7 h 2.6 c 0,0 5,5 0,12 -1.7,2.3 -2.6,4.5 -2.5,6.3 0,3.5 2.5,5.7 2.5,5.7 h -2.6 z"
         id="path6657" /></g></g></g><g
   inkscape:groupmode="layer"
   id="layer8"
   inkscape:label="outlines"
   style="display:inline"><g
     id="outlines"><g
       id="frame" /><g
       id="heat_bed"><path
         style="fill:none;stroke:#231f20;stroke-width:1.39999998;stroke-linecap:round;stroke-linejoin:round;stroke-miterlimit:10"
         inkscape:connector-curvature="0"
         stroke-miterlimit="10"
         d="m 31,33.9 c 0,0 -5,-5 0,-12 1.7,-2.3 2.6,-4.5 2.5,-6.3 C 33.5,12.1 31,9.9 31,9.9 h 2.6 c 0,0 5,5 0,12 -1.7,2.3 -2.6,4.5 -2.5,6.3 0,3.5 2.5,5.7 2.5,5.7 H 31 z"
         id="path6662" /><path
         style="fill:none;stroke:#231f20;stroke-width:1.39999998;stroke-linecap:round;stroke-linejoin:round;stroke-miterlimit:10"
         inkscape:connector-curvature="0"
         stroke-miterlimit="10"
         d="m 38.1,33.9 c 0,0 -5,-5 0,-12 1.7,-2.3 2.6,-4.5 2.5,-6.3 0,-3.5 -2.5,-5.7 -2.5,-5.7 h 2.6 c 0,0 5,5 0,12 -1.7,2.3 -2.6,4.5 -2.5,6.3 0,3.5 2.5,5.7 2.5,5.7 h -2.6 z"
         id="path6664" /><path
         style="fill:none;stroke:#231f20;stroke-width:1.39999998;stroke-linecap:round;stroke-linejoin:round;stroke-miterlimit:10"
         inkscape:connector-curvature="0"
         stroke-miterlimit="10"
         d="m 23.9,33.9 c 0,0 -5,-5 0,-12 1.7,-2.3 2.6,-4.5 2.5,-6.3 0,-3.5 -2.5,-5.7 -2.5,-5.7 h 2.6 c 0,0 5,5 0,12 -1.7,2.3 -2.6,4.5 -2.5,6.3 0,3.5 2.5,5.7 2.5,5.7 h -2.6 z"
         id="path6666" /><line
         style="fill:none;stroke:#231f20;stroke-width:2.5;stroke-linejoin:round;stroke-miterlimit:10"
         stroke-miterlimit="10"
         x1="21.700001"
         y1="37.900002"
         x2="42.299999"
         y2="37.900002"
         id="line6668" /><path
         style="fill:none;stroke:#231f20;stroke-width:1.39999998;stroke-linecap:round;stroke-linejoin:round;stroke-miterlimit:10"
         inkscape:connector-curvature="0"
         stroke-miterlimit="10"
         d="m 38.7,25.7 16.9,10 c 1.8,1.1 1.7,2.9 -0.4,4.1 l -6.3,3.6"
         id="path6670" /><path
         style="fill:none;stroke:#231f20;stroke-width:1.39999998;stroke-linecap:round;stroke-linejoin:round;stroke-miterlimit:10"
         inkscape:connector-curvature="0"
         stroke-miterlimit="10"
         d="m 33,22.7 c 0.6,0.1 1.2,0.3 1.7,0.6 l 1.9,1.2"
         id="path6672" /><path
         style="fill:none;stroke:#231f20;stroke-width:1.39999998;stroke-linecap:round;stroke-linejoin:round;stroke-miterlimit:10"
         inkscape:connector-curvature="0"
         stroke-miterlimit="10"
         d="m 24.6,25.2 3,-1.7 c 0.8,-0.5 1.9,-0.8 3,-0.9"
         id="path6674" /><path
         style="fill:none;stroke:#231f20;stroke-width:1.39999998;stroke-linecap:round;stroke-linejoin:round;stroke-miterlimit:10"
         inkscape:connector-curvature="0"
         stroke-miterlimit="10"
         d="m 42.4,47 -6.3,3.6 C 34,51.8 30.8,51.8 29,50.7 L 8.2,38.4 C 6.4,37.3 6.5,35.5 8.6,34.3 l 13.3,-7.5"
         id="path6676" /><path
         style="fill:none;stroke:#231f20;stroke-width:1.39999998;stroke-linecap:round;stroke-linejoin:round;stroke-miterlimit:10"
         inkscape:connector-curvature="0"
         stroke-miterlimit="10"
         d="m 51.1,45.2 4,-2.3 c 1.1,-0.6 1.7,-1.4 1.7,-2.2 v -3.1"
         id="path6678" /><path
         style="fill:none;stroke:#231f20;stroke-width:1.39999998;stroke-linecap:round;stroke-linejoin:round;stroke-miterlimit:10"
         inkscape:connector-curvature="0"
         stroke-miterlimit="10"
         d="m 6.9,36.5 v 3.1 c 0,0.7 0.4,1.4 1.3,1.9 L 29,53.9 c 1.8,1.1 5,1 7.1,-0.1 l 6.3,-3.6"
         id="path6680" /><line
         style="fill:none;stroke:#231f20;stroke-width:1.39999998;stroke-linecap:round;stroke-linejoin:round;stroke-miterlimit:10"
         stroke-miterlimit="10"
         x1="42.400002"
         y1="47"
         x2="42.400002"
         y2="50.099998"
         id="line6682" /><line
         style="fill:none;stroke:#231f20;stroke-width:1.39999998;stroke-linecap:round;stroke-linejoin:round;stroke-miterlimit:10"
         stroke-miterlimit="10"
         x1="44.799999"
         y1="48.400002"
         x2="44.799999"
         y2="51.5"
         id="line6684" /><line
         style="fill:none;stroke:#231f20;stroke-width:1.39999998;stroke-linecap:round;stroke-linejoin:round;stroke-miterlimit:10"
         stroke-miterlimit="10"
         x1="51.099998"
         y1="44.799999"
         x2="51.099998"
         y2="47.900002"
         id="line6686" /><line
         style="fill:none;stroke:#231f20;stroke-width:1.39999998;stroke-linecap:round;stroke-linejoin:round;stroke-miterlimit:10"
         stroke-miterlimit="10"
         x1="44.799999"
         y1="48.400002"
         x2="40.099998"
         y2="45.599998"
         id="line6688" /><line
         style="fill:none;stroke:#231f20;stroke-width:1.39999998;stroke-linecap:round;stroke-linejoin:round;stroke-miterlimit:10"
         stroke-miterlimit="10"
         x1="44.799999"
         y1="51.5"
         x2="42.400002"
         y2="50.099998"
         id="line6690" /><line
         style="fill:none;stroke:#231f20;stroke-width:1.39999998;stroke-linecap:round;stroke-linejoin:round;stroke-miterlimit:10"
         stroke-miterlimit="10"
         x1="51.099998"
         y1="44.799999"
         x2="46.400002"
         y2="42"
         id="line6692" /><line
         style="fill:none;stroke:#231f20;stroke-width:1.39999998;stroke-linecap:round;stroke-linejoin:round;stroke-miterlimit:10"
         stroke-miterlimit="10"
         x1="40.099998"
         y1="45.599998"
         x2="46.400002"
         y2="42"
         id="line6694" /><line
         style="fill:none;stroke:#231f20;stroke-width:1.39999998;stroke-linecap:round;stroke-linejoin:round;stroke-miterlimit:10"
         stroke-miterlimit="10"
         x1="44.799999"
         y1="51.5"
         x2="51.099998"
         y2="47.900002"
         id="line6696" /><line
         style="fill:none;stroke:#231f20;stroke-width:1.39999998;stroke-linecap:round;stroke-linejoin:round;stroke-miterlimit:10"
         stroke-miterlimit="10"
         x1="44.799999"
         y1="48.400002"
         x2="51.099998"
         y2="44.799999"
         id="line6698" /><path
         style="fill:none;stroke:#231f20;stroke-width:1.39999998;stroke-linecap:round;stroke-linejoin:round;stroke-miterlimit:10"
         inkscape:connector-curvature="0"
         stroke-miterlimit="10"
         d="M 51,55.5 C 51,53.8 49.9,51.8 48.6,51 l -2.4,-1.4"
         id="path6700" /><path
         style="fill:none;stroke:#231f20;stroke-width:1.39999998;stroke-linecap:round;stroke-linejoin:round;stroke-miterlimit:10"
         inkscape:connector-curvature="0"
         stroke-miterlimit="10"
         d="m 53.2,54.4 c 0,-1.7 -1.1,-3.7 -2.4,-4.5 l -2.4,-1.4"
         id="path6702" /><path
         style="fill:none;stroke:#231f20;stroke-width:1.39999998;stroke-linecap:round;stroke-linejoin:round;stroke-miterlimit:10"
         inkscape:connector-curvature="0"
         stroke-miterlimit="10"
         d="m 55.3,53.2 c 0,-1.7 -1.1,-3.7 -2.4,-4.5 l -2.4,-1.4"
         id="path6704" /></g><g
       id="axis" /><g
       id="controller" /><g
       id="spool_holder" /><g
       id="wiring" /><g
       id="power_supply" /><g
       id="extruder" /></g></g></svg>